<svg width="380" height="135" viewBox="0 0 380 135" fill="none" xmlns="http://www.w3.org/2000/svg">
<g clip-path="url(#clip0_295_521)">
<path d="M334.4 62.5C259.181 -21.1383 122.09 -20.676 46.3602 62.5C19.7431 91.7342 46.3601 135.002 0.000149727 135.002C-66.9999 226.001 445.5 226.001 380 135.002C334.4 135.002 360.747 91.7963 334.4 62.5Z" fill="#FCFCFC"/>
<path d="M134.17 76.6203V84.922H132.257V78.1833H128.488V84.922H126.575V76.6203H134.17Z" fill="#010101"/>
<path d="M143.819 79.6322C143.819 81.4804 142.422 82.6327 140.192 82.6327H138.508V84.9144H136.576V76.6203H140.192C142.422 76.6203 143.819 77.7688 143.819 79.6322ZM141.86 79.6322C141.86 78.7195 141.263 78.1833 140.085 78.1833H138.508V81.0659H140.085C141.263 81.0659 141.86 80.5335 141.86 79.6322Z" fill="#010101"/>
<path d="M145.499 76.6203H147.411V82.028L151.398 76.6203H153.212V84.922H151.299V79.5257L147.323 84.922H145.499V76.6203Z" fill="#010101"/>
<path d="M167.482 76.6203V84.922H165.569V78.1833H161.797V84.922H159.884V76.6203H167.482Z" fill="#010101"/>
<path d="M169.326 80.7693C169.326 78.305 171.258 76.4758 173.898 76.4758C176.538 76.4758 178.466 78.2822 178.466 80.7693C178.466 83.2564 176.523 85.0627 173.898 85.0627C171.274 85.0627 169.326 83.2259 169.326 80.7693ZM176.511 80.7693C176.498 80.2585 176.334 79.7628 176.04 79.3443C175.745 78.9258 175.332 78.6029 174.854 78.4162C174.375 78.2295 173.852 78.1872 173.35 78.2946C172.847 78.402 172.388 78.6543 172.029 79.02C171.67 79.3857 171.427 79.8485 171.331 80.3505C171.236 80.8525 171.291 81.3714 171.491 81.8423C171.69 82.3131 172.025 82.715 172.453 82.9977C172.882 83.2803 173.384 83.4311 173.898 83.4313C174.249 83.4407 174.599 83.3777 174.924 83.2464C175.25 83.1151 175.545 82.9183 175.79 82.6683C176.036 82.4182 176.226 82.1205 176.35 81.7937C176.475 81.4669 176.529 81.1181 176.511 80.7693V80.7693Z" fill="#010101"/>
<path d="M188.88 83.3552V86.6485H187.093V84.922H181.198V86.6485H179.407V83.3629H179.74C180.827 83.3286 181.102 81.5489 181.186 79.2253L181.282 76.6279H187.732V83.3552H188.88ZM182.07 83.3552H185.819V78.1833H182.954L182.919 79.3964C182.831 81.161 182.64 82.6821 182.07 83.3552Z" fill="#010101"/>
<path d="M199.593 83.3552V86.6485H197.802V84.922H191.895V86.6485H190.104V83.3629H190.437C191.524 83.3286 191.796 81.5489 191.88 79.2253L191.975 76.6279H198.395V83.3552H199.593ZM192.779 83.3552H196.513V78.1833H193.651L193.613 79.3964C193.532 81.161 193.341 82.6821 192.767 83.3552H192.779Z" fill="#010101"/>
<path d="M207.746 83.3781V84.922H201.28V76.6203H207.593V78.1605H203.2V79.9631H207.08V81.4576H203.2V83.3781H207.746Z" fill="#010101"/>
<path d="M216.978 79.6322C216.978 81.4804 215.581 82.6327 213.351 82.6327H211.667V84.9144H209.735V76.6203H213.366C215.581 76.6203 216.978 77.7688 216.978 79.6322ZM215.023 79.6322C215.023 78.7195 214.426 78.1833 213.244 78.1833H211.667V81.0659H213.244C214.426 81.0659 215.023 80.5335 215.023 79.6322Z" fill="#010101"/>
<path d="M226.026 81.5755H224.809V84.922H222.896V81.5755H221.656L219.782 84.922H217.574L220.073 80.5639L217.72 76.6051H219.763L221.633 79.9593H222.93V76.6203H224.843V79.9745H226.083L227.969 76.6203H230.008L227.636 80.5639L230.131 84.9068H227.904L226.026 81.5755Z" fill="#010101"/>
<path d="M234.979 81.5755H233.643V84.922H231.73V76.6203H233.643V79.9745H235.028L237.224 76.6203H239.264L236.532 80.6286L239.348 84.922H237.152L234.979 81.5755Z" fill="#010101"/>
<path d="M247.386 83.3781V84.922H240.913V76.6203H247.225V78.1605H242.826V79.9631H246.705V81.4576H242.826V83.3781H247.386Z" fill="#010101"/>
<path d="M134.17 90.8545V99.16H132.257V92.4213H128.488V99.16H126.575V90.8545H134.17Z" fill="#010101"/>
<path d="M143.819 93.874C143.819 95.726 142.422 96.8783 140.192 96.8783H138.508V99.16H136.576V90.8545H140.192C142.422 90.8545 143.819 92.0068 143.819 93.874ZM141.86 93.874C141.86 92.9613 141.263 92.4289 140.085 92.4289H138.508V95.3115H140.085C141.263 95.3039 141.86 94.7715 141.86 93.874Z" fill="#010101"/>
<path d="M151.964 97.6161V99.16H145.499V90.8545H151.811V92.3985H147.419V94.2011H151.299V95.6956H147.419V97.5971L151.964 97.6161Z" fill="#010101"/>
<path d="M160.415 96.8327C160.415 98.3995 158.697 99.3007 156.693 99.3007C155.525 99.3026 154.377 99.0039 153.36 98.4337L153.957 97.057C154.717 97.5005 155.582 97.7342 156.463 97.7339C157.561 97.7339 158.456 97.3308 158.456 96.5589C158.456 95.9314 157.886 95.6233 157.014 95.6233H154.975V94.1783H156.869C157.657 94.1783 158.112 93.8322 158.112 93.2884C158.112 92.6115 157.37 92.254 156.429 92.254C155.643 92.2615 154.872 92.4656 154.187 92.8472L153.601 91.3527C154.489 90.9073 155.469 90.6754 156.463 90.6758C158.399 90.6758 160.067 91.5543 160.067 93.0602C160.068 93.441 159.953 93.8132 159.738 94.1285C159.523 94.4438 159.218 94.6876 158.862 94.8285C159.305 94.9487 159.697 95.2095 159.977 95.5713C160.258 95.9331 160.411 96.376 160.415 96.8327V96.8327Z" fill="#010101"/>
<path d="M162.321 90.8545H164.234V96.2622L168.22 90.8545H170.038V99.16H168.125V93.7599L164.142 99.16H162.317L162.321 90.8545Z" fill="#010101"/>
<path d="M181.113 97.5932V100.879H179.315V99.16H173.427V100.879H171.637V97.5932H171.97C173.056 97.5552 173.328 95.7793 173.412 93.4519L173.508 90.8545H179.927V97.5932H181.113ZM174.3 97.5932H178.034V92.4213H175.172L175.134 93.6306C175.065 95.3952 174.873 96.9163 174.3 97.5932Z" fill="#010101"/>
<path d="M189.263 97.6161V99.16H182.797V90.8545H189.11V92.3985H184.733V94.2011H188.612V95.6956H184.733V97.5971L189.263 97.6161Z" fill="#010101"/>
<path d="M198.927 90.8545V99.16H196.995V95.7374H193.2V99.16H191.268V90.8545H193.2V94.1288H196.995V90.8545H198.927Z" fill="#010101"/>
<path d="M207.777 92.4213H205.098V99.16H203.185V92.4213H200.507V90.8545H207.75L207.777 92.4213Z" fill="#010101"/>
<path d="M208.71 95.0149C208.71 92.5126 210.642 90.7214 213.244 90.7214C213.892 90.6931 214.539 90.8107 215.135 91.0656C215.731 91.3204 216.262 91.7059 216.687 92.1932L215.447 93.334C215.192 93.0268 214.871 92.78 214.508 92.6116C214.144 92.4432 213.748 92.3574 213.347 92.3605C212.637 92.3605 211.955 92.6409 211.453 93.1402C210.951 93.6394 210.669 94.3165 210.669 95.0225C210.669 95.7285 210.951 96.4056 211.453 96.9048C211.955 97.4041 212.637 97.6845 213.347 97.6845C213.749 97.6876 214.147 97.6006 214.51 97.4301C214.874 97.2596 215.194 97.0099 215.447 96.6996L216.687 97.8404C216.264 98.3309 215.734 98.7193 215.137 98.9762C214.541 99.2331 213.893 99.3519 213.244 99.3236C210.642 99.3007 208.71 97.5096 208.71 95.0149Z" fill="#010101"/>
<path d="M221.549 95.8135H220.21V99.16H218.297V90.8545H220.21V94.2125H221.595L223.791 90.8545H225.831L223.099 94.8628L225.915 99.16H223.719L221.549 95.8135Z" fill="#010101"/>
<path d="M226.508 95.0149C226.508 92.5468 228.421 90.7214 231.076 90.7214C233.731 90.7214 235.648 92.5354 235.648 95.0149C235.648 97.4944 233.701 99.3083 231.076 99.3083C228.451 99.3083 226.508 97.4754 226.508 95.0149ZM233.689 95.0149C233.676 94.5041 233.512 94.0085 233.217 93.5899C232.923 93.1714 232.51 92.8485 232.032 92.6618C231.553 92.4751 231.03 92.4328 230.527 92.5402C230.025 92.6476 229.565 92.8999 229.206 93.2656C228.847 93.6313 228.605 94.0941 228.509 94.5961C228.414 95.0981 228.469 95.617 228.669 96.0879C228.868 96.5587 229.203 96.9606 229.631 97.2433C230.059 97.5259 230.562 97.6768 231.076 97.6769C231.427 97.6863 231.777 97.6233 232.102 97.492C232.428 97.3607 232.723 97.1639 232.968 96.9139C233.214 96.6639 233.404 96.3661 233.528 96.0393C233.652 95.7125 233.707 95.3637 233.689 95.0149V95.0149Z" fill="#010101"/>
<path d="M243.376 92.4213H239.401V99.16H237.488V90.8545H243.384L243.376 92.4213Z" fill="#010101"/>
<path d="M244.287 95.0149C244.287 92.5468 246.219 90.7214 248.855 90.7214C251.491 90.7214 253.446 92.5354 253.446 95.0149C253.446 97.4944 251.499 99.3083 248.855 99.3083C246.212 99.3083 244.287 97.4754 244.287 95.0149ZM251.468 95.0149C251.456 94.5041 251.291 94.0085 250.997 93.5899C250.702 93.1714 250.289 92.8485 249.811 92.6618C249.333 92.4751 248.809 92.4328 248.307 92.5402C247.804 92.6476 247.345 92.8999 246.986 93.2656C246.627 93.6313 246.384 94.0941 246.289 94.5961C246.193 95.0981 246.248 95.617 246.448 96.0879C246.647 96.5587 246.982 96.9606 247.41 97.2433C247.839 97.5259 248.341 97.6768 248.855 97.6769C249.207 97.6863 249.556 97.6233 249.882 97.492C250.207 97.3607 250.502 97.1639 250.747 96.9139C250.993 96.6639 251.184 96.3661 251.308 96.0393C251.432 95.7125 251.486 95.3637 251.468 95.0149V95.0149Z" fill="#010101"/>
<path d="M265.016 98.6238V99.5251H263.237V98.6124C260.409 98.4451 258.86 97.1521 258.86 94.9845C258.86 92.8168 260.409 91.52 263.237 91.3527V90.5009H265.016V91.3413C267.832 91.5086 269.385 92.813 269.385 94.9845C269.385 97.1559 267.843 98.4831 265.016 98.6238ZM263.237 97.1027V92.8434C261.542 92.9994 260.731 93.6763 260.731 94.9693C260.731 96.2622 261.626 96.9506 263.237 97.1179V97.1027ZM267.522 94.9578C267.522 93.6763 266.676 92.988 265.016 92.8434V97.1027C266.699 96.9658 267.522 96.2622 267.522 94.9731V94.9578Z" fill="#010101"/>
<path d="M270.816 95.0149C270.816 92.5468 272.748 90.7214 275.384 90.7214C278.02 90.7214 279.956 92.5354 279.956 95.0149C279.956 97.4944 278.024 99.3007 275.384 99.3007C272.744 99.3007 270.816 97.4754 270.816 95.0149ZM277.997 95.0149C277.984 94.5041 277.82 94.0085 277.525 93.5899C277.231 93.1714 276.818 92.8485 276.34 92.6618C275.861 92.4751 275.338 92.4328 274.836 92.5402C274.333 92.6476 273.874 92.8999 273.515 93.2656C273.156 93.6313 272.913 94.0941 272.817 94.5961C272.722 95.0981 272.777 95.617 272.977 96.0879C273.176 96.5587 273.511 96.9606 273.939 97.2433C274.367 97.5259 274.87 97.6768 275.384 97.6769C275.735 97.6863 276.085 97.6233 276.41 97.492C276.736 97.3607 277.031 97.1639 277.276 96.9139C277.522 96.6639 277.712 96.3661 277.836 96.0393C277.96 95.7125 278.015 95.3637 277.997 95.0149V95.0149Z" fill="#010101"/>
<path d="M289.463 90.8545V99.16H287.55V95.7374H283.755V99.16H281.819V90.8545H283.755V94.1288H287.55V90.8545H289.463Z" fill="#010101"/>
<path d="M300.543 97.5932V100.879H298.753V99.16H292.857V100.879H291.066V97.5932H291.415C292.497 97.5552 292.773 95.7793 292.857 93.4519L292.953 90.8545H299.372V97.5932H300.543ZM293.729 97.5932H297.463V92.4213H294.598L294.563 93.6306C294.475 95.3952 294.299 96.9163 293.729 97.5932V97.5932Z" fill="#010101"/>
<path d="M308.325 97.3803H304.445L303.707 99.16H301.744L305.467 90.8545H307.38L311.114 99.16H309.086L308.325 97.3803ZM307.716 95.92L306.389 92.7332L305.065 95.9124L307.716 95.92Z" fill="#010101"/>
<path d="M129.797 110.048H128.462V113.394H126.549V105.093H128.462V108.447H129.843L132.039 105.093H134.082L131.347 109.086L134.17 113.394H131.978L129.797 110.048Z" fill="#010101"/>
<path d="M143.735 105.093L140.177 111.664C139.484 112.945 138.493 113.584 137.372 113.584C136.905 113.579 136.443 113.482 136.014 113.299L136.477 111.839C136.747 111.931 137.029 111.984 137.315 111.995C137.553 111.99 137.785 111.922 137.987 111.796C138.189 111.671 138.354 111.494 138.463 111.284L138.535 111.189L135.241 105.104H137.307L139.526 109.565L141.822 105.104L143.735 105.093Z" fill="#010101"/>
<path d="M152.174 105.093V113.394H150.261V106.656H147.4L147.338 108.39C147.231 111.653 146.768 113.524 144.81 113.524C144.488 113.517 144.168 113.474 143.857 113.394L143.976 111.77C144.087 111.802 144.203 111.818 144.32 111.816C145.299 111.816 145.552 110.584 145.632 108.462L145.755 105.093H152.174Z" fill="#010101"/>
<path d="M161.789 110.5C161.789 112.402 160.5 113.394 158.346 113.394H154.573V105.093H156.486V107.819H158.613C160.645 107.819 161.789 108.705 161.789 110.5ZM159.845 110.534C159.845 109.622 159.248 109.241 158.246 109.241H156.501V111.972H158.246C159.237 111.972 159.845 111.474 159.845 110.534Z" fill="#010101"/>
<path d="M169.2 106.656H166.522V113.394H164.609V106.656H161.931V105.093H169.173L169.2 106.656Z" fill="#010101"/>
<path d="M178.814 105.093L175.26 111.664C174.568 112.945 173.577 113.584 172.456 113.584C171.987 113.579 171.525 113.482 171.094 113.299L171.56 111.839C171.829 111.931 172.11 111.984 172.394 111.995C172.636 111.994 172.873 111.927 173.08 111.802C173.286 111.676 173.454 111.497 173.565 111.284L173.638 111.189L170.344 105.104H172.429L174.648 109.565L176.943 105.104L178.814 105.093Z" fill="#010101"/>
<path d="M187.598 108.104C187.598 109.956 186.206 111.105 183.971 111.105H182.292V113.387H180.356V105.093H183.971C186.202 105.093 187.598 106.241 187.598 108.104ZM185.643 108.104C185.643 107.192 185.047 106.656 183.864 106.656H182.292V109.538H183.864C185.054 109.538 185.643 109.006 185.643 108.104V108.104Z" fill="#010101"/>
<path d="M196.941 105.093V113.394H195.001V109.972H191.214V113.394H189.282V105.093H191.214V108.367H195.001V105.093H196.941Z" fill="#010101"/>
<path d="M206.552 110.5C206.552 112.402 205.263 113.394 203.109 113.394H199.336V105.093H201.249V107.819H203.373C205.408 107.819 206.552 108.705 206.552 110.5ZM204.609 110.534C204.609 109.622 204.012 109.241 203.009 109.241H201.269V111.972H203.009C204 111.972 204.609 111.474 204.609 110.534ZM207.627 105.093H209.54V113.394H207.627V105.093Z" fill="#010101"/>
<path d="M213.534 105.093L215.267 107.606L216.997 105.093H219.261L216.484 109.086L219.487 113.394H217.192L215.279 110.641L213.366 113.394H211.135L214.119 109.146L211.327 105.093H213.534Z" fill="#010101"/>
<path d="M225.226 105.093H227.139V110.5L231.122 105.093H232.935V113.394H231.022V107.998L227.04 113.394H225.226V105.093Z" fill="#010101"/>
<path d="M243.001 105.093V113.394H241.088V109.972H237.293V113.394H235.361V105.093H237.293V108.367H241.088V105.093H243.001Z" fill="#010101"/>
<path d="M245.408 105.093H247.321V110.5L251.304 105.093H253.121V113.394H251.208V107.998L247.225 113.394H245.4L245.408 105.093Z" fill="#010101"/>
<path d="M264.285 111.827V115.17H262.506V113.413H255.527V105.093H257.44V111.827H261.19V105.093H263.103V111.827H264.285Z" fill="#010101"/>
<path d="M265.972 105.093H267.885V110.5L271.872 105.093H273.685V113.394H271.772V107.998L267.786 113.394H265.972V105.093Z" fill="#010101"/>
<path d="M281.85 111.614H277.974L277.232 113.394H275.254L278.977 105.093H280.889L284.624 113.394H282.596L281.85 111.614ZM281.241 110.158L279.937 106.979L278.613 110.158H281.241Z" fill="#010101"/>
<path d="M291.613 106.656H288.935V113.394H287.022V106.656H284.363V105.093H291.606L291.613 106.656Z" fill="#010101"/>
<path d="M293.205 105.093H295.118V110.5L299.104 105.093H300.918V113.394H299.005V107.998L295.018 113.394H293.193L293.205 105.093Z" fill="#010101"/>
<path d="M310.689 111.059C310.689 112.504 309.541 113.394 307.441 113.394H303.324V105.093H307.215C309.147 105.093 310.295 105.853 310.295 107.237C310.302 107.624 310.194 108.005 309.983 108.33C309.773 108.656 309.47 108.912 309.113 109.067C309.57 109.16 309.979 109.412 310.267 109.777C310.556 110.141 310.705 110.596 310.689 111.059V111.059ZM305.245 108.53H307.047C307.885 108.53 308.325 108.188 308.325 107.523C308.325 106.857 307.885 106.515 307.047 106.515H305.245V108.53ZM308.73 110.903C308.73 110.204 308.267 109.873 307.372 109.873H305.245V111.972H307.372C308.267 111.972 308.73 111.626 308.73 110.903Z" fill="#010101"/>
<path d="M79.9265 93.9735H82.0231C82.8467 93.9737 83.6505 93.722 84.3269 93.2522C85.0032 92.7823 85.5197 92.1169 85.807 91.3451L90.6085 78.4594V71.3777C90.6085 70.1976 90.1397 69.0659 89.3052 68.2314C88.4708 67.397 87.339 66.9282 86.1589 66.9282H68.9424V67.0697C69.8948 67.3193 70.7377 67.8774 71.3393 68.6568C71.9408 69.4363 72.2671 70.3931 72.2671 71.3777V119.159C72.2676 120.144 71.9414 121.1 71.3397 121.879C70.738 122.658 69.8948 123.215 68.9424 123.464V123.605H86.1589C87.3384 123.605 88.4695 123.137 89.3039 122.303C90.1382 121.47 90.6074 120.339 90.6085 119.159V112.101L85.7917 99.1958C85.5097 98.4233 84.9967 97.7563 84.3225 97.2854C83.6483 96.8144 82.8455 96.5624 82.0231 96.5636H79.9265C79.5835 96.5616 79.2552 96.4242 79.013 96.1813C78.7708 95.9384 78.6344 95.6096 78.6334 95.2666C78.6334 94.9237 78.7696 94.5947 79.0121 94.3522C79.2547 94.1097 79.5836 93.9735 79.9265 93.9735Z" fill="white"/>
<path d="M86.1587 123.988H68.5596V123.169L68.8465 123.092C69.7171 122.866 70.4878 122.357 71.0376 121.645C71.5874 120.933 71.8852 120.059 71.8843 119.159V71.3777C71.8854 70.4777 71.5878 69.6028 71.038 68.8903C70.4882 68.1778 69.7174 67.668 68.8465 67.4408L68.5596 67.3643V66.5456H86.1587C87.44 66.5466 88.6684 67.056 89.5744 67.962C90.4804 68.868 90.9898 70.0964 90.9908 71.3777V78.5245L86.1702 91.4675C85.856 92.3148 85.2904 93.0458 84.5492 93.5627C83.808 94.0797 82.9266 94.3578 82.0229 94.3599H79.9263C79.6851 94.3609 79.4541 94.4571 79.2836 94.6277C79.113 94.7982 79.0168 95.0293 79.0158 95.2704C79.0177 95.5117 79.1142 95.7425 79.2844 95.9135C79.4546 96.0844 79.6851 96.1818 79.9263 96.1848H82.0229C82.923 96.1856 83.8011 96.4622 84.5392 96.9773C85.2773 97.4923 85.8398 98.2212 86.1511 99.0657L90.9908 112.036V119.163C90.9878 120.443 90.4775 121.67 89.5717 122.574C88.666 123.478 87.4386 123.987 86.1587 123.988V123.988ZM70.4343 123.222H86.1587C87.2364 123.221 88.2696 122.793 89.032 122.032C89.7944 121.27 90.2236 120.237 90.2256 119.159V112.169L85.4318 99.3259C85.1747 98.6285 84.7101 98.0267 84.1007 97.6012C83.4913 97.1758 82.7662 96.9472 82.0229 96.9462H79.9263C79.4952 96.9256 79.0886 96.7399 78.7908 96.4275C78.493 96.1151 78.3269 95.7001 78.3269 95.2685C78.3269 94.837 78.493 94.4219 78.7908 94.1096C79.0886 93.7972 79.4952 93.6115 79.9263 93.5909H82.0229C82.7708 93.5915 83.501 93.364 84.1163 92.9388C84.7315 92.5136 85.2024 91.9109 85.4662 91.2112L90.241 78.3867V71.3777C90.2405 70.8425 90.1344 70.3126 89.9289 69.8184C89.7234 69.3242 89.4224 68.8754 89.0432 68.4976C88.6641 68.1199 88.2141 67.8206 87.7192 67.617C87.2242 67.4133 86.6939 67.3092 86.1587 67.3108H70.4343C71.1147 67.7487 71.6742 68.3507 72.0613 69.0613C72.4484 69.7719 72.6506 70.5685 72.6495 71.3777V119.159C72.6507 119.968 72.4484 120.764 72.0613 121.474C71.6742 122.184 71.1147 122.785 70.4343 123.222V123.222Z" fill="#010101"/>
<path d="M98.2067 66.9282C97.2341 66.9278 96.2849 67.2264 95.4877 67.7834C94.6904 68.3405 94.0836 69.1291 93.7495 70.0425L90.6084 78.4594L85.8146 91.3298C85.5273 92.1016 85.0109 92.767 84.3345 93.2368C83.6582 93.7067 82.8543 93.9584 82.0308 93.9582H101.684C102.559 93.9579 103.413 93.6903 104.132 93.1911C104.851 92.692 105.4 91.9851 105.705 91.1653L113.774 69.5451C113.975 68.9934 114.296 68.4932 114.713 68.0804C115.131 67.6676 115.635 67.3525 116.188 67.1577V66.9282H98.2067Z" fill="white"/>
<path d="M101.677 94.3561H82.0229V93.5909C82.7708 93.5915 83.5011 93.364 84.1163 92.9388C84.7315 92.5136 85.2024 91.9109 85.4663 91.2112L93.3897 69.8894C93.7576 68.9085 94.4156 68.0631 95.2762 67.4657C96.1367 66.8683 97.1589 66.5473 98.2065 66.5456H116.571V67.4294L116.315 67.5174C115.811 67.6941 115.353 67.9809 114.973 68.3567C114.594 68.7326 114.303 69.1882 114.122 69.6905L106.057 91.3145C105.722 92.206 105.123 92.9745 104.341 93.5177C103.558 94.061 102.629 94.3534 101.677 94.3561ZM84.5021 93.5909H101.677C102.474 93.589 103.251 93.3446 103.906 92.8901C104.561 92.4357 105.061 91.7927 105.342 91.0466L113.407 69.4265C113.717 68.5676 114.288 67.8276 115.04 67.3108H98.2065C97.3165 67.314 96.4485 67.5876 95.7174 68.0952C94.9864 68.6028 94.4268 69.3206 94.1128 70.1534L86.1702 91.4675C85.8471 92.3307 85.2643 93.0726 84.5021 93.5909V93.5909Z" fill="#010101"/>
<path d="M113.751 120.981L105.812 99.6549C105.471 98.7492 104.862 97.9687 104.067 97.4166C103.271 96.8646 102.327 96.5671 101.359 96.5636H82.0229C82.8453 96.5624 83.6481 96.8144 84.3224 97.2854C84.9966 97.7563 85.5095 98.4233 85.7915 99.1958L90.6083 112.101L93.8603 120.816C94.1662 121.635 94.7153 122.342 95.434 122.84C96.1527 123.339 97.0066 123.606 97.8813 123.605H116.188V123.376C115.631 123.179 115.125 122.863 114.703 122.449C114.282 122.035 113.957 121.534 113.751 120.981V120.981Z" fill="white"/>
<path d="M116.571 123.988H97.8813C96.9291 123.986 96 123.694 95.2175 123.152C94.435 122.609 93.8362 121.841 93.5007 120.95L85.4318 99.3259C85.1747 98.6285 84.7102 98.0267 84.1007 97.6012C83.4913 97.1758 82.7662 96.9472 82.0229 96.9462V96.181H101.359C102.405 96.184 103.425 96.5051 104.284 97.1017C105.143 97.6983 105.8 98.5421 106.168 99.521L114.111 120.847C114.297 121.348 114.591 121.802 114.973 122.177C115.354 122.552 115.814 122.839 116.318 123.016L116.575 123.104L116.571 123.988ZM84.4983 96.9462C85.2573 97.4609 85.8354 98.2009 86.1511 99.0619L94.2161 120.682C94.4976 121.427 94.9988 122.069 95.6534 122.523C96.3079 122.976 97.0849 123.22 97.8813 123.222H115.04C114.283 122.709 113.704 121.972 113.384 121.114L105.445 99.7888C105.132 98.9557 104.572 98.2377 103.841 97.73C103.11 97.2222 102.242 96.9489 101.351 96.9462H84.4983Z" fill="#010101"/>
</g>
<defs>
<clipPath id="clip0_295_521">
<rect width="380" height="135" fill="white"/>
</clipPath>
</defs>
</svg>
