<svg width="256" height="256" viewBox="0 0 256 256" fill="none" xmlns="http://www.w3.org/2000/svg">
<rect width="256" height="256" rx="30" fill="#083360"/>
<path d="M72.1191 91.2705V105.641H32.3618V91.2705H72.1191ZM38.5889 60.5078V138H19.9077V60.5078H38.5889ZM84.6797 60.5078V138H66.0518V60.5078H84.6797ZM149.877 123.63V138H108.577V123.63H149.877ZM115.229 60.5078V138H96.5483V60.5078H115.229ZM144.555 91.2705V105.162H108.577V91.2705H144.555ZM150.037 60.5078V74.9312H108.577V60.5078H150.037Z" fill="white"/>
<path d="M37.7754 165.695V192H32.3555V169.941H21.7866V192H16.3667V165.695H37.7754ZM52.7524 182.624H46.0498V178.396H52.7524C53.7882 178.396 54.6313 178.227 55.2817 177.89C55.9321 177.541 56.4079 177.059 56.709 176.445C57.0101 175.831 57.1606 175.138 57.1606 174.367C57.1606 173.584 57.0101 172.856 56.709 172.181C56.4079 171.507 55.9321 170.965 55.2817 170.555C54.6313 170.146 53.7882 169.941 52.7524 169.941H47.9287V192H42.5088V165.695H52.7524C54.812 165.695 56.5765 166.069 58.0459 166.815C59.5273 167.55 60.6595 168.568 61.4424 169.869C62.2253 171.169 62.6167 172.657 62.6167 174.331C62.6167 176.029 62.2253 177.499 61.4424 178.739C60.6595 179.98 59.5273 180.937 58.0459 181.612C56.5765 182.286 54.812 182.624 52.7524 182.624ZM87.9639 178.233V179.48C87.9639 181.479 87.6929 183.274 87.1509 184.864C86.6089 186.454 85.8441 187.809 84.8564 188.929C83.8688 190.037 82.6885 190.886 81.3154 191.476C79.9544 192.066 78.4429 192.361 76.7808 192.361C75.1307 192.361 73.6191 192.066 72.2461 191.476C70.8851 190.886 69.7048 190.037 68.7051 188.929C67.7054 187.809 66.9285 186.454 66.3745 184.864C65.8325 183.274 65.5615 181.479 65.5615 179.48V178.233C65.5615 176.222 65.8325 174.427 66.3745 172.85C66.9165 171.26 67.6813 169.905 68.6689 168.785C69.6686 167.665 70.849 166.809 72.21 166.219C73.583 165.629 75.0946 165.334 76.7446 165.334C78.4067 165.334 79.9183 165.629 81.2793 166.219C82.6523 166.809 83.8327 167.665 84.8203 168.785C85.82 169.905 86.5908 171.26 87.1328 172.85C87.6868 174.427 87.9639 176.222 87.9639 178.233ZM82.4897 179.48V178.197C82.4897 176.8 82.3633 175.572 82.1104 174.512C81.8574 173.452 81.484 172.561 80.9902 171.838C80.4964 171.115 79.8942 170.573 79.1836 170.212C78.473 169.839 77.66 169.652 76.7446 169.652C75.8293 169.652 75.0163 169.839 74.3057 170.212C73.6071 170.573 73.0109 171.115 72.5171 171.838C72.0353 172.561 71.668 173.452 71.415 174.512C71.1621 175.572 71.0356 176.8 71.0356 178.197V179.48C71.0356 180.865 71.1621 182.094 71.415 183.166C71.668 184.225 72.0413 185.123 72.5352 185.857C73.029 186.58 73.6312 187.128 74.3418 187.501C75.0524 187.875 75.8654 188.062 76.7808 188.062C77.6961 188.062 78.5091 187.875 79.2197 187.501C79.9303 187.128 80.5265 186.58 81.0083 185.857C81.4901 185.123 81.8574 184.225 82.1104 183.166C82.3633 182.094 82.4897 180.865 82.4897 179.48ZM102.164 180.456H95.4072L95.3711 176.734H101.044C102.044 176.734 102.863 176.607 103.501 176.354C104.139 176.09 104.615 175.71 104.928 175.216C105.253 174.71 105.416 174.096 105.416 173.374C105.416 172.555 105.259 171.892 104.946 171.386C104.645 170.88 104.169 170.513 103.519 170.284C102.881 170.055 102.056 169.941 101.044 169.941H97.2861V192H91.8662V165.695H101.044C102.574 165.695 103.941 165.84 105.145 166.129C106.361 166.418 107.391 166.858 108.234 167.448C109.077 168.038 109.722 168.785 110.167 169.688C110.613 170.579 110.836 171.639 110.836 172.868C110.836 173.952 110.589 174.951 110.095 175.867C109.613 176.782 108.849 177.529 107.801 178.107C106.765 178.685 105.41 179.004 103.736 179.064L102.164 180.456ZM101.929 192H93.9258L96.0396 187.772H101.929C102.881 187.772 103.658 187.622 104.26 187.321C104.862 187.008 105.308 186.586 105.597 186.056C105.886 185.526 106.03 184.918 106.03 184.231C106.03 183.461 105.898 182.792 105.633 182.226C105.38 181.66 104.97 181.226 104.404 180.925C103.838 180.612 103.091 180.456 102.164 180.456H96.9429L96.979 176.734H103.483L104.729 178.197C106.331 178.173 107.62 178.456 108.596 179.046C109.583 179.625 110.3 180.377 110.746 181.305C111.203 182.232 111.432 183.226 111.432 184.286C111.432 185.972 111.065 187.393 110.33 188.549C109.595 189.694 108.517 190.555 107.096 191.133C105.687 191.711 103.965 192 101.929 192ZM120.718 183.473L131.287 165.695H136.707V192H131.287V174.223L120.718 192H115.298V165.695H120.718V183.473ZM158.947 176.409V180.636H145.216V176.409H158.947ZM146.824 165.695V192H141.404V165.695H146.824ZM162.813 165.695V192H157.411V165.695H162.813ZM192.279 187.791L191.936 198.341H186.877V192H184.728V187.791H192.279ZM167.257 192V165.695H172.659V187.772H183.246V165.695H188.684V192H167.257ZM200.825 183.473L211.394 165.695H216.813V192H211.394V174.223L200.825 192H195.405V165.695H200.825V183.473ZM235.494 182.443H228.34L226.515 181.684C224.456 181.034 222.878 180.058 221.782 178.757C220.698 177.457 220.156 175.8 220.156 173.789C220.156 172.019 220.547 170.537 221.33 169.345C222.125 168.14 223.245 167.231 224.69 166.617C226.148 166.002 227.876 165.695 229.875 165.695H239.053V192H233.615V169.941H229.875C228.394 169.941 227.304 170.308 226.605 171.043C225.907 171.778 225.558 172.819 225.558 174.168C225.558 175.156 225.72 175.969 226.045 176.607C226.371 177.234 226.846 177.703 227.473 178.017C228.099 178.318 228.888 178.468 229.839 178.468H235.476L235.494 182.443ZM230.273 180.257L224.438 192H218.566L224.419 180.257H230.273Z" fill="white"/>
</svg>
