<svg width="381" height="295" viewBox="0 0 381 295" fill="none" xmlns="http://www.w3.org/2000/svg">
<path d="M365 188C365 272.157 258.168 295 174 295C89.8318 295 16.5 231.722 16.5 147.565C16.5 63.4088 128.332 0 212.5 0C296.668 0 365 103.843 365 188Z" fill="#21E18C" fill-opacity="0.6"/>
<path d="M349.5 121.167C349.5 205.324 258.168 250.602 174 250.602C89.8318 250.602 20 213.324 20 129.167C20 45.0103 65.8318 7.16699 150 7.16699C234.168 7.16699 349.5 37.0103 349.5 121.167Z" fill="#21E18C" fill-opacity="0.3"/>
<path d="M381 106.952C381 191.109 318.211 256.066 234.043 256.066C149.875 256.066 0 237.366 0 153.21C0 69.053 80.8318 76 165 76C249.168 76 381 22.7954 381 106.952Z" fill="white"/>
<path d="M120.829 133.056V143.592H118.401V135.039H113.618V143.592H111.19V133.056H120.829Z" fill="#010101"/>
<path d="M133.075 136.878C133.075 139.224 131.303 140.687 128.472 140.687H126.335V143.583H123.883V133.056H128.472C131.303 133.056 133.075 134.513 133.075 136.878ZM130.589 136.878C130.589 135.72 129.831 135.039 128.336 135.039H126.335V138.698H128.336C129.831 138.698 130.589 138.022 130.589 136.878Z" fill="#010101"/>
<path d="M135.207 133.056H137.635V139.919L142.695 133.056H144.996V143.592H142.568V136.743L137.523 143.592H135.207V133.056Z" fill="#010101"/>
<path d="M163.109 133.056V143.592H160.681V135.039H155.893V143.592H153.465V133.056H163.109Z" fill="#010101"/>
<path d="M165.449 138.321C165.449 135.194 167.901 132.872 171.252 132.872C174.602 132.872 177.05 135.165 177.05 138.321C177.05 141.478 174.583 143.771 171.252 143.771C167.921 143.771 165.449 141.439 165.449 138.321ZM174.569 138.321C174.552 137.673 174.344 137.044 173.97 136.513C173.596 135.982 173.072 135.572 172.465 135.335C171.858 135.098 171.194 135.044 170.556 135.18C169.918 135.317 169.335 135.637 168.879 136.101C168.424 136.565 168.116 137.153 167.994 137.79C167.873 138.427 167.943 139.086 168.197 139.683C168.45 140.281 168.875 140.791 169.418 141.15C169.962 141.508 170.6 141.7 171.252 141.7C171.698 141.712 172.141 141.632 172.555 141.465C172.968 141.299 173.342 141.049 173.653 140.732C173.965 140.414 174.207 140.036 174.365 139.622C174.522 139.207 174.591 138.764 174.569 138.321Z" fill="#010101"/>
<path d="M190.267 141.604V145.784H188V143.592H180.517V145.784H178.244V141.613H178.667C180.046 141.57 180.395 139.311 180.502 136.362L180.624 133.065H188.81V141.604H190.267ZM181.624 141.604H186.383V135.04H182.746L182.702 136.579C182.59 138.819 182.347 140.749 181.624 141.604Z" fill="#010101"/>
<path d="M203.864 141.604V145.784H201.591V143.592H194.094V145.784H191.821V141.613H192.244C193.623 141.57 193.968 139.311 194.074 136.362L194.196 133.065H202.344V141.604H203.864ZM195.216 141.604H199.955V135.04H196.323L196.274 136.579C196.172 138.819 195.929 140.749 195.201 141.604H195.216Z" fill="#010101"/>
<path d="M214.211 141.633V143.592H206.005V133.056H214.017V135.01H208.443V137.298H213.366V139.195H208.443V141.633H214.211Z" fill="#010101"/>
<path d="M225.928 136.878C225.928 139.224 224.156 140.687 221.325 140.687H219.189V143.583H216.736V133.056H221.345C224.156 133.056 225.928 134.513 225.928 136.878ZM223.447 136.878C223.447 135.72 222.69 135.039 221.189 135.039H219.189V138.698H221.189C222.69 138.698 223.447 138.022 223.447 136.878Z" fill="#010101"/>
<path d="M237.413 139.345H235.868V143.592H233.441V139.345H231.867L229.488 143.592H226.686L229.857 138.061L226.871 133.036H229.464L231.838 137.293H233.484V133.055H235.912V137.313H237.485L239.879 133.055H242.468L239.457 138.061L242.623 143.573H239.797L237.413 139.345Z" fill="#010101"/>
<path d="M248.775 139.345H247.081V143.592H244.653V133.056H247.081V137.313H248.839L251.626 133.056H254.214L250.747 138.143L254.321 143.592H251.534L248.775 139.345Z" fill="#010101"/>
<path d="M264.523 141.633V143.592H256.307V133.056H264.319V135.01H258.735V137.298H263.658V139.195H258.735V141.633H264.523Z" fill="#010101"/>
<path d="M120.829 151.122V161.663H118.401V153.111H113.618V161.663H111.19V151.122H120.829Z" fill="#010101"/>
<path d="M133.075 154.954C133.075 157.305 131.303 158.767 128.472 158.767H126.335V161.663H123.883V151.122H128.472C131.303 151.122 133.075 152.585 133.075 154.954ZM130.589 154.954C130.589 153.796 129.831 153.12 128.336 153.12H126.335V156.779H128.336C129.831 156.769 130.589 156.094 130.589 154.954Z" fill="#010101"/>
<path d="M143.413 159.704V161.663H135.207V151.122H143.219V153.082H137.645V155.37H142.568V157.266H137.645V159.68L143.413 159.704Z" fill="#010101"/>
<path d="M154.14 158.71C154.14 160.698 151.959 161.842 149.415 161.842C147.933 161.845 146.476 161.466 145.186 160.742L145.943 158.995C146.907 159.557 148.005 159.854 149.124 159.854C150.517 159.854 151.654 159.342 151.654 158.362C151.654 157.566 150.93 157.175 149.823 157.175H147.235V155.341H149.638C150.639 155.341 151.217 154.902 151.217 154.211C151.217 153.352 150.274 152.899 149.08 152.899C148.083 152.908 147.104 153.167 146.234 153.652L145.491 151.755C146.618 151.189 147.862 150.895 149.124 150.896C151.581 150.896 153.698 152.01 153.698 153.922C153.698 154.405 153.553 154.877 153.28 155.278C153.007 155.678 152.62 155.987 152.168 156.166C152.731 156.319 153.228 156.65 153.584 157.109C153.94 157.568 154.135 158.13 154.14 158.71Z" fill="#010101"/>
<path d="M156.558 151.122H158.986V157.986L164.046 151.122H166.352V161.663H163.924V154.81L158.869 161.663H156.553L156.558 151.122Z" fill="#010101"/>
<path d="M180.41 159.675V163.845H178.128V161.663H170.654V163.845H168.382V159.675H168.804C170.183 159.627 170.528 157.373 170.635 154.419L170.756 151.122H178.904V159.675H180.41ZM171.762 159.675H176.501V153.111H172.869L172.82 154.646C172.733 156.885 172.49 158.816 171.762 159.675Z" fill="#010101"/>
<path d="M190.753 159.704V161.663H182.546V151.122H190.559V153.082H185.003V155.37H189.927V157.266H185.003V159.68L190.753 159.704Z" fill="#010101"/>
<path d="M203.019 151.122V161.663H200.567V157.319H195.75V161.663H193.297V151.122H195.75V155.278H200.567V151.122H203.019Z" fill="#010101"/>
<path d="M214.251 153.111H210.851V161.663H208.424V153.111H205.024V151.122H214.217L214.251 153.111Z" fill="#010101"/>
<path d="M215.435 156.403C215.435 153.227 217.887 150.953 221.189 150.953C222.012 150.918 222.833 151.067 223.589 151.39C224.346 151.714 225.02 152.203 225.56 152.821L223.986 154.269C223.662 153.879 223.255 153.566 222.794 153.352C222.332 153.139 221.829 153.03 221.32 153.034C220.419 153.034 219.554 153.39 218.917 154.023C218.279 154.657 217.921 155.516 217.921 156.412C217.921 157.308 218.279 158.168 218.917 158.801C219.554 159.435 220.419 159.791 221.32 159.791C221.831 159.795 222.335 159.685 222.797 159.468C223.258 159.252 223.665 158.935 223.986 158.541L225.56 159.989C225.022 160.611 224.35 161.104 223.592 161.43C222.835 161.757 222.014 161.907 221.189 161.871C217.887 161.842 215.435 159.569 215.435 156.403Z" fill="#010101"/>
<path d="M231.731 157.416H230.032V161.663H227.604V151.122H230.032V155.384H231.79L234.577 151.122H237.165L233.698 156.209L237.272 161.663H234.485L231.731 157.416Z" fill="#010101"/>
<path d="M238.024 156.402C238.024 153.27 240.452 150.953 243.822 150.953C247.192 150.953 249.625 153.255 249.625 156.402C249.625 159.549 247.153 161.852 243.822 161.852C240.491 161.852 238.024 159.525 238.024 156.402ZM247.139 156.402C247.123 155.754 246.914 155.125 246.54 154.594C246.166 154.063 245.643 153.653 245.035 153.416C244.428 153.179 243.764 153.125 243.126 153.262C242.488 153.398 241.905 153.718 241.45 154.182C240.994 154.646 240.686 155.234 240.565 155.871C240.443 156.508 240.514 157.167 240.767 157.764C241.02 158.362 241.445 158.872 241.989 159.231C242.532 159.589 243.17 159.781 243.822 159.781C244.268 159.793 244.712 159.713 245.125 159.546C245.538 159.38 245.912 159.13 246.224 158.813C246.535 158.495 246.777 158.117 246.935 157.703C247.092 157.288 247.162 156.845 247.139 156.402Z" fill="#010101"/>
<path d="M259.434 153.111H254.389V161.663H251.961V151.122H259.444L259.434 153.111Z" fill="#010101"/>
<path d="M260.59 156.402C260.59 153.27 263.042 150.953 266.388 150.953C269.733 150.953 272.215 153.255 272.215 156.402C272.215 159.549 269.743 161.852 266.388 161.852C263.032 161.852 260.59 159.525 260.59 156.402ZM269.704 156.402C269.688 155.754 269.48 155.125 269.106 154.594C268.732 154.063 268.208 153.653 267.601 153.416C266.993 153.179 266.329 153.125 265.692 153.262C265.054 153.398 264.471 153.718 264.015 154.182C263.559 154.646 263.252 155.234 263.13 155.871C263.009 156.508 263.079 157.167 263.332 157.764C263.586 158.362 264.011 158.872 264.554 159.231C265.097 159.589 265.735 159.781 266.388 159.781C266.834 159.793 267.277 159.713 267.69 159.546C268.104 159.38 268.478 159.13 268.789 158.813C269.101 158.495 269.343 158.117 269.5 157.703C269.658 157.288 269.727 156.845 269.704 156.402Z" fill="#010101"/>
<path d="M286.899 160.983V162.126H284.641V160.968C281.052 160.756 279.085 159.115 279.085 156.363C279.085 153.612 281.052 151.966 284.641 151.754V150.673H286.899V151.74C290.472 151.952 292.444 153.607 292.444 156.363C292.444 159.119 290.487 160.804 286.899 160.983ZM284.641 159.052V153.646C282.489 153.844 281.46 154.703 281.46 156.344C281.46 157.985 282.596 158.859 284.641 159.071V159.052ZM290.079 156.33C290.079 154.703 289.006 153.829 286.899 153.646V159.052C289.035 158.878 290.079 157.985 290.079 156.349V156.33Z" fill="#010101"/>
<path d="M294.26 156.402C294.26 153.27 296.712 150.953 300.058 150.953C303.404 150.953 305.861 153.255 305.861 156.402C305.861 159.549 303.409 161.842 300.058 161.842C296.708 161.842 294.26 159.525 294.26 156.402ZM303.375 156.402C303.358 155.754 303.15 155.125 302.776 154.594C302.402 154.063 301.878 153.653 301.271 153.416C300.664 153.179 300 153.125 299.362 153.262C298.724 153.398 298.141 153.718 297.685 154.182C297.23 154.646 296.922 155.234 296.801 155.871C296.679 156.508 296.749 157.167 297.003 157.764C297.256 158.362 297.681 158.872 298.224 159.231C298.768 159.589 299.406 159.781 300.058 159.781C300.504 159.793 300.947 159.713 301.361 159.546C301.774 159.38 302.148 159.13 302.46 158.813C302.771 158.495 303.013 158.117 303.171 157.703C303.328 157.288 303.398 156.845 303.375 156.402Z" fill="#010101"/>
<path d="M317.928 151.122V161.663H315.5V157.319H310.683V161.663H308.226V151.122H310.683V155.278H315.5V151.122H317.928Z" fill="#010101"/>
<path d="M331.99 159.675V163.845H329.718V161.663H322.235V163.845H319.962V159.675H320.404C321.778 159.627 322.128 157.373 322.235 154.419L322.356 151.122H330.504V159.675H331.99ZM323.342 159.675H328.081V153.111H324.444L324.401 154.646C324.289 156.885 324.066 158.816 323.342 159.675Z" fill="#010101"/>
<path d="M341.867 159.405H336.943L336.006 161.663H333.515L338.239 151.122H340.667L345.407 161.663H342.833L341.867 159.405ZM341.095 157.551L339.41 153.506L337.73 157.541L341.095 157.551Z" fill="#010101"/>
<path d="M115.278 175.481H113.584V179.729H111.156V169.192H113.584V173.449H115.337L118.124 169.192H120.717L117.245 174.26L120.829 179.729H118.046L115.278 175.481Z" fill="#010101"/>
<path d="M132.968 169.192L128.453 177.533C127.574 179.159 126.316 179.97 124.893 179.97C124.3 179.964 123.714 179.84 123.169 179.608L123.757 177.755C124.1 177.872 124.458 177.939 124.82 177.953C125.122 177.947 125.417 177.86 125.674 177.701C125.93 177.542 126.139 177.317 126.277 177.05L126.369 176.929L122.188 169.207H124.811L127.627 174.869L130.541 169.207L132.968 169.192Z" fill="#010101"/>
<path d="M143.68 169.192V179.729H141.252V171.176H137.62L137.542 173.377C137.406 177.518 136.819 179.893 134.333 179.893C133.925 179.885 133.519 179.83 133.124 179.729L133.274 177.668C133.416 177.708 133.563 177.728 133.711 177.726C134.954 177.726 135.275 176.162 135.377 173.469L135.532 169.192H143.68Z" fill="#010101"/>
<path d="M155.883 176.056C155.883 178.469 154.247 179.729 151.513 179.729H146.725V169.192H149.153V172.653H151.853C154.431 172.653 155.883 173.778 155.883 176.056ZM153.416 176.099C153.416 174.941 152.659 174.458 151.387 174.458H149.172V177.924H151.387C152.644 177.924 153.416 177.291 153.416 176.099Z" fill="#010101"/>
<path d="M165.289 171.176H161.89V179.729H159.462V171.176H156.062V169.192H165.255L165.289 171.176Z" fill="#010101"/>
<path d="M177.492 169.192L172.98 177.533C172.102 179.159 170.844 179.97 169.421 179.97C168.827 179.963 168.239 179.84 167.692 179.608L168.285 177.755C168.626 177.872 168.983 177.939 169.343 177.953C169.65 177.952 169.951 177.867 170.213 177.708C170.475 177.549 170.688 177.321 170.829 177.05L170.922 176.929L166.741 169.207H169.387L172.204 174.869L175.117 169.207L177.492 169.192Z" fill="#010101"/>
<path d="M188.64 173.015C188.64 175.366 186.873 176.823 184.037 176.823H181.905V179.719H179.448V169.192H184.037C186.868 169.192 188.64 170.65 188.64 173.015ZM186.159 173.015C186.159 171.857 185.402 171.176 183.901 171.176H181.905V174.835H183.901C185.411 174.835 186.159 174.159 186.159 173.015Z" fill="#010101"/>
<path d="M200.499 169.192V179.729H198.037V175.385H193.23V179.729H190.777V169.192H193.23V173.348H198.037V169.192H200.499Z" fill="#010101"/>
<path d="M212.696 176.056C212.696 178.469 211.06 179.729 208.326 179.729H203.538V169.192H205.966V172.653H208.661C211.244 172.653 212.696 173.778 212.696 176.056ZM210.229 176.099C210.229 174.941 209.472 174.458 208.2 174.458H205.99V177.924H208.2C209.457 177.924 210.229 177.291 210.229 176.099ZM214.061 169.192H216.489V179.729H214.061V169.192Z" fill="#010101"/>
<path d="M221.558 169.192L223.758 172.383L225.953 169.192H228.827L225.302 174.26L229.114 179.729H226.2L223.773 176.234L221.345 179.729H218.514L222.301 174.338L218.756 169.192H221.558Z" fill="#010101"/>
<path d="M236.398 169.192H238.826V176.056L243.881 169.192H246.182V179.729H243.755V172.88L238.7 179.729H236.398V169.192Z" fill="#010101"/>
<path d="M258.958 169.192V179.729H256.53V175.385H251.713V179.729H249.261V169.192H251.713V173.348H256.53V169.192H258.958Z" fill="#010101"/>
<path d="M262.013 169.192H264.441V176.056L269.495 169.192H271.802V179.729H269.374V172.88L264.319 179.729H262.003L262.013 169.192Z" fill="#010101"/>
<path d="M285.971 177.74V181.983H283.714V179.753H274.856V169.192H277.284V177.74H282.043V169.192H284.471V177.74H285.971Z" fill="#010101"/>
<path d="M288.113 169.192H290.541V176.056L295.601 169.192H297.902V179.729H295.474V172.88L290.414 179.729H288.113V169.192Z" fill="#010101"/>
<path d="M308.265 177.47H303.346L302.404 179.729H299.893L304.618 169.192H307.046L311.785 179.729H309.211L308.265 177.47ZM307.492 175.621L305.837 171.586L304.156 175.621H307.492Z" fill="#010101"/>
<path d="M320.656 171.176H317.257V179.729H314.829V171.176H311.455V169.192H320.647L320.656 171.176Z" fill="#010101"/>
<path d="M322.677 169.192H325.105V176.056L330.164 169.192H332.466V179.729H330.038V172.88L324.978 179.729H322.662L322.677 169.192Z" fill="#010101"/>
<path d="M344.868 176.765C344.868 178.599 343.411 179.729 340.745 179.729H335.521V169.192H340.459C342.911 169.192 344.368 170.158 344.368 171.915C344.377 172.406 344.239 172.889 343.972 173.302C343.705 173.715 343.321 174.04 342.867 174.236C343.447 174.355 343.966 174.675 344.333 175.138C344.699 175.6 344.888 176.177 344.868 176.765ZM337.958 173.556H340.245C341.309 173.556 341.867 173.121 341.867 172.277C341.867 171.432 341.309 170.998 340.245 170.998H337.958V173.556ZM342.382 176.567C342.382 175.679 341.794 175.259 340.658 175.259H337.958V177.924H340.658C341.794 177.924 342.382 177.485 342.382 176.567Z" fill="#010101"/>
<path d="M51.9822 155.08H54.6432C55.6884 155.08 56.7087 154.761 57.5671 154.164C58.4255 153.568 59.081 152.724 59.4456 151.744L65.5397 135.389V126.401C65.5397 124.903 64.9447 123.467 63.8856 122.408C62.8265 121.349 61.3901 120.754 59.8923 120.754H38.041V120.934C39.2499 121.25 40.3197 121.959 41.0831 122.948C41.8466 123.937 42.2608 125.152 42.2607 126.401V187.046C42.2613 188.295 41.8473 189.509 41.0837 190.498C40.32 191.487 39.2499 192.194 38.041 192.509V192.688H59.8923C61.3893 192.688 62.825 192.094 63.8839 191.036C64.9428 189.978 65.5384 188.543 65.5397 187.046V178.087L59.4262 161.708C59.0683 160.728 58.4173 159.881 57.5616 159.283C56.7059 158.686 55.6869 158.366 54.6432 158.367H51.9822C51.5468 158.365 51.1301 158.19 50.8227 157.882C50.5153 157.574 50.3422 157.157 50.3409 156.721C50.3409 156.286 50.5138 155.868 50.8216 155.561C51.1294 155.253 51.5469 155.08 51.9822 155.08Z" fill="white"/>
<path d="M59.8926 193.174H37.5557V192.135L37.9199 192.038C39.0248 191.751 40.0029 191.105 40.7008 190.201C41.3986 189.298 41.7766 188.188 41.7754 187.046V126.401C41.7769 125.259 41.3991 124.149 40.7013 123.244C40.0035 122.34 39.0251 121.693 37.9199 121.405L37.5557 121.308V120.269H59.8926C61.5187 120.27 63.0779 120.916 64.2278 122.066C65.3777 123.216 66.0242 124.775 66.0255 126.401V135.472L59.9071 151.9C59.5083 152.975 58.7905 153.903 57.8498 154.559C56.909 155.215 55.7903 155.568 54.6434 155.571H51.9824C51.6763 155.572 51.3831 155.694 51.1666 155.91C50.9501 156.127 50.828 156.42 50.8267 156.726C50.8292 157.032 50.9516 157.325 51.1677 157.542C51.3837 157.759 51.6762 157.883 51.9824 157.887H54.6434C55.7857 157.888 56.9003 158.239 57.8371 158.893C58.7739 159.546 59.4879 160.471 59.8829 161.543L66.0255 178.005V187.051C66.0217 188.676 65.374 190.232 64.2244 191.38C63.0748 192.528 61.5171 193.173 59.8926 193.174ZM39.935 192.203H59.8926C61.2603 192.202 62.5718 191.658 63.5394 190.692C64.507 189.725 65.0518 188.414 65.0543 187.046V178.175L58.97 161.873C58.6436 160.988 58.054 160.224 57.2805 159.685C56.507 159.145 55.5867 158.854 54.6434 158.853H51.9824C51.4353 158.827 50.9192 158.591 50.5412 158.195C50.1632 157.798 49.9524 157.272 49.9524 156.724C49.9524 156.176 50.1632 155.649 50.5412 155.253C50.9192 154.856 51.4353 154.621 51.9824 154.595H54.6434C55.5926 154.595 56.5194 154.307 57.3003 153.767C58.0811 153.227 58.6788 152.462 59.0137 151.574L65.0738 135.297V126.401C65.0731 125.722 64.9385 125.05 64.6777 124.422C64.4168 123.795 64.0349 123.226 63.5536 122.746C63.0724 122.267 62.5013 121.887 61.8731 121.628C61.2449 121.37 60.5719 121.238 59.8926 121.24H39.935C40.7987 121.796 41.5088 122.56 42 123.462C42.4913 124.363 42.748 125.374 42.7466 126.401V187.046C42.7481 188.073 42.4914 189.083 42.0001 189.984C41.5088 190.885 40.7986 191.648 39.935 192.203Z" fill="#010101"/>
<path d="M75.1838 120.754C73.9494 120.753 72.7447 121.132 71.7329 121.839C70.721 122.546 69.9509 123.547 69.5268 124.707L65.5401 135.389L59.4558 151.725C59.0912 152.704 58.4357 153.549 57.5772 154.145C56.7188 154.741 55.6985 155.061 54.6533 155.06H79.5978C80.7084 155.06 81.7923 154.721 82.7044 154.087C83.6166 153.453 84.3133 152.556 84.7013 151.516L94.9423 124.075C95.1973 123.375 95.6044 122.74 96.1342 122.216C96.664 121.692 97.3034 121.292 98.0063 121.045V120.754H75.1838Z" fill="white"/>
<path d="M79.5881 155.566H54.6436V154.595C55.5927 154.595 56.5196 154.307 57.3004 153.767C58.0813 153.227 58.679 152.462 59.0138 151.574L69.0703 124.513C69.5372 123.268 70.3724 122.195 71.4646 121.436C72.5568 120.678 73.8542 120.271 75.1838 120.269H98.4919V121.39L98.1665 121.502C97.5271 121.726 96.9456 122.09 96.4644 122.567C95.9831 123.044 95.6141 123.623 95.3841 124.26L85.148 151.705C84.7223 152.837 83.9625 153.812 82.9694 154.502C81.9764 155.191 80.797 155.562 79.5881 155.566ZM57.7901 154.595H79.5881C80.5996 154.592 81.5864 154.282 82.4174 153.705C83.2483 153.128 83.884 152.312 84.2399 151.365L94.4761 123.925C94.8691 122.835 95.5944 121.896 96.5495 121.24H75.1838C74.0542 121.244 72.9525 121.591 72.0246 122.235C71.0968 122.88 70.3865 123.791 69.988 124.848L59.9073 151.9C59.4972 152.995 58.7575 153.937 57.7901 154.595Z" fill="#010101"/>
<path d="M94.9131 189.357L84.8372 162.291C84.4034 161.141 83.6307 160.151 82.6213 159.45C81.612 158.749 80.4137 158.372 79.185 158.367H54.6436C55.6873 158.366 56.7063 158.686 57.562 159.283C58.4177 159.881 59.0687 160.728 59.4266 161.708L65.5401 178.087L69.6676 189.148C70.0558 190.188 70.7527 191.085 71.6649 191.718C72.5771 192.35 73.6609 192.689 74.771 192.688H98.0063V192.397C97.2996 192.148 96.6563 191.746 96.1218 191.221C95.5873 190.696 95.1747 190.059 94.9131 189.357Z" fill="white"/>
<path d="M98.4919 193.174H74.7711C73.5625 193.172 72.3833 192.802 71.3901 192.113C70.397 191.424 69.637 190.45 69.2111 189.319L58.9701 161.873C58.6438 160.988 58.0542 160.224 57.2807 159.684C56.5072 159.144 55.5869 158.854 54.6436 158.853V157.882H79.185C80.5124 157.886 81.8072 158.293 82.8974 159.05C83.9877 159.808 84.8217 160.879 85.2888 162.121L95.3696 189.187C95.6058 189.824 95.9792 190.401 96.4635 190.877C96.9477 191.352 97.5308 191.716 98.1714 191.941L98.4967 192.052L98.4919 193.174ZM57.7853 158.853C58.7486 159.506 59.4823 160.446 59.883 161.538L70.1191 188.979C70.4764 189.924 71.1126 190.739 71.9434 191.315C72.7741 191.891 73.7603 192.2 74.7711 192.203H96.5495C95.5881 191.551 94.8532 190.616 94.4469 189.527L84.3711 162.461C83.9731 161.404 83.2631 160.492 82.3351 159.848C81.4071 159.203 80.3051 158.856 79.1753 158.853H57.7853Z" fill="#010101"/>
</svg>
