<svg width="170" height="157" viewBox="0 0 170 157" fill="none" xmlns="http://www.w3.org/2000/svg">
<path fill-rule="evenodd" clip-rule="evenodd" d="M30.2754 79.795C31.2452 79.795 32.0028 80.5829 32.0028 81.5224C32.0028 82.4922 31.23 83.2498 30.2754 83.2498C29.3359 83.2498 28.5631 82.4771 28.5631 81.5224C28.5631 80.5829 29.3359 79.795 30.2754 79.795ZM141.043 78.7191C141.982 78.7191 142.755 79.4919 142.755 80.4314C142.755 81.4012 141.982 82.1588 141.043 82.1588C140.073 82.1588 139.315 81.386 139.315 80.4314C139.315 79.4919 140.088 78.7191 141.043 78.7191ZM147.316 71.0063C146.589 70.5669 145.937 70.4002 145.346 70.476C144.755 70.582 144.286 70.9003 143.967 71.4003C143.664 71.9004 143.573 72.461 143.755 73.0065C143.907 73.5823 144.376 74.0824 145.119 74.5369C145.861 74.9915 146.528 75.1734 147.074 75.0825C147.65 74.9764 148.104 74.6582 148.437 74.143C148.771 73.6126 148.847 73.0671 148.695 72.5216C148.513 71.9761 148.074 71.4761 147.331 71.0063H147.316ZM83.7196 0.0151529L82.2194 0.10607L79.4162 5.24289L79.1586 0.257599L77.7039 0.31821L78.0978 7.81888L79.6283 7.72796L82.4316 2.68206L82.6892 7.57643L84.1438 7.48552L83.7347 0L83.7196 0.0151529ZM12.8496 50.9136V51.5804C12.9102 52.3683 13.2133 53.0199 13.7436 53.5654C14.4255 54.2473 15.365 54.6109 16.6378 54.6867C17.8197 54.7473 18.7895 54.4897 19.5169 53.8684C20.2442 53.2775 20.6382 52.4592 20.6836 51.4743C20.7291 50.656 20.5776 49.9893 20.1987 49.459C19.8048 48.9135 19.2138 48.4892 18.3956 48.2316L17.8501 49.6862C18.3956 49.8378 18.7895 50.0651 19.032 50.3681C19.2744 50.6712 19.3805 51.0197 19.3653 51.4137C19.3502 51.9592 19.1229 52.3986 18.6835 52.7017C18.2592 53.035 17.5622 53.1563 16.6227 53.1108C15.6983 53.0653 15.0619 52.8532 14.668 52.4895C14.2891 52.1107 14.1225 51.6561 14.1376 51.1106C14.1528 50.6863 14.2891 50.3681 14.5316 50.0954C14.774 49.8378 15.1074 49.6559 15.5014 49.5953L15.2135 48.08C14.5922 48.2164 14.1225 48.4589 13.7739 48.7619C13.2133 49.2923 12.9102 49.9893 12.8496 50.8833V50.9136ZM156.453 50.7015V50.5348C156.453 50.4893 156.453 50.4439 156.453 50.3984C156.408 49.3529 156.014 48.5346 155.271 47.9134C154.544 47.3072 153.544 47.0345 152.286 47.0951C151.074 47.1557 150.165 47.5345 149.498 48.1861C148.847 48.868 148.559 49.7014 148.604 50.6863C148.65 51.4894 148.892 52.1562 149.301 52.6562C149.741 53.1563 150.377 53.4896 151.21 53.6715L151.604 52.2016C151.059 52.0956 150.619 51.9137 150.362 51.6258C150.074 51.3379 149.938 51.0045 149.922 50.6106C149.877 50.0651 150.074 49.5953 150.453 49.2468C150.847 48.868 151.529 48.671 152.483 48.6255C153.377 48.5801 154.044 48.7165 154.453 49.0347C154.893 49.3377 155.105 49.8075 155.135 50.353C155.165 50.7469 155.074 51.0955 154.847 51.3834C154.65 51.6864 154.347 51.8834 153.953 52.0046L154.393 53.4745C154.983 53.2775 155.438 52.9896 155.756 52.6411C156.226 52.0956 156.453 51.444 156.468 50.656L156.453 50.7015ZM148.119 69.6729C148.771 70.0668 149.256 70.5063 149.589 70.9609C149.832 71.3094 149.998 71.7034 150.089 72.0973C150.195 72.5216 150.225 72.9156 150.15 73.2793C150.059 73.7793 149.862 74.2945 149.544 74.8097C148.953 75.734 148.18 76.2947 147.24 76.4917C146.301 76.6887 145.286 76.4614 144.24 75.8401C143.21 75.1885 142.573 74.4157 142.331 73.4914C142.119 72.5671 142.285 71.6428 142.876 70.7033C143.467 69.7638 144.24 69.188 145.18 68.991C146.119 68.794 147.089 69.0061 148.119 69.6426V69.6729ZM150.135 63.8087L148.225 63.0814L147.725 64.3997C147.528 64.8997 147.422 65.2331 147.392 65.3846C147.346 65.6119 147.377 65.7937 147.483 66.0059C147.574 66.2029 147.74 66.3392 148.013 66.4302C148.21 66.5211 148.407 66.5362 148.604 66.4908C148.801 66.4453 148.953 66.3392 149.104 66.1574C149.241 66.0059 149.438 65.5816 149.68 64.9452L150.135 63.8087ZM152.938 64.8846L151.316 64.2482L150.938 65.1725C150.71 65.7483 150.604 66.0665 150.559 66.218C150.498 66.4605 150.498 66.6726 150.574 66.8696C150.665 67.0666 150.832 67.203 151.059 67.2939C151.286 67.3848 151.483 67.3848 151.68 67.309C151.862 67.2484 152.014 67.0969 152.12 66.8696C152.211 66.7332 152.362 66.3392 152.62 65.6877L152.923 64.8694L152.938 64.8846ZM154.665 63.8996L153.589 66.7029C153.362 67.2484 153.165 67.6727 153.014 67.9151C152.877 68.1727 152.68 68.3697 152.438 68.5516C152.211 68.7031 151.938 68.8092 151.65 68.8546C151.347 68.9001 151.044 68.8698 150.726 68.7486C150.392 68.6425 150.104 68.4152 149.907 68.1424C149.695 67.8848 149.574 67.5515 149.559 67.203C149.271 67.5818 148.922 67.8242 148.528 67.9454C148.134 68.0515 147.74 68.0364 147.346 67.8848C147.013 67.7485 146.725 67.5515 146.468 67.2939C146.225 67.0363 146.074 66.7484 145.983 66.415C145.892 66.0816 145.922 65.7331 145.998 65.3392C146.058 65.0967 146.286 64.5209 146.634 63.6269L147.559 61.2327L154.635 63.9148L154.665 63.8996ZM148.483 56.5353L154.696 57.6264L155.09 55.4292L156.362 55.6565L155.302 61.5055L154.029 61.2933L154.423 59.0962L148.21 58.0203L148.468 56.5353H148.483ZM146.831 40.837L154.18 38.9126L155.635 44.2615L154.408 44.5949L153.332 40.6854L151.71 41.1249L152.695 44.7616L151.468 45.0949L150.483 41.4582L148.483 41.9886L149.574 46.0193L148.331 46.3526L146.846 40.8521L146.831 40.837ZM148.316 27.6085L149.089 28.9268L143.604 32.0332L144.695 33.9121L150.18 30.7906L150.953 32.0786L145.467 35.2001L146.604 37.1548L152.059 34.0333L152.832 35.3213L147.346 38.4277L147.695 39.0186L145.149 40.4733L144.513 39.3823L145.968 38.564L141.71 31.321L148.316 27.5631V27.6085ZM138.452 26.1538L139.467 27.2297C139.8 27.5782 140.043 27.8055 140.209 27.9116C140.391 28.0176 140.558 28.0934 140.785 28.0631C140.997 28.0631 141.194 27.9722 141.391 27.8207C141.634 27.5782 141.74 27.3206 141.694 27.0327C141.634 26.7297 141.391 26.3811 140.997 25.9417L139.922 24.8204L138.452 26.1538ZM142.028 20.8049L145.907 24.9113L144.967 25.7599L142.134 22.7748L140.861 23.9567L142.27 25.4265C142.649 25.8356 142.907 26.2145 143.058 26.5933C143.21 26.9418 143.255 27.3661 143.164 27.8055C143.058 28.2449 142.831 28.6389 142.467 28.9723C142.088 29.3208 141.679 29.5178 141.24 29.5632C140.785 29.6239 140.391 29.5784 140.058 29.4269C139.725 29.2753 139.361 28.9723 138.921 28.5025L136.482 25.9114L142.028 20.8049ZM133.451 18.4562C132.906 19.1078 132.663 19.729 132.678 20.32C132.694 20.911 132.966 21.3958 133.451 21.7595C133.906 22.1383 134.436 22.2899 135.027 22.1989C135.603 22.0929 136.164 21.7141 136.739 21.0322C137.285 20.3806 137.527 19.7442 137.512 19.1835C137.497 18.6077 137.224 18.138 136.739 17.7289C136.239 17.3349 135.709 17.1833 135.133 17.2894C134.557 17.3803 133.997 17.744 133.451 18.4259V18.4562ZM132.194 17.5167C132.678 16.9258 133.163 16.4863 133.679 16.2439C134.057 16.0469 134.451 15.9105 134.891 15.8651C135.3 15.8196 135.709 15.8499 136.073 15.956C136.573 16.0923 137.058 16.3499 137.543 16.7439C138.421 17.4409 138.876 18.2592 138.967 19.1987C139.058 20.1685 138.709 21.1079 137.937 22.0474C137.164 22.9869 136.285 23.5172 135.345 23.6233C134.376 23.7597 133.482 23.4718 132.603 22.7748C131.724 22.0777 131.239 21.2595 131.148 20.32C131.057 19.3805 131.406 18.441 132.178 17.5167H132.194ZM121.496 15.6529L125.178 9.09172L130.087 11.7889L129.466 12.9102L125.875 10.9404L125.057 12.4102L128.39 14.2285L127.769 15.3195L124.435 13.5012L123.42 15.2741L127.148 17.3197L126.511 18.4107L121.465 15.6529H121.496ZM116.404 9.42508C116.071 10.213 116.01 10.8798 116.222 11.4404C116.419 11.9859 116.798 12.3647 117.359 12.6072C117.935 12.8193 118.48 12.8042 119.011 12.5617C119.541 12.3041 119.98 11.7738 120.299 10.9555C120.632 10.1676 120.693 9.48569 120.496 8.95534C120.299 8.42499 119.905 8.03102 119.329 7.81888C118.738 7.57643 118.192 7.57643 117.662 7.83403C117.132 8.09163 116.723 8.60683 116.389 9.40993L116.404 9.42508ZM114.919 8.87958C115.207 8.18255 115.556 7.63704 115.965 7.22792C116.268 6.94001 116.632 6.69757 117.026 6.53089C117.42 6.37936 117.798 6.28844 118.192 6.28844C118.692 6.27329 119.238 6.37936 119.814 6.6218C120.874 7.01578 121.571 7.66735 121.92 8.54622C122.299 9.44024 122.253 10.4555 121.768 11.5768C121.314 12.6981 120.647 13.4557 119.768 13.8346C118.889 14.2285 117.92 14.2134 116.889 13.8194C115.828 13.4103 115.131 12.7436 114.783 11.8647C114.404 10.9858 114.45 10.0009 114.919 8.87958ZM109.919 3.33363L111.374 3.77306L110.434 6.81879C110.783 6.8794 111.025 6.86425 111.177 6.77333C111.328 6.66726 111.631 6.34905 112.055 5.83385C112.601 5.13682 113.071 4.758 113.434 4.65193C113.783 4.56101 114.313 4.60647 114.995 4.83376C115.01 4.83376 115.101 4.84892 115.222 4.87922L114.874 5.95508L114.677 5.89446C114.374 5.80355 114.147 5.75809 113.98 5.80355C113.828 5.8187 113.677 5.90962 113.54 6.01569C113.404 6.15206 113.192 6.40966 112.889 6.83394C112.707 7.04608 112.555 7.25822 112.404 7.37945C112.252 7.51582 112.01 7.60674 111.707 7.66735C112.01 7.86434 112.207 8.12194 112.343 8.48561C112.48 8.81897 112.586 9.27355 112.692 9.86452L113.071 12.1223L111.343 11.5919L111.055 9.48569C111.055 9.47054 111.04 9.39478 111.01 9.30386C111.01 9.28871 110.98 9.15233 110.949 8.90989C110.858 8.48561 110.767 8.22801 110.692 8.12194C110.601 7.98556 110.434 7.87949 110.192 7.81888L109.207 10.9555L107.737 10.5161L109.979 3.34878L109.919 3.33363ZM105.418 7.15215L106.797 7.89464C106.403 8.66744 105.919 9.18264 105.328 9.47054C104.706 9.75845 104.009 9.81906 103.221 9.66753C102.236 9.47054 101.494 8.98565 100.979 8.1977C100.479 7.40975 100.327 6.43997 100.554 5.28835C100.797 4.06097 101.297 3.1821 102.07 2.60629C102.842 2.06079 103.752 1.87896 104.812 2.07594C105.706 2.25778 106.419 2.6669 106.873 3.30332C107.131 3.68215 107.313 4.18219 107.358 4.78831L105.797 4.84892C105.797 4.45494 105.661 4.12158 105.418 3.83368C105.176 3.57608 104.873 3.39424 104.479 3.30332C103.933 3.19725 103.418 3.30332 103.009 3.63669C102.6 3.97005 102.282 4.57617 102.115 5.43988C101.933 6.37936 101.979 7.09154 102.252 7.54613C102.509 8.00071 102.903 8.27347 103.464 8.37953C103.858 8.47045 104.237 8.40984 104.555 8.1977C104.903 8.00071 105.191 7.6522 105.403 7.12185L105.418 7.15215ZM93.1446 7.97041L94.0841 0.53035L99.6755 1.18192L99.524 2.45476L95.4479 1.95472L95.2509 3.62154L99.024 4.06097L98.8724 5.33381L95.0994 4.87922L94.8418 6.89455L99.0543 7.3946L98.9027 8.65229L93.1598 7.97041H93.1446ZM85.9773 0.0909172L87.5078 0.181834L87.4017 1.95472C87.3866 2.54568 87.3866 2.9245 87.4169 3.12149C87.4472 3.31848 87.5684 3.50031 87.7654 3.65184C87.9624 3.78822 88.2957 3.86398 88.6897 3.89429C89.0231 3.90944 89.3261 3.89429 89.5837 3.84883C89.8262 3.78822 90.0686 3.6973 90.2656 3.56092L90.4171 0.333363L91.9476 0.42428L91.5536 7.9098L90.0232 7.81888L90.205 4.81861C89.8716 4.92468 89.5686 5.0156 89.2655 5.07621C88.9625 5.12167 88.6746 5.13682 88.3715 5.12167C87.629 5.10652 86.9926 4.87922 86.5077 4.5004C86.0228 4.12158 85.8107 3.48516 85.8561 2.6366L85.9925 0.0909172H85.9773ZM71.8246 6.3339L71.4003 3.00027C70.7639 3.09118 70.3093 3.28817 70.0668 3.59123C69.8244 3.92459 69.7183 4.36403 69.8092 4.92468C69.9456 6.00054 70.5972 6.45512 71.8246 6.3339ZM73.3095 6.13691C73.7035 6.09145 74.0369 5.98538 74.2945 5.83385C74.5824 5.65202 74.7491 5.45503 74.84 5.21259C74.9309 4.97014 74.9461 4.63678 74.9006 4.22765C74.7642 3.13664 74.0823 2.6669 72.8853 2.81843L73.3095 6.13691ZM73.4611 7.40975L73.5671 8.25831L72.0822 8.44015L71.9761 7.59159C70.7639 7.69766 69.8698 7.50067 69.3243 7.01578C68.7485 6.53089 68.4303 5.87931 68.3091 5.06106C68.203 4.2125 68.3697 3.48516 68.8395 2.90935C69.2789 2.31839 70.0971 1.92441 71.2488 1.74258L71.1578 1.01524L72.6428 0.818255L72.7337 1.56075C73.946 1.45468 74.8097 1.65166 75.3855 2.13655C75.9613 2.59114 76.2795 3.25787 76.3704 4.09127C76.4765 4.90953 76.325 5.60656 75.8855 6.21268C75.4461 6.80364 74.643 7.19761 73.4459 7.3946L73.4611 7.40975ZM65.127 6.6218L63.4753 4.13673L63.0965 7.07639L65.1118 6.6218H65.127ZM68.5667 8.87958L66.915 9.2584L65.8846 7.74311L62.9298 8.42499L62.7177 10.2282L61.1418 10.607L62.3086 2.65175L63.8845 2.27293L68.5819 8.89473L68.5667 8.87958ZM55.5352 5.84901L56.1717 7.86434L56.9899 7.62189C57.5657 7.44006 57.9294 7.28853 58.1112 7.16731C58.2931 7.03093 58.3991 6.8794 58.4597 6.68241C58.5203 6.48543 58.5203 6.28844 58.4597 6.06115C58.3688 5.80355 58.2173 5.62171 58.0203 5.48534C57.793 5.34896 57.5809 5.3035 57.3384 5.34896C57.1414 5.36411 56.7929 5.45503 56.2626 5.60656L55.5352 5.8187V5.84901ZM55.9292 12.2284L53.6866 5.07621L56.0504 4.34887C56.9293 4.09127 57.5203 3.9549 57.8233 3.92459C58.2627 3.90944 58.7022 4.03066 59.0658 4.31857C59.4598 4.57617 59.7477 5.0156 59.9144 5.59141C60.0659 6.03084 60.0962 6.42482 60.0205 6.75818C59.9599 7.10669 59.8235 7.40975 59.6265 7.6522C59.4295 7.89464 59.2022 8.09163 58.9749 8.22801C58.6416 8.40984 58.1415 8.60683 57.49 8.80381L56.5202 9.09172L57.3687 11.7889L55.8989 12.2284H55.9292ZM47.5345 7.48552L52.3228 5.59141L52.7774 6.75818L49.4438 8.09163L51.8076 13.8649L50.3833 14.4407L47.5345 7.48552ZM42.3371 14.2588C42.7614 15.0013 43.2311 15.4711 43.8069 15.6681C44.3827 15.8651 44.9282 15.8196 45.4586 15.5165C46.0041 15.2286 46.3374 14.7892 46.4738 14.2285C46.5799 13.683 46.4587 13.0012 46.0192 12.2587C45.6101 11.4859 45.1252 11.0313 44.5797 10.8495C44.0342 10.6525 43.5039 10.7131 42.928 11.001C42.3825 11.304 42.034 11.7435 41.9128 12.289C41.7764 12.8648 41.928 13.5164 42.3522 14.2588H42.3371ZM40.9733 15.0771C40.5945 14.3952 40.3824 13.7891 40.3369 13.2133C40.2915 12.789 40.3369 12.395 40.443 11.9859C40.549 11.5768 40.7309 11.2131 40.9733 10.9404C41.2764 10.5161 41.7158 10.1979 42.2613 9.89482C43.2311 9.36447 44.1857 9.24325 45.1101 9.516C46.0344 9.7736 46.792 10.4555 47.3981 11.5162C47.9891 12.592 48.1709 13.577 47.9285 14.5013C47.686 15.3953 47.0799 16.1227 46.0798 16.6682C45.0949 17.1985 44.1554 17.3197 43.2311 17.0621C42.3068 16.7742 41.5643 16.1227 40.9733 15.0923V15.0771ZM37.1093 21.9868L32.9878 15.6984L37.7003 12.6678L38.3973 13.7436L34.9576 15.9408L35.882 17.35L39.0792 15.2892L39.7763 16.3651L36.579 18.4107L37.7003 20.123L41.2764 17.8349L41.9734 18.8805L37.1093 22.002V21.9868ZM27.6994 20.2745L31.5786 16.9409L32.412 17.9107L29.6996 20.2291L33.8363 24.9416L32.6696 25.9266L27.6843 20.2745H27.6994ZM26.1841 33.6091L20.0169 29.1996L23.3354 24.6992L24.3809 25.4417L21.9716 28.7298L23.3354 29.6996L25.578 26.6539L26.6084 27.3964L24.3658 30.4421L26.0478 31.6543L28.5328 28.2601L29.5784 29.0026L26.1841 33.6091ZM19.5017 37.9882C20.2897 38.3671 20.9564 38.4731 21.5474 38.3216C22.1232 38.1398 22.5323 37.7912 22.7899 37.2761C23.0475 36.7305 23.0778 36.185 22.8505 35.6547C22.6384 35.1092 22.1232 34.6395 21.3352 34.2758C20.5473 33.897 19.8654 33.7909 19.3199 33.9424C18.7744 34.0939 18.3501 34.4425 18.0773 34.988C17.8197 35.5638 17.7894 36.1093 18.0167 36.6396C18.2289 37.17 18.7138 37.6246 19.5017 38.0034V37.9882ZM18.8653 39.4126C18.1683 39.0792 17.6379 38.6853 17.2591 38.2761C17.0015 37.9428 16.7742 37.5943 16.6227 37.1851C16.4863 36.7912 16.4257 36.4123 16.4408 36.0184C16.456 35.5183 16.6227 34.988 16.8803 34.4425C17.3803 33.4575 18.0925 32.8211 19.0017 32.5181C19.926 32.2301 20.9261 32.3362 22.0474 32.8666C23.1384 33.4121 23.8657 34.1243 24.1991 35.0183C24.5325 35.8971 24.4416 36.8366 23.9567 37.8216C23.4566 38.8368 22.7444 39.4732 21.8504 39.7763C20.9261 40.0642 19.926 39.9581 18.8501 39.4278L18.8653 39.4126ZM13.4103 45.0343L13.8042 43.5645L16.9409 44.3979C16.9863 44.0645 16.956 43.8221 16.85 43.6706C16.759 43.519 16.4105 43.2311 15.865 42.8372C15.1377 42.3068 14.7437 41.8674 14.6376 41.5189C14.5316 41.1703 14.5467 40.6703 14.7437 39.9884C14.7437 39.943 14.7589 39.8823 14.7892 39.7763L15.8802 40.0642L15.8196 40.2763C15.7287 40.5642 15.7135 40.8067 15.759 40.9582C15.8044 41.1097 15.8953 41.2613 16.0166 41.3673C16.1529 41.5037 16.4105 41.7158 16.85 42.0037C17.0924 42.1553 17.2742 42.3068 17.4258 42.4583C17.5622 42.6099 17.6682 42.8372 17.7591 43.1402C17.941 42.8372 18.1986 42.6099 18.5319 42.4886C18.8805 42.3523 19.3502 42.231 19.9412 42.1098L22.2292 41.6552L21.7746 43.3675L19.6229 43.7463C19.6078 43.7463 19.532 43.7615 19.4411 43.7918C19.426 43.7918 19.2896 43.8069 19.0471 43.8827C18.6532 43.9736 18.3653 44.0645 18.2592 44.1706C18.1228 44.2615 18.047 44.4282 17.9561 44.6707L21.1837 45.5192L20.7897 46.9587L13.4406 45.0343H13.4103ZM18.0167 57.9749L18.1228 56.4444C18.9714 56.4596 19.6532 56.6869 20.1836 57.096C20.7139 57.49 21.0625 58.1112 21.2594 58.8689C21.5019 59.8387 21.3655 60.7175 20.8655 61.5055C20.3351 62.2934 19.5017 62.8238 18.3501 63.1117C17.1379 63.4147 16.0923 63.3541 15.2589 62.8995C14.4255 62.445 13.88 61.6873 13.6073 60.6872C13.3951 59.7932 13.4709 59.0053 13.8649 58.3234C14.077 57.8991 14.4861 57.5506 15.0316 57.2475L15.759 58.6113C15.4104 58.7931 15.1377 59.0507 14.9862 59.3841C14.8346 59.7174 14.8043 60.066 14.8952 60.4599C15.0316 60.9903 15.3347 61.3843 15.8196 61.6267C16.3045 61.8692 16.9863 61.8843 17.8652 61.6722C18.7895 61.4297 19.426 61.0964 19.729 60.6872C20.0321 60.2478 20.123 59.7629 19.9866 59.2326C19.8957 58.8386 19.6836 58.5507 19.3502 58.3385C19.0471 58.1264 18.5774 58.0052 18.0167 58.0052V57.9749ZM17.9561 71.8397L17.2288 70.3093L20.0624 67.0817L15.8347 67.3696L15.1832 65.9453L21.5019 65.8392C22.1838 65.8241 22.7293 65.8847 23.1536 66.021C23.5627 66.1271 23.8809 66.3999 24.0779 66.809C24.2749 67.2333 24.4112 67.5515 24.4567 67.7939L23.4263 68.2788C23.3354 68.0818 23.2748 67.9 23.1839 67.7333C23.0475 67.4303 22.8808 67.2333 22.699 67.1423C22.502 67.0514 22.1989 67.0363 21.7292 67.0969L17.9864 71.8549L17.9561 71.8397ZM22.2292 76.0219L24.0021 74.8097L23.5172 74.1278C23.1687 73.6429 22.896 73.3399 22.7293 73.2035C22.5323 73.0974 22.3353 73.0217 22.1383 73.0217C21.9413 73.0217 21.7443 73.0823 21.5474 73.2187C21.3352 73.3702 21.1988 73.5672 21.1231 73.8096C21.0776 74.0218 21.1079 74.2642 21.214 74.4915C21.2746 74.6733 21.4716 74.9764 21.805 75.4158L22.2292 76.0068V76.0219ZM28.2752 73.7035L22.0474 78.007L20.6382 76.0068C20.0927 75.2643 19.7896 74.7642 19.6684 74.4763C19.5169 74.0672 19.5169 73.6278 19.6684 73.1883C19.8048 72.7338 20.123 72.3398 20.6079 71.9761C21.0019 71.7185 21.3807 71.5518 21.7292 71.5215C22.0777 71.4761 22.4111 71.5215 22.7141 71.6276C23.002 71.7337 23.2596 71.87 23.4566 72.067C23.7142 72.3095 24.0779 72.7186 24.4719 73.2944L25.0477 74.0824L27.3964 72.4762L28.2752 73.7035ZM139.164 87.7654L138.027 86.6895L139.149 85.5985L140.285 86.6744L139.164 87.7654ZM132.512 85.6591L135.648 83.1741L136.452 84.1136L134.542 85.6288L137.573 89.1595L136.345 90.1292L132.512 85.6591ZM127.163 93.9478L128.405 92.978C128.648 93.2356 128.905 93.4174 129.193 93.4629C129.496 93.5235 129.784 93.4629 130.027 93.3265C130.284 93.1447 130.466 92.8871 130.512 92.5537C130.557 92.2052 130.451 91.8112 130.133 91.3718C129.875 90.9627 129.557 90.7202 129.239 90.6293C128.905 90.5384 128.602 90.5838 128.299 90.7808C127.905 90.993 127.663 91.4021 127.572 91.9021L126.39 92.4325L124.769 88.5079L128.299 86.3107L129.118 87.523L126.572 89.0837L127.117 90.3565C127.33 90.0232 127.572 89.7656 127.905 89.5837C128.496 89.2049 129.133 89.0989 129.815 89.2807C130.512 89.4322 131.057 89.8565 131.527 90.5081C131.875 91.0839 132.057 91.6748 132.012 92.3113C131.951 93.1901 131.512 93.872 130.693 94.372C130.057 94.766 129.421 94.9175 128.784 94.8569C128.163 94.766 127.617 94.463 127.163 93.9629V93.9478ZM123.935 94.6751L122.647 92.2355L122.253 95.5237L123.935 94.6751ZM125.36 97.3117L124.587 95.8873L121.587 97.4026L120.935 96.1904L121.708 90.0989L122.875 89.4777L125.329 93.9932L126.223 93.5386L126.875 94.7206L125.951 95.1751L126.723 96.5995L125.36 97.2966V97.3117ZM117.071 98.2966C117.253 98.6906 117.495 98.9482 117.798 99.0846C118.086 99.221 118.389 99.221 118.692 99.0846C118.995 98.9482 119.192 98.7361 119.314 98.4482C119.42 98.1603 119.374 97.8118 119.208 97.4178C119.056 97.0844 118.814 96.842 118.526 96.7207C118.238 96.6147 117.935 96.6147 117.632 96.7359C117.283 96.8723 117.056 97.1147 116.995 97.4178C116.935 97.7208 116.95 98.039 117.086 98.2966H117.071ZM115.783 95.0994C115.919 95.3873 116.086 95.5843 116.329 95.6752C116.571 95.7661 116.813 95.7358 117.101 95.6297C117.359 95.4934 117.556 95.3418 117.647 95.0994C117.738 94.8872 117.738 94.6145 117.601 94.3266C117.465 94.069 117.298 93.8872 117.056 93.7962C116.829 93.7053 116.571 93.7356 116.313 93.8417C116.025 93.9478 115.859 94.1296 115.738 94.372C115.647 94.5993 115.677 94.8266 115.783 95.0994ZM116.132 96.6601C115.677 96.6601 115.298 96.5692 115.01 96.3722C114.722 96.1752 114.51 95.9176 114.359 95.5843C114.116 95.0388 114.116 94.5084 114.344 93.9781C114.586 93.4477 115.071 93.0386 115.798 92.7355C116.526 92.4325 117.162 92.387 117.723 92.5537C118.298 92.7507 118.692 93.1295 118.935 93.675C119.086 94.0084 119.132 94.3569 119.071 94.6903C119.026 95.0388 118.859 95.3418 118.586 95.6297C119.071 95.6146 119.511 95.7207 119.859 95.9328C120.238 96.1449 120.496 96.4783 120.693 96.8723C120.996 97.5542 121.026 98.2057 120.753 98.827C120.511 99.418 120.011 99.9028 119.268 100.206C118.571 100.494 117.935 100.554 117.298 100.403C116.571 100.221 116.041 99.7665 115.722 99.0391C115.541 98.6452 115.48 98.2209 115.541 97.8118C115.586 97.3875 115.783 96.9935 116.147 96.645L116.132 96.6601ZM114.465 101.903L112.949 102.388L111.04 96.9026C110.661 97.5845 110.146 98.1603 109.479 98.63L109.01 97.3117C109.358 97.0541 109.707 96.6753 110.04 96.1904C110.389 95.6903 110.57 95.1751 110.57 94.66L111.798 94.266L114.45 101.903H114.465ZM100.494 101.918L100.979 104.024L102.494 103.691C103.085 103.555 103.464 103.479 103.585 103.388C103.827 103.297 104.009 103.146 104.115 102.949C104.221 102.752 104.267 102.539 104.206 102.252C104.146 102.009 104.024 101.827 103.873 101.676C103.721 101.539 103.524 101.464 103.282 101.433C103.039 101.418 102.555 101.479 101.812 101.63L100.494 101.918ZM99.7664 98.827L100.176 100.63L101.251 100.388C101.888 100.251 102.282 100.176 102.433 100.13C102.691 100.024 102.888 99.8877 103.024 99.6907C103.161 99.5089 103.176 99.2967 103.115 99.0391C103.07 98.7967 102.964 98.6149 102.782 98.4936C102.6 98.3876 102.388 98.3421 102.1 98.3573C101.918 98.3724 101.464 98.4633 100.691 98.6149L99.7513 98.827H99.7664ZM97.842 97.8572L101.07 97.1753C101.721 97.0238 102.206 96.9632 102.539 96.9329C102.842 96.9177 103.161 96.948 103.433 97.0693C103.721 97.1753 103.979 97.3572 104.221 97.5996C104.434 97.8421 104.6 98.13 104.676 98.4482C104.737 98.827 104.721 99.1755 104.585 99.524C104.449 99.8725 104.237 100.16 103.918 100.403C104.418 100.418 104.858 100.585 105.206 100.857C105.54 101.145 105.782 101.494 105.858 101.948C105.949 102.297 105.949 102.676 105.858 103.039C105.752 103.418 105.6 103.721 105.328 103.979C105.085 104.237 104.737 104.434 104.327 104.6C104.07 104.691 103.403 104.843 102.373 105.085L99.6149 105.676L97.8117 97.8421L97.842 97.8572ZM88.5685 102.615C88.6291 103.54 88.9018 104.191 89.3564 104.661C89.811 105.1 90.3565 105.297 91.0384 105.252C91.69 105.206 92.2203 104.949 92.6446 104.464C93.0386 103.964 93.1901 103.252 93.1446 102.342C93.084 101.418 92.8113 100.767 92.3718 100.327C91.9324 99.918 91.3566 99.7059 90.6899 99.7513C89.9929 99.7968 89.4322 100.054 89.0685 100.539C88.6746 101.024 88.4927 101.706 88.5685 102.615ZM86.8562 102.797C86.7956 101.979 86.8865 101.282 87.0987 100.721C87.2502 100.297 87.4926 99.9332 87.7957 99.5846C88.0987 99.2361 88.4321 98.9937 88.8109 98.7967C89.311 98.5542 89.9019 98.4179 90.5838 98.3876C91.796 98.327 92.7961 98.63 93.5689 99.3119C94.3569 99.9938 94.7963 100.979 94.8569 102.297C94.9478 103.585 94.6599 104.615 93.9781 105.388C93.2962 106.161 92.3567 106.57 91.1293 106.661C89.9019 106.722 88.8867 106.419 88.1291 105.737C87.3563 105.055 86.9168 104.085 86.8562 102.812V102.797ZM79.0676 106.631L79.1282 98.63H80.8102L80.7951 101.782L84.0681 101.797L84.0984 98.6452L85.7652 98.6603L85.7197 106.661L84.0378 106.646L84.0832 103.161L80.7951 103.13L80.7799 106.616H79.0828L79.0676 106.631ZM75.5825 103.1L74.8551 100.009L73.3399 102.812L75.5825 103.1ZM78.2191 106.631L76.4159 106.388L75.931 104.509L72.6428 104.1L71.7185 105.812L69.9608 105.6L74.2339 98.0845L75.9916 98.2966L78.2039 106.646L78.2191 106.631ZM65.7028 101.145L65.2028 103.236L66.6877 103.585C67.2787 103.721 67.6575 103.782 67.8242 103.797C68.0667 103.797 68.2788 103.737 68.4758 103.615C68.6728 103.479 68.8091 103.267 68.8698 102.994C68.9304 102.752 68.9152 102.555 68.8546 102.358C68.7637 102.161 68.6425 102.009 68.4455 101.873C68.2333 101.767 67.7636 101.615 67.0211 101.433L65.7028 101.13V101.145ZM66.4756 98.0542L66.0362 99.8574L67.0817 100.1C67.7181 100.251 68.1121 100.342 68.2939 100.342C68.5819 100.388 68.8243 100.342 69.0213 100.236C69.2183 100.1 69.3546 99.9332 69.4001 99.6604C69.4607 99.418 69.4456 99.221 69.3546 99.024C69.2486 98.8421 69.0667 98.7209 68.8091 98.63C68.6576 98.5694 68.1727 98.4482 67.3999 98.2815L66.4756 98.0694V98.0542ZM65.1573 96.3874L68.3849 97.1299C69.0213 97.2663 69.5062 97.3875 69.7941 97.5238C70.0971 97.6602 70.3699 97.8269 70.5669 98.0542C70.7942 98.2663 70.9457 98.5391 71.0215 98.8421C71.1275 99.1452 71.1275 99.4786 71.0366 99.8119C70.9457 100.191 70.779 100.494 70.4911 100.751C70.2032 100.994 69.8698 101.176 69.4759 101.236C69.9305 101.494 70.2638 101.812 70.4457 102.206C70.6275 102.6 70.6578 103.024 70.5517 103.479C70.4608 103.827 70.2941 104.161 70.0517 104.449C69.7941 104.752 69.5062 104.979 69.1577 105.1C68.8091 105.237 68.4152 105.252 67.9757 105.206C67.6878 105.161 67.0363 105.025 66.0059 104.812L63.248 104.176L65.1725 96.3874H65.1573ZM57.0808 98.3118C56.7929 99.1604 56.7929 99.8877 57.0657 100.464C57.3536 101.039 57.793 101.433 58.4294 101.6C59.0658 101.797 59.6568 101.736 60.2326 101.418C60.7781 101.085 61.2024 100.494 61.4903 99.5998C61.7782 98.7209 61.7934 98.0239 61.5358 97.4784C61.2782 96.9329 60.8084 96.5389 60.1569 96.3419C59.5053 96.1449 58.9143 96.2055 58.3537 96.5238C57.8082 96.8268 57.3839 97.4481 57.1111 98.327L57.0808 98.3118ZM55.414 97.8572C55.6716 97.0844 56.005 96.4783 56.4293 96.0086C56.7323 95.6752 57.0808 95.4024 57.5051 95.1751C57.9142 94.9782 58.3385 94.8418 58.7476 94.7963C59.2931 94.7509 59.9144 94.8115 60.5508 95.0236C61.7176 95.3721 62.551 96.0086 63.0056 96.9026C63.4905 97.8269 63.5056 98.9028 63.1117 100.145C62.7177 101.373 62.0358 102.236 61.1418 102.706C60.2175 103.191 59.1719 103.282 58.0051 102.918C56.8232 102.539 56.005 101.933 55.5504 101.009C55.0655 100.115 55.0503 99.0543 55.414 97.8269V97.8572ZM46.8981 98.4482L50.3226 91.1445L51.8531 91.8264L50.4893 94.6751L53.4744 95.9934L54.8382 93.1144L56.3535 93.7962L52.9289 101.085L51.4137 100.433L52.8986 97.2359L49.9135 95.9479L48.3982 99.1301L46.8829 98.4785L46.8981 98.4482ZM45.7162 94.6145L46.8375 95.8722C46.1405 96.4783 45.4283 96.842 44.7161 96.9026C44.0191 96.9632 43.2614 96.7965 42.5038 96.3268C41.5643 95.7813 40.9885 95.0085 40.7763 94.0387C40.5794 93.0537 40.7915 92.0234 41.4734 90.9475C42.2007 89.811 43.0493 89.0989 44.0645 88.8413C45.0798 88.5837 46.0798 88.7352 47.0648 89.2958C47.9133 89.8262 48.474 90.4778 48.7164 91.296C48.8528 91.7809 48.8225 92.3567 48.6255 92.978L47.0042 92.4779C47.1557 92.0537 47.1557 91.69 47.0193 91.3112C46.8829 90.9627 46.6253 90.6596 46.2314 90.4323C45.7313 90.1292 45.1858 90.0535 44.61 90.2353C44.0645 90.4172 43.5342 90.8869 43.0038 91.7051C42.4583 92.584 42.231 93.281 42.3219 93.8265C42.4129 94.4024 42.7159 94.8115 43.216 95.1145C43.6099 95.3267 44.0039 95.4176 44.4282 95.3267C44.8525 95.2661 45.2767 95.0236 45.7162 94.5842V94.6145ZM36.1093 86.932C35.5183 87.629 35.2607 88.3109 35.2759 88.9322C35.3213 89.5686 35.6092 90.0686 36.1244 90.4626C36.6548 90.8717 37.2154 91.0081 37.8518 90.9172C38.4883 90.8111 39.0944 90.3868 39.7005 89.6444C40.2915 88.9473 40.5794 88.2806 40.5339 87.6745C40.4884 87.0532 40.2005 86.5532 39.6853 86.144C39.1398 85.7349 38.5489 85.5682 37.9276 85.6895C37.2912 85.7955 36.7002 86.2198 36.1093 86.9471V86.932ZM34.7 85.9471C35.2304 85.2955 35.7759 84.8257 36.3214 84.5378C36.7305 84.3409 37.17 84.2045 37.6397 84.1439C38.0943 84.0984 38.5337 84.1287 38.9277 84.2348C39.4732 84.3863 40.0035 84.6439 40.549 85.0682C41.4885 85.7955 42.0189 86.6744 42.1249 87.6745C42.231 88.6897 41.8673 89.7201 41.0339 90.7202C40.2005 91.7355 39.2611 92.3264 38.2307 92.4476C37.1851 92.584 36.185 92.2658 35.2304 91.5536C34.2606 90.8111 33.7454 89.9323 33.6242 88.9473C33.5333 87.9321 33.8818 86.932 34.7 85.9471ZM51.1864 45.6859C51.2924 45.5041 51.3682 45.201 51.6258 45.3374C51.7319 45.398 51.8228 45.5192 51.8379 45.595C51.8531 45.6101 51.8228 45.7313 51.8228 45.7768C51.8228 45.8829 51.9743 46.0193 51.9137 46.1102C51.8076 46.2162 51.4743 46.1708 51.4591 46.0041C51.4591 45.898 51.4137 45.8677 51.3682 45.8071C51.3227 45.792 51.1864 45.7162 51.1864 45.701V45.6859ZM47.9588 43.5645C47.9588 43.9585 48.0194 44.0645 48.2012 44.2464C48.3528 44.3979 48.3982 44.3827 48.7316 44.3979C48.8831 44.4131 48.6861 44.8525 48.974 44.8979L49.8529 44.9889C49.9893 44.9889 49.9893 45.6101 50.065 45.5647C50.2166 45.4586 50.1105 45.5647 50.4893 45.5647C50.8833 45.5647 50.9288 45.1252 50.9288 44.6403C50.9439 44.1555 51.1864 43.7615 50.7166 43.7615L50.1408 43.7766C49.6862 43.7766 49.8378 43.6857 49.3074 43.6857C49.171 43.6857 49.065 43.0947 48.974 43.0493C48.8377 42.9887 48.5952 43.0341 48.3376 43.1099C48.1406 43.1554 48.2467 43.4433 47.9588 43.5493V43.5645ZM113.98 49.4438H115.01L115.192 50.5651L114.116 50.5803L113.98 49.4438ZM115.298 48.3225L115.586 49.1559L116.01 49.8075L116.556 49.7166L116.495 47.8982L115.313 48.3225H115.298ZM117.344 47.7315L117.435 48.5195L118.132 48.7165L118.814 48.5649L119.253 47.4739L117.844 47.2921L117.344 47.7315ZM117.556 46.0193L117.814 45.5798L117.798 45.0495L118.45 44.9586L118.905 45.595L118.601 47.0345L117.086 46.8527L117.541 45.9889L117.556 46.0193ZM120.253 79.5374C121.435 77.8554 122.95 77.9312 124.072 76.7947C124.905 75.9613 125.329 74.7945 126.042 74.0824C126.254 73.8702 126.42 74.5824 126.375 74.9612C126.269 75.9462 124.299 78.007 123.738 78.5525C123.162 79.1434 122.662 79.1283 122.011 79.5374C121.662 79.7647 120.253 80.0374 120.253 79.5374ZM126.057 60.7175C125.663 61.2176 125.814 61.7328 125.814 62.2783C125.814 62.3389 125.799 62.6723 125.814 62.7177C125.845 62.7632 125.875 62.8692 125.92 62.9299C125.981 63.0359 126.072 63.8542 126.223 63.9602C126.36 64.0663 126.511 63.9754 126.875 63.9754C127.269 63.9754 126.86 63.4754 127.223 63.3541C127.814 63.1571 127.966 62.2328 127.966 61.4903C127.966 61.157 128.027 60.9903 127.92 60.8388C127.708 60.5812 127.466 60.6266 127.102 60.6266C126.814 60.6266 126.89 60.6266 126.769 60.7327C126.663 60.8388 126.178 60.4296 126.026 60.7175H126.057ZM117.192 56.4444C117.723 56.1414 117.768 55.4595 118.708 56.005C119.298 56.3384 119.208 56.4293 119.48 57.096C119.632 57.49 118.192 58.3385 117.617 58.3082C117.223 58.2628 116.889 58.0809 116.541 58.0809H115.889C114.662 58.0809 116.829 56.6263 117.207 56.4293L117.192 56.4444ZM91.3415 59.7629C90.9323 60.5054 90.5687 60.5812 90.6444 61.1721C90.6899 61.5206 91.1899 61.7631 91.3718 62.0661C91.5536 62.354 91.3566 63.1875 91.3566 63.4299C91.3566 63.9148 91.5081 63.8087 91.7657 63.6572C92.2961 63.3693 92.4931 63.0208 92.8113 62.5359C93.0083 62.248 93.4325 61.8995 93.4932 61.5509C93.5538 61.2479 93.3568 60.8085 93.3568 60.4751C93.3568 60.2175 93.3568 59.7023 92.9628 59.5811C92.3264 59.3689 91.3869 59.2477 91.3415 59.7781V59.7629ZM99.2361 21.3807C99.2361 21.7747 99.1755 21.9717 99.3422 22.1535C99.4937 22.305 99.3422 22.3353 99.6755 22.3656C99.8271 22.3808 99.8271 22.4717 100.115 22.4717H101.1C101.236 22.4717 101.873 22.5323 101.948 22.4717C102.1 22.3808 101.797 22.3656 102.161 22.3656C102.555 22.3656 103.039 22.108 103.039 21.5928C103.039 21.1382 102.842 20.911 102.388 21.0473L101.251 21.4262C100.827 21.5625 100.857 21.1686 100.327 21.1686C100.191 21.1686 99.7513 21.2292 99.6755 21.1686C99.5695 21.1079 99.8271 21.1079 99.5695 21.1686C99.3725 21.2292 99.524 21.2746 99.2361 21.3958V21.3807ZM54.3685 21.8656C53.5351 21.5171 52.7016 21.1837 51.8682 20.82C51.6864 20.8806 51.5803 21.0019 51.5652 21.1231C51.4743 21.4262 52.2622 21.911 52.9441 22.3505C53.1411 22.4869 53.6866 22.1535 54.3685 21.8656ZM96.645 40.8824L96.8874 40.8673C96.7813 40.6248 96.751 40.6854 96.645 40.8824ZM103.13 53.7624V53.2169C103.13 51.1409 103.039 49.065 102.873 47.0496C102.736 47.2012 102.615 47.3376 102.433 47.4588C102.1 47.6709 101.464 47.5042 101.145 47.7618C100.721 48.1103 100.615 48.8528 100.221 48.9892C99.8271 49.0953 99.7361 47.7618 99.4331 46.9436C99.1452 46.2162 99.1755 45.0646 98.7815 44.11C98.63 43.7312 97.9481 43.2311 97.8572 43.0644C97.7208 42.7765 97.6147 42.5341 97.5087 42.322C96.645 42.3826 95.7812 42.4583 94.9024 42.5038C94.9933 42.9584 95.2812 43.3978 95.16 43.5645C94.8721 43.9736 94.3266 44.0948 93.9023 44.4585C93.4629 44.8828 93.1295 45.5344 92.5234 45.8677C91.9779 46.1708 91.887 46.1253 91.4021 46.1556C90.9172 46.1708 90.0383 46.2465 89.6292 46.2011C88.5079 46.0496 89.0534 45.2768 87.1896 43.4584C86.9017 43.1705 86.538 43.019 86.1592 42.8675H84.9772C85.1136 42.9735 85.2652 43.0796 85.4015 43.2008C86.2198 43.8524 86.9623 44.5343 87.4017 45.1555C87.6442 45.5041 87.4017 46.095 87.6593 46.3678C88.0381 46.7617 88.7049 46.7769 89.3564 46.9436C89.5383 46.989 89.4019 47.383 89.6898 47.4436C90.0232 47.5042 90.7808 47.2466 90.9475 47.2921C92.7658 47.7467 92.781 47.6406 92.7052 48.3831C92.6598 48.7771 91.9627 49.2771 91.9627 50.3833C91.9627 52.535 91.9779 51.8986 91.5384 52.3835C91.3566 52.5653 91.493 52.7623 91.1142 53.1563C90.8717 53.3987 90.5838 53.5957 90.3262 53.7927H103.161L103.13 53.7624ZM101.918 65.8847C102.6 62.5359 102.994 58.9598 103.1 55.2625H89.3261C89.3867 55.8383 89.3867 56.7323 89.5383 57.4294C89.7656 58.4446 89.8262 59.278 89.4473 59.6417C88.8109 60.2781 88.8412 61.3237 88.326 61.7479C87.8715 62.1419 87.0987 61.8085 86.9926 62.2934C86.932 62.5813 86.8865 63.0359 87.0835 63.2784C87.2956 63.536 87.7805 63.5814 87.9169 63.9148C88.0533 64.2178 88.0533 64.5967 87.9472 64.9452C92.5991 65.0513 97.2662 65.3695 101.918 65.8695V65.8847ZM120.268 37.0639C119.298 34.7152 118.117 32.4877 116.753 30.3966C116.419 30.5936 116.359 30.8512 116.935 31.7756C117.041 31.9574 117.526 32.3211 117.677 32.5181C117.768 32.6544 118.01 33.1696 118.298 34.0485C118.359 34.2455 119.086 34.7001 119.071 34.9425C119.026 35.291 119.314 36.0335 118.874 36.3214C118.329 36.7002 117.556 35.6395 117.207 36.185C116.98 36.5639 117.147 37.3518 117.056 37.8519L117.01 38.0337C118.041 37.8216 119.071 37.5943 120.102 37.3821C120.147 37.2761 120.208 37.1548 120.283 37.0488L120.268 37.0639ZM123.466 53.7472V53.2017C123.466 49.0953 122.875 45.1252 121.799 41.3825C121.708 41.534 121.647 41.6855 121.602 41.8219C121.45 42.2007 121.541 42.6553 121.662 43.1402C121.859 43.8221 122.147 44.5191 121.905 44.8979C121.42 45.6859 121.677 45.5798 121.268 44.8979C121.117 44.6858 120.723 43.716 120.496 43.5796C119.92 43.2311 119.283 43.2311 118.965 42.7008C118.677 42.2462 119.889 41.14 120.056 40.8521C120.238 40.5491 120.253 39.6854 120.208 38.8974C118.995 39.155 117.814 39.3975 116.632 39.6399C116.632 39.7308 116.632 39.7914 116.647 39.8823C116.707 40.4582 117.223 40.9582 117.177 41.4885C117.132 41.9431 116.283 41.3522 116.238 41.9886C116.207 42.2765 116.723 42.8372 116.541 43.1705C116.253 43.7918 116.632 44.5343 116.435 44.7919C116.374 44.8828 115.935 44.5494 115.798 44.6403C115.101 45.0343 115.298 45.0798 114.571 44.9889C114.131 44.9434 113.404 44.3979 113.237 44.9737C113.146 45.3071 113.434 46.5041 113.253 46.7466C112.828 47.2466 111.328 46.5345 110.949 46.8981C110.449 47.3527 110.267 47.9891 109.858 47.7315C109.207 47.2921 109.313 46.3223 109.01 45.6556C108.767 45.1252 108.07 44.8828 107.691 44.3676C107.388 43.9736 106.434 43.6251 106.282 43.4433C105.949 43.019 105.979 42.231 105.843 41.928C105.782 41.731 105.737 41.5795 105.691 41.4431L105.237 41.5037L105.055 41.7916C104.509 42.6705 104.085 42.822 103.843 42.8826C104.343 46.2011 104.615 49.6408 104.615 53.1866V53.7321H111.04C110.631 53.0502 109.873 52.3228 109.282 51.6107C108.601 50.7621 109.055 50.3984 109.54 49.9438C109.934 49.5953 110.176 49.0044 110.843 49.3074C111.192 49.4893 111.025 50.8379 111.434 51.7167C111.737 52.3077 112.646 52.4592 112.874 52.7017C114.253 54.0806 113.934 52.6108 115.238 52.2168C115.738 52.0652 116.359 51.6864 116.601 51.3379C117.207 50.4439 117.238 49.0953 118.086 50.156C118.662 50.853 118.738 53.2623 117.995 52.5501C117.344 51.8986 117.768 53.2926 117.344 53.7321H123.435L123.466 53.7472ZM123.405 55.7625L123.42 55.2625H122.299C122.632 55.414 122.996 55.611 123.39 55.7625H123.405ZM122.708 61.3085C122.92 60.1266 123.102 58.9446 123.238 57.7324C123.041 57.596 122.814 57.5203 122.556 57.4294C121.981 57.6112 120.874 55.9141 121.193 55.2625H104.615C104.509 59.0204 104.085 62.6268 103.433 66.0513C104.615 66.1877 105.797 66.3392 106.979 66.4908C107.07 65.9604 107.873 65.1573 108.646 64.5815C109.525 63.9299 111.086 63.7026 111.298 63.5966C112.571 62.8692 113.995 62.1419 114.692 61.5964C115.041 61.3388 115.177 61.0661 115.783 61.1418C115.98 61.157 116.798 61.5358 117.071 61.1873C117.904 60.1569 119.329 59.7023 119.465 60.7327C119.511 61.1267 119.889 62.6571 120.193 62.5056C120.374 62.4147 121.647 61.6116 122.693 61.3237L122.708 61.3085ZM110.889 83.0832C111.389 82.5983 111.874 82.1134 112.358 81.6133C113.843 80.0071 115.238 78.2949 116.465 76.4765C115.419 76.6735 116.419 75.1885 115.056 73.8248C114.707 73.4914 114.374 74.0066 114.222 73.7187C113.737 72.8398 114.237 71.3094 113.828 71.0215C113.48 70.779 113.768 70.2032 111.752 71.3548C110.737 71.9307 110.98 71.9458 110.464 71.961C109.737 71.9761 108.661 72.067 108.055 71.961C106.979 71.7791 107.04 70.9154 107.116 69.7638C107.146 69.3244 107.616 68.5516 107.646 68.097C106.161 67.8697 104.646 67.6879 103.146 67.506C102.115 72.158 100.6 76.4159 98.7209 80.0981C102.782 80.7799 106.843 81.7649 110.919 83.0832H110.889ZM105.388 87.432C106.858 86.4622 108.267 85.4167 109.601 84.2802C105.691 83.068 101.812 82.1588 97.933 81.5224C97.7511 81.8709 97.5541 82.2043 97.3571 82.5377C96.1298 84.5833 94.766 86.4168 93.3265 87.9927C95.4782 88.0382 98.1451 86.9168 100.145 86.4168C101.554 86.038 102.736 87.629 105.388 87.4472V87.432ZM72.3852 81.583L72.4761 81.7346C74.1278 84.4772 75.9916 86.8259 78.0221 88.6594C79.0828 88.0685 80.1435 87.5381 81.0981 87.432C81.6739 87.3714 85.0076 88.72 86.8714 88.023C88.9776 87.235 89.7656 85.6591 90.0989 85.7804C90.4323 86.7047 90.9475 87.2957 91.6142 87.5987C93.2356 85.9471 94.7508 83.9772 96.0843 81.7194L96.3722 81.2648C92.6901 80.7345 89.0231 80.4769 85.3712 80.4769C81.0527 80.4769 76.7341 80.8557 72.4155 81.5679L72.3852 81.583ZM66.9302 67.3696C68.006 72.1276 69.6122 76.4765 71.5973 80.2041C76.1886 79.3859 80.7648 78.9919 85.3561 78.9919C89.2807 78.9919 93.2053 79.2798 97.1299 79.8708C99.0543 76.2341 100.6 71.9913 101.63 67.3545C96.5844 66.8241 91.5687 66.5211 86.538 66.4605C86.1289 66.8544 85.6894 67.7333 85.2045 68.1879C84.9924 68.3849 84.2802 68.4303 83.962 68.6728C83.4165 69.0971 83.1892 69.6577 82.9316 69.688C81.9618 69.7941 81.7952 68.9455 81.1587 67.8091C80.8557 67.309 80.3102 66.9605 79.795 66.5211C75.5219 66.6272 71.2488 66.9454 66.9453 67.3999L66.9302 67.3696ZM65.4452 55.2625C65.5513 58.975 65.9756 62.5207 66.6271 65.8847C70.6881 65.4452 74.7188 65.1573 78.7797 65.0361C78.6888 64.5967 78.7797 64.0057 78.7191 63.5814C78.5827 62.7935 78.2948 62.248 78.1433 61.46C77.9009 60.3387 77.0978 59.8841 76.7189 59.1416C76.5371 58.7931 76.7796 57.9294 76.628 57.7173C76.4007 57.4294 76.3704 56.7323 76.5674 56.0505C76.6583 55.7625 76.9159 55.5959 77.0068 55.2777H65.4452V55.2625ZM66.3847 41.8674C65.7483 45.4586 65.4149 49.2771 65.4149 53.2017V53.7472H76.9008C76.5068 52.6714 75.4158 51.8683 74.1581 52.0198C73.6732 52.0804 73.4156 51.7622 72.9762 51.7167C72.4307 51.6713 71.764 51.8683 71.4609 51.6713C71.173 51.4743 71.6124 51.1409 71.0063 50.9439C69.9911 50.6409 68.6122 49.7014 69.5365 48.3831C70.1881 48.0043 70.0668 46.8224 69.9759 46.0344C69.7789 44.504 70.082 44.3524 71.5518 43.3978C71.9306 43.1857 72.2488 42.822 72.5367 42.428C70.476 42.2765 68.4303 42.0795 66.3695 41.8522L66.3847 41.8674ZM71.3397 26.7297C69.2789 30.6846 67.6727 35.3062 66.6726 40.3672C68.9758 40.6248 71.2942 40.8218 73.6278 40.9885C74.1581 40.3672 74.7642 39.9126 75.6431 39.9126C76.2189 39.9126 76.9614 40.3066 77.5523 40.4582C78.5373 40.7158 79.2798 40.8673 79.6131 41.2613C80.4011 41.0794 81.189 41.1249 81.9315 41.3219H84.2499C84.1135 41.2309 84.0075 41.1703 83.9165 41.14C83.5832 41.1249 84.7045 40.6551 84.5681 40.3975C84.0832 39.4581 84.4772 39.746 84.5681 39.4126C84.75 38.8216 84.5833 39.0338 83.2347 38.5186C83.0831 38.4731 83.3407 37.8367 83.1286 37.7761C82.9922 37.7609 82.6892 38.0185 82.5376 37.9882C82.4013 37.9428 81.7042 38.6853 81.4466 38.6853C81.0224 38.7004 81.0072 38.0034 80.7496 37.7155C80.5981 37.564 80.7496 36.8669 80.6587 36.6396C80.4617 36.1093 80.1738 36.0487 80.0677 36.3517C79.9768 36.5487 79.7798 37.9731 79.9768 38.8671C80.0829 39.3671 80.6587 39.3671 80.6132 39.7005C80.5678 40.049 79.8101 39.8823 79.6738 39.8066C79.4313 39.7005 79.4465 39.0641 79.2949 38.5943C79.204 38.3064 78.9919 38.2004 78.8555 37.9579C78.5524 37.3518 77.9615 37.0336 77.8857 37.1397C77.7039 37.473 77.5978 38.2307 77.1584 38.458C76.7644 38.6701 76.0825 38.3519 75.6885 38.564C74.8703 39.0035 74.2642 39.5944 73.7793 38.8216C73.5217 38.3974 74.1126 37.8064 73.7338 37.4579C73.7338 36.4275 72.764 35.2456 73.5975 34.5637C73.8854 34.3515 74.643 34.2303 75.4613 34.1697C75.8704 34.1243 76.2947 33.8818 76.6886 34.1243C76.9765 34.3061 76.6735 32.7453 77.1281 32.5181C77.9009 32.1695 79.1737 32.3817 79.4919 32.0938C79.598 32.0029 78.9616 31.518 80.0829 31.3058C81.0224 31.1088 81.8861 30.9573 81.9921 30.927C83.2347 30.7755 84.1893 29.9572 83.962 27.8964L83.3862 27.8813C83.2498 27.9419 83.0831 28.0631 82.8862 28.1692C82.3861 28.5177 82.4316 29.3359 81.7648 29.5329C81.28 29.6693 81.1739 29.0935 80.6435 28.9571C80.3405 28.8965 79.4768 29.2905 79.3555 29.2147C79.0525 29.0632 79.1586 28.4268 79.4919 27.6843C78.9919 27.6691 78.507 27.6237 78.0069 27.5782C78.0978 27.6691 78.1888 27.7904 78.2039 27.957C78.2342 28.3359 78.2494 28.2904 78.2039 28.6086C78.113 29.2602 77.7493 30.3663 77.2341 30.6542C76.5977 31.0331 74.8248 31.2907 74.1581 30.8361C74.052 30.4118 75.3703 29.8511 75.3703 29.5784C75.3703 29.3966 75.6734 28.7298 75.7795 28.6086L76.1128 28.2752C76.3553 28.0328 76.5068 27.6994 76.7644 27.4418C74.9461 27.2449 73.1277 26.9873 71.3094 26.6539L71.3397 26.7297ZM84.2802 13.9255C82.3255 14.6225 80.4617 15.7287 78.704 17.1985C79.4768 17.3955 79.2343 16.8954 79.4768 16.7136C80.2193 16.2287 80.7951 15.7741 81.2345 16.0923C81.5376 16.3196 79.2798 18.0168 79.5071 18.6835C79.7495 19.4714 79.6434 18.8199 81.9164 19.426C83.0377 19.7139 80.8405 20.0018 79.6131 20.911C79.1586 21.2898 77.8099 21.3049 77.6433 21.7595C77.4614 22.2444 78.2645 23.8506 77.7493 23.9264C76.7341 24.0779 77.4008 24.5628 77.3099 24.8052C77.219 25.0477 76.5674 24.6537 75.037 24.6234C74.7036 24.6234 74.3399 25.0477 73.8702 25.0477C73.1883 25.0022 72.7034 24.9871 72.264 25.0325L72.1125 25.3356C74.8551 25.7902 77.6433 26.1235 80.4011 26.3054L80.5072 26.1538C80.9617 25.6083 80.6132 25.2598 80.9617 24.9416C81.2042 24.7446 81.78 24.9871 82.0527 24.8355C82.477 24.6234 82.5831 24.0173 82.8407 24.1385C83.1892 24.2749 83.0983 25.0325 83.4165 25.0628C84.3105 25.1083 83.6286 24.7143 84.2651 24.0779C84.9924 23.3506 85.447 23.593 86.4774 23.6233C87.5532 23.6385 88.8867 24.7901 88.0836 25.6841C87.9018 25.8962 87.1441 25.6386 86.7653 25.8659C86.4774 26.0629 86.2198 26.3054 86.1289 26.4872C86.8562 26.4872 87.5835 26.4569 88.2806 26.4418C88.5079 26.3811 88.7049 26.3357 88.7806 26.2902C88.8867 26.2751 90.1595 26.2296 90.7808 25.9114C92.0991 25.2295 92.1446 24.2446 92.2355 23.9415C92.4325 23.3051 92.387 22.8657 91.4021 23.4415C90.902 23.7294 90.9626 24.3355 90.5838 24.7295C90.1444 25.1689 89.311 25.3356 89.311 25.2144C89.2958 24.7598 90.0535 23.987 90.8263 22.9111C91.2505 22.3353 90.4777 21.4716 90.8869 21.2443C90.9475 21.0473 91.0687 20.9413 91.1748 20.8655C91.7203 20.5624 92.6901 21.1686 93.2356 21.411C93.6598 21.608 92.9325 22.3959 93.3719 22.6384C94.3569 23.1384 95.4327 22.6838 95.0842 23.8506C94.9781 24.1991 94.7812 25.3204 95.3418 25.3811C95.7661 25.4265 95.9328 25.1992 96.2207 24.9719L96.0692 24.684C92.887 19.3805 88.8109 15.562 84.2651 13.9406L84.2802 13.9255ZM65.1573 40.2006C66.1422 35.2153 67.703 30.6391 69.6729 26.6842C69.1425 26.9721 68.5515 27.1388 67.8545 27.5782C67.3999 27.8661 67.2029 28.4268 66.7332 28.5025C65.9453 28.6086 65.0058 28.1086 65.324 28.0176C64.8997 26.7751 65.2634 26.0932 65.8543 25.5629C65.1118 25.3659 64.3845 25.1841 63.6572 24.9719C63.6117 25.1083 63.5663 25.2144 63.5663 25.275C63.3541 26.6387 61.0054 24.8204 59.975 26.2751C59.672 26.669 59.672 27.2449 60.1872 27.3055C60.5811 27.3661 61.4449 26.9569 61.7934 27.1085C62.5207 27.3964 62.6116 28.2298 61.5055 28.7904C61.2024 28.9723 60.3387 29.6693 60.5357 30.0784C61.0812 31.1998 61.3691 31.4877 60.3538 31.7907C59.8235 31.9725 59.5659 32.6847 59.1416 32.8817C58.6113 33.0939 58.0203 32.7908 57.9597 33.1848C57.8082 33.9121 57.8233 35.0637 57.1111 35.094C56.4899 35.1092 56.3838 34.2 55.4443 34.0485C55.111 34.003 54.3078 34.594 53.8836 34.594C52.7168 34.594 52.3228 36.6093 51.5349 37.5791C51.444 37.7155 51.3379 37.8216 51.2318 37.9125C55.8534 38.8823 60.5054 39.6247 65.1422 40.1702L65.1573 40.2006ZM65.1422 66.0513C64.4603 62.6268 64.0663 59.0053 63.9602 55.2625H59.3992C59.5053 55.5504 59.581 55.6716 59.8841 55.7019C60.369 55.7474 61.5509 55.4595 62.248 55.9141C63.4147 56.6414 62.1873 59.8993 62.1873 61.1721C61.5964 61.0812 62.1873 61.5055 62.0358 61.7025C61.7934 62.0055 61.7479 62.2328 61.657 62.6268C61.46 63.5966 60.6721 63.9451 60.5963 64.8846C60.5508 65.324 60.5054 66.0665 60.4145 66.6878C61.9752 66.4453 63.5511 66.2332 65.127 66.0513H65.1422ZM59.9447 84.6894C62.1419 86.5077 64.5209 88.1139 67.0666 89.4019C67.1726 88.2806 66.9756 86.5986 67.3696 87.0987C69.5819 89.9323 71.9912 89.705 72.5671 90.4172C73.3399 91.3869 74.9157 90.5081 76.6886 89.4474C74.643 87.5684 72.8095 85.2197 71.1881 82.5225C71.0518 82.2952 70.9457 82.0831 70.8093 81.8709C67.1878 82.5528 63.5511 83.4923 59.9296 84.7045L59.9447 84.6894ZM49.1559 70.279C51.0348 74.5066 53.6108 78.3555 56.702 81.6133C57.3233 82.2649 57.9748 82.9013 58.6567 83.5226C62.4449 82.2346 66.2483 81.2194 70.0668 80.4769C68.097 76.6887 66.5211 72.3246 65.4604 67.5363C63.642 67.7333 61.8388 67.9758 60.0205 68.2637C59.8841 69.1577 59.9144 70.3396 59.6417 70.7639C59.6417 70.7639 59.0507 71.2185 58.7173 71.5518C58.4143 71.8852 58.2779 72.7641 58.0961 73.2187C57.9597 73.5672 57.7476 73.5066 57.8082 73.8702C57.8536 74.1733 58.5052 74.0218 58.687 74.4763C58.9749 75.2188 58.0355 75.6583 57.9445 76.3401C57.8536 76.9917 58.5961 77.8706 59.0204 78.4009C59.1719 78.5979 59.2325 79.4465 59.5053 79.6889C60.2932 80.4163 60.96 80.5223 60.96 81.1739C62.1419 84.3712 56.8384 79.6586 56.0959 79.0525C55.7019 78.7949 55.4443 77.4918 55.02 76.5068C54.8685 76.1583 54.4291 76.2644 54.3382 75.9159C54.1412 75.2188 53.8987 74.5824 53.8987 74.143C53.8987 72.5822 53.0653 72.7792 52.6865 71.8246C52.5501 71.4912 52.0652 70.8093 52.2319 70.2032C52.3228 69.9002 52.4289 69.7638 52.444 69.5668C51.353 69.7789 50.2469 70.0214 49.1559 70.2638V70.279ZM45.8677 58.2325C46.3071 61.9601 47.2315 65.5058 48.5649 68.8395C49.9893 68.5364 51.3985 68.2485 52.8229 67.9606C52.9138 67.7788 52.9592 67.6272 52.9592 67.5212C52.9138 67.0211 52.0804 67.0363 51.6258 66.9908C50.7924 66.9302 51.0803 65.5816 50.5348 65.3089C49.5953 64.8543 50.1863 62.5662 49.8832 62.4753C48.3073 62.0207 48.1558 62.3692 48.1558 60.6266C47.8224 60.2478 48.0043 60.3993 47.6557 60.1417C46.9739 59.6568 46.0798 59.0204 45.898 58.2173L45.8677 58.2325ZM45.6253 55.2473C45.6707 56.1414 45.7313 57.0202 45.8222 57.8991C45.8222 57.7173 45.8677 57.5506 45.9283 57.3536C46.3223 56.3232 46.2768 56.1111 46.2617 55.2473H45.6253ZM45.7162 49.6256C45.6253 50.7924 45.5646 51.9895 45.5646 53.1714L45.5798 53.7169H46.7163C47.0951 53.3078 47.5042 53.0653 47.2618 52.4441C47.0799 51.944 47.0648 51.0197 47.0193 50.5803C46.9739 50.3227 46.0344 49.8529 45.701 49.6105L45.7162 49.6256ZM47.3375 41.0491C46.5193 43.7312 46.0041 46.5041 45.7313 49.3983C46.1859 49.2468 47.686 49.7772 47.686 49.7014C48.5649 50.3227 49.1407 50.7924 49.5953 50.5954C50.4287 50.2469 50.0044 49.1256 51.2167 49.1407C51.4743 49.1407 53.035 49.3377 53.4138 49.5196C53.8684 49.762 53.2168 50.4893 53.5047 50.656C53.6411 50.7469 54.4442 50.5954 54.7776 50.459C55.3079 50.2621 56.2626 50.3681 56.6869 50.459C57.6112 50.6409 57.4142 51.3076 57.4142 52.4592C57.4142 53.4745 57.7627 53.5805 58.187 53.7169H63.9299V53.1714C63.9299 49.1862 64.2784 45.3222 64.9149 41.6552C60.0205 41.0794 55.1564 40.2763 50.2923 39.2459C50.2923 39.3823 49.8681 39.8672 49.9135 40.4127C50.0499 41.6249 49.8681 43.5039 49.2771 42.2613C48.9892 41.6704 49.0195 43.1554 48.3982 42.3674C48.0952 41.9431 48.7771 41.6401 48.4588 41.3976C48.0346 41.0946 47.6709 41.0188 47.3375 41.0491ZM56.702 24.7749L56.5656 24.9113C56.4747 25.1083 56.505 25.4114 56.308 25.4871C56.202 25.5023 56.0959 25.5477 55.9292 25.5932C55.3837 26.2296 54.8382 26.8812 54.3078 27.5479C54.4442 27.851 54.6867 28.1692 54.5958 28.4874C54.3988 29.2299 53.823 29.5329 54.4594 29.9421C54.6867 30.0784 56.111 28.7601 56.505 28.3813C56.7929 28.1237 56.7626 27.0479 57.0051 26.6236C57.4142 25.8356 58.0355 25.6386 58.1415 25.3962C58.2931 25.1083 58.2021 23.9264 60.8387 24.1385H60.8539C60.1114 23.8961 59.3689 23.6536 58.6113 23.396C58.3537 23.9264 57.6718 24.4113 56.6869 24.7749H56.702ZM44.5039 46.9436C44.7464 45.1252 45.1252 43.3675 45.5798 41.6552C45.1252 41.7613 44.5646 41.9128 44.1706 42.3523C43.6402 42.9432 43.5796 44.3221 43.5493 44.807C43.4887 45.6253 44.0039 46.2769 44.4888 46.9284L44.5039 46.9436ZM142.619 53.7169V53.1714C142.619 46.5041 140.209 40.2157 135.951 34.6849C131.527 36.0941 127.087 37.2912 122.662 38.3216C122.844 38.6095 122.844 38.9429 122.753 39.2914C124.223 43.6403 125.011 48.3073 125.011 53.1714V53.7169H142.619ZM135.073 72.7489C139.422 67.5363 142.073 61.5661 142.558 55.2322H124.966L124.951 55.6868C125.284 55.4746 125.723 55.6413 126.193 55.6413C126.739 55.6413 127.33 55.5049 127.723 55.8535C128.208 56.2626 127.345 56.9748 127.269 57.7779C127.208 58.2628 128.102 58.8537 127.799 59.2326C127.496 59.6265 126.875 60.066 126.39 59.672C125.769 59.1871 125.36 59.2932 124.738 58.8992L124.632 58.8386C124.496 59.9296 124.329 61.0054 124.102 62.0813C124.087 62.2328 124.041 62.4147 123.966 62.6268V62.6571C123.814 63.3541 123.632 64.0663 123.435 64.7634C123.617 65.7483 124.405 66.7787 124.663 67.7939C124.723 68.0364 124.526 68.4758 124.663 68.7334C124.814 69.0819 125.299 69.3092 125.193 69.7183C125.163 69.7789 125.132 69.8699 125.057 69.9608C128.39 70.7942 131.724 71.7185 135.057 72.7489H135.073ZM117.995 85.644C120.783 84.2802 123.39 82.765 125.799 81.1284C128.921 78.9767 131.678 76.5674 133.997 73.9763C130.512 72.9307 127.042 71.9761 123.572 71.1427C123.375 71.2942 123.193 71.4458 123.041 71.5973C122.617 72.0822 122.89 72.8095 122.511 73.0671C121.374 73.8854 121.42 73.4156 120.208 74.0521C119.859 74.249 119.586 74.446 119.329 74.643C117.677 77.5372 115.692 80.2193 113.449 82.5983C113.116 82.9316 112.813 83.2498 112.48 83.5681C114.298 84.2045 116.116 84.8864 117.965 85.6288L117.995 85.644ZM114.874 87.0532C115.283 86.8714 115.692 86.7047 116.101 86.5229C114.495 85.8864 112.874 85.2955 111.252 84.7651C110.525 85.4167 109.782 86.0531 109.01 86.6441C111.949 86.2047 114.631 86.5835 114.859 87.0381L114.874 87.0532ZM53.9442 86.8714C57.5203 88.4018 61.3388 89.6747 65.3694 90.6444C65.5816 90.6293 65.7937 90.5838 65.9907 90.5081C63.2329 89.0686 60.6418 87.2805 58.2931 85.2046C56.8384 85.7349 55.3989 86.2804 53.9442 86.8714ZM35.1698 73.9308C37.5185 76.5371 40.2763 78.9464 43.4129 81.1284C46.0495 82.9468 48.9437 84.5984 52.0501 86.038C53.7017 85.3409 55.3686 84.6742 57.0354 84.0681C56.5353 83.6135 56.0504 83.0983 55.5807 82.6134C52.2925 79.1434 49.5953 75.0673 47.6406 70.5669C43.4736 71.5367 39.3065 72.6428 35.1546 73.9157L35.1698 73.9308ZM26.6539 55.217C27.1388 61.5358 29.7602 67.4757 34.0939 72.6731C38.4125 71.3397 42.7311 70.1426 47.0496 69.1577C45.3374 64.8088 44.307 60.1266 44.0948 55.2019H26.6539V55.217ZM33.2151 34.7304C28.9874 40.2309 26.5933 46.5041 26.5933 53.1563V53.7018H44.0494V53.1563C44.0494 51.7016 44.11 50.2621 44.2463 48.8074C43.3069 48.7619 42.3825 48.5952 41.8522 47.9891C41.3067 47.3527 41.7613 46.7163 41.4128 46.0193C40.9733 45.201 40.443 44.9889 40.3369 44.0645C40.246 43.519 40.6854 43.322 40.9127 42.7311C41.0946 42.2462 41.0188 41.3673 41.0642 41.0188C41.2006 39.8369 40.7157 39.3368 40.5794 39.5793C40.3824 40.0187 40.0339 41.5037 39.549 43.1554C39.3065 43.9433 38.261 44.4434 38.0791 43.6403C37.9731 43.1402 38.4883 41.9583 38.4883 41.0491L39.1853 38.3519L39.0944 36.4881C37.1397 35.9426 35.1698 35.3516 33.1999 34.7304H33.2151ZM42.5189 25.8508C39.3368 28.154 36.5487 30.6997 34.2303 33.4575C35.8517 33.9576 37.4579 34.4425 39.0489 34.9122V34.7304C39.0338 34.3364 39.7308 34.2758 39.9278 33.8515C40.1702 33.3515 40.0187 32.4877 40.5187 32.1392C40.8066 31.8968 41.5946 32.0332 41.8067 31.7907C42.6856 30.8967 42.5038 30.9422 42.3977 30.8209C42.0189 30.533 41.2158 30.336 41.0794 29.9875C40.746 29.1693 42.0189 28.3056 42.5644 27.2297C42.7159 26.9266 42.5644 26.3508 42.5038 25.8508H42.5189ZM66.9908 15.3195C63.4147 16.0923 59.9902 17.0924 56.7475 18.3198C57.0051 18.5774 57.2778 18.9411 57.5809 19.3048C57.7172 19.4866 58.5507 19.6078 58.6719 19.8351C58.7779 20.0169 58.2931 20.7594 57.49 20.8806C57.1111 20.9413 56.0201 20.7746 55.8837 20.7746C56.5353 21.0322 57.1717 21.2746 57.8385 21.5019C60.5811 19.0168 63.6572 16.9409 66.9908 15.3195ZM81.3709 13.5012C79.2798 13.5921 77.2493 13.7436 75.2491 13.9558C69.3546 15.3347 63.9754 18.1683 59.4598 22.0777C60.5508 22.4565 61.6721 22.8051 62.7783 23.1233C63.3238 22.5475 63.7178 22.0323 63.9905 22.2747C64.2784 22.5626 64.2481 23.0475 64.1421 23.5021C65.2331 23.8052 66.3089 24.0931 67.3848 24.3355C67.6878 24.0779 67.4757 23.2142 67.7333 22.9263C69.7789 20.8806 68.4758 21.4565 67.5515 20.0169C66.6574 18.5926 70.1426 18.7441 70.7487 18.3501C71.567 17.8501 73.2944 17.6985 73.8854 17.8501C74.4915 18.0016 73.9308 18.4865 74.6278 18.4259C74.8703 18.4107 75.1733 18.2441 75.5067 18.0774C77.3251 16.1681 79.2798 14.6377 81.3557 13.5164L81.3709 13.5012ZM93.6295 13.9406C91.5081 13.6982 89.3261 13.5467 87.1441 13.4861C91.0536 15.5771 94.5539 19.1684 97.3723 23.8658L97.5693 24.1991C98.1451 24.0476 98.4936 24.8507 99.0391 25.2447C99.9634 25.0628 100.857 24.8962 101.782 24.6992C102.873 24.1537 103.797 23.5172 104.191 23.4415C104.615 23.396 104.934 23.6536 105.312 23.8809C106.888 23.4566 108.494 23.0324 110.07 22.5172C105.418 18.3501 99.8119 15.3499 93.6447 13.9406H93.6295ZM116.753 20.123C112.207 18.0471 107.237 16.3954 101.933 15.2589C105.479 16.9712 108.782 19.2441 111.677 21.9414C111.737 21.9414 111.783 21.9414 111.828 21.9262C113.48 21.3807 115.116 20.7897 116.768 20.123H116.753ZM120.389 21.9262C119.799 21.6231 119.177 21.2898 118.586 21.0019C117.071 21.6231 115.586 22.2141 114.071 22.7293C114.662 23.1081 115.844 23.4566 116.783 23.6536C117.904 23.8961 118.01 23.8355 118.708 24.1991C119.253 24.5022 120.177 25.275 119.768 25.7599C119.526 26.0175 118.647 26.0478 118.147 26.0478C117.768 26.0478 117.253 25.8508 117.056 26.0629C116.859 26.2599 117.495 26.9115 117.51 27.2903C117.51 27.7904 117.207 28.1692 117.329 28.5177L117.465 28.6995C117.814 29.048 118.071 29.5329 118.586 29.6845C119.071 29.836 119.844 29.6845 120.193 30.1087C120.677 30.6846 120.874 31.2755 120.89 31.7907C120.92 32.2908 121.117 32.5787 120.98 32.8666C120.935 32.9272 120.45 32.9726 119.905 32.715C120.647 34.0788 121.314 35.5032 121.874 36.9427C126.223 35.9274 130.557 34.7455 134.906 33.4121C133.482 31.6998 131.86 30.0784 130.087 28.548C129.951 29.3359 130.133 30.5633 129.557 30.9118C128.39 31.6543 127.754 27.3964 126.86 27.0479C126.269 26.8357 125.178 28.2146 124.693 26.6387C124.299 25.3053 123.269 25.8962 122.193 25.2144C120.632 24.2446 120.783 23.9718 120.329 21.9414L120.389 21.9262ZM84.5984 11.0767C101.176 11.0767 116.222 15.7438 127.117 23.2748C138.149 30.9118 144.998 41.4734 144.998 53.1714C144.998 64.8846 138.149 75.4461 127.117 83.0832C116.222 90.599 101.176 95.2812 84.5984 95.2812C67.9909 95.2812 52.9744 90.6141 42.0492 83.0832C31.0179 75.4461 24.1991 64.8846 24.1991 53.1714C24.1991 41.4885 31.0179 30.9118 42.0492 23.2748C52.9744 15.759 67.9909 11.0767 84.5984 11.0767ZM82.0831 21.5171C81.78 21.3655 81.2193 21.2898 81.4315 20.82C81.4921 20.6685 81.6739 20.4867 81.8103 20.3958C81.8558 20.3806 82.0376 20.4109 82.1134 20.3958C82.2952 20.3806 82.4922 20.0927 82.6437 20.1988C82.8559 20.3806 82.8559 20.8958 82.5831 20.9867C82.3861 21.0322 82.3558 21.0776 82.28 21.1837C82.2194 21.2443 82.1437 21.4716 82.0982 21.5171H82.0831Z" fill="white"/>
<path d="M8.66744 124.375V122.269H0V124.375H3.1518V134.346H5.51564V124.375H8.66744ZM18.7441 128.315V127.466C18.7441 125.511 18.3804 124.36 17.5319 123.496C16.6833 122.632 15.562 122.178 14.274 122.178C12.9709 122.178 11.8495 122.632 11.001 123.496C10.0615 124.451 9.81906 125.42 9.81906 127.83V128.497C9.81906 129.83 9.72814 131.845 11.001 133.148C11.8495 134.012 12.9709 134.467 14.274 134.467C15.5771 134.467 16.6833 134.027 17.5319 133.148C18.8199 131.815 18.7441 130.057 18.7441 128.33V128.315ZM16.3802 128.087C16.3802 130.542 16.2742 131.148 15.7893 131.709C15.4105 132.133 14.8953 132.36 14.274 132.36C13.6679 132.36 13.1527 132.118 12.7436 131.709C12.092 131.057 12.1678 129.618 12.1678 128.148C12.1678 126.648 12.1981 125.511 12.7436 124.92C13.1224 124.496 13.6527 124.269 14.274 124.269C14.8801 124.269 15.4105 124.496 15.7893 124.92C16.259 125.451 16.3802 126.102 16.3802 128.087ZM31.7301 134.346V122.269H29.4117L26.2751 128.8L23.1233 122.269H20.8049V134.346H23.1687V127.299L25.4871 131.876H27.0782L29.3814 127.299V134.346H31.7453H31.7301ZM41.5795 133.058L40.0187 131.497C39.352 132.148 38.9429 132.345 38.2307 132.345C37.5791 132.345 37.0942 132.148 36.7154 131.724C36.2457 131.194 36.1244 130.542 36.1244 128.618V127.966C36.1244 126.815 36.1244 125.557 36.7154 124.89C37.0942 124.466 37.5943 124.269 38.2307 124.269C38.9277 124.269 39.352 124.466 40.0187 125.117L41.5795 123.557C40.9127 122.935 40.5945 122.723 40.0187 122.481C39.4884 122.254 38.8974 122.163 38.2307 122.163C36.9275 122.163 35.8062 122.617 34.9577 123.481C34.0182 124.436 33.7757 125.405 33.7757 127.815V128.3C33.7757 130.315 33.7757 131.921 34.9577 133.118C35.8062 133.982 36.9427 134.436 38.2458 134.436C38.8974 134.436 39.5035 134.315 40.0036 134.118C40.5794 133.876 40.8976 133.679 41.5643 133.042L41.5795 133.058ZM53.1259 134.346L48.8377 127.072L52.838 122.269H49.9742L45.7162 127.527V122.269H43.3523V134.346H45.7162V130.709L47.2769 128.845L50.3833 134.346H53.1259ZM62.7935 128.3V127.451C62.7935 125.496 62.4298 124.345 61.5812 123.481C60.7327 122.617 59.6114 122.163 58.3234 122.163C57.0202 122.163 55.8989 122.617 55.0504 123.481C54.1109 124.436 53.8684 125.405 53.8684 127.815V128.481C53.8684 129.815 53.7775 131.83 55.0504 133.133C55.8989 133.997 57.0202 134.452 58.3234 134.452C59.6265 134.452 60.7327 134.012 61.5812 133.133C62.8692 131.8 62.7935 130.042 62.7935 128.315V128.3ZM60.4296 128.072C60.4296 130.527 60.3236 131.133 59.8387 131.694C59.4598 132.118 58.9446 132.345 58.3234 132.345C57.7173 132.345 57.2021 132.103 56.7929 131.694C56.1414 131.042 56.2171 129.603 56.2171 128.133C56.2171 126.633 56.2474 125.496 56.7929 124.905C57.1718 124.481 57.7021 124.254 58.3234 124.254C58.9295 124.254 59.4598 124.481 59.8387 124.905C60.3084 125.436 60.4296 126.087 60.4296 128.072ZM72.7944 134.33V132.224H67.1878V129.284H71.961V127.178H67.1878V124.345H72.7944V122.238H64.8391V134.315H72.7944V134.33ZM87.1896 128.284V127.436C87.1896 125.481 86.8259 124.329 85.9774 123.466C85.1288 122.602 84.0075 122.147 82.7195 122.147C81.4164 122.147 80.295 122.602 79.4465 123.466C78.507 124.42 78.2645 125.39 78.2645 127.799V128.466C78.2645 129.8 78.1736 131.815 79.4465 133.118C80.295 133.982 81.4164 134.436 82.7195 134.436C84.0226 134.436 85.1288 133.997 85.9774 133.118C87.2654 131.785 87.1896 130.027 87.1896 128.3V128.284ZM84.8257 128.057C84.8257 130.512 84.7197 131.118 84.2348 131.679C83.856 132.103 83.3408 132.33 82.7195 132.33C82.1134 132.33 81.5982 132.088 81.1891 131.679C80.5375 131.027 80.6133 129.588 80.6133 128.118C80.6133 126.618 80.6436 125.481 81.1891 124.89C81.5679 124.466 82.0982 124.239 82.7195 124.239C83.3256 124.239 83.856 124.466 84.2348 124.89C84.7045 125.42 84.8257 126.072 84.8257 128.057ZM97.9936 130.557C97.9936 128.345 96.4935 126.784 94.069 126.784H91.5991V124.345H97.2359V122.238H89.2504V134.315H94.0841C96.5238 134.315 98.0087 132.754 98.0087 130.542L97.9936 130.557ZM95.6297 130.557C95.6297 131.557 95.0085 132.224 93.9478 132.224H91.5839V128.906H93.9478C94.9933 128.906 95.6297 129.588 95.6297 130.572V130.557ZM108.782 134.33V122.254H101.358L101.176 129.315C101.115 131.618 100.282 132.239 99.1907 132.239H98.7967V134.346H99.8271C102.176 134.346 103.464 132.815 103.54 129.421L103.676 124.36H106.419V134.33H108.782ZM120.587 134.33L116.177 122.254H114.328L109.934 134.33H112.389L113.116 132.194H117.404L118.117 134.33H120.571H120.587ZM116.783 130.209H113.783L115.313 125.814L116.783 130.209ZM129.118 133.042L127.557 131.482C126.89 132.133 126.481 132.33 125.769 132.33C125.117 132.33 124.632 132.133 124.254 131.709C123.784 131.179 123.663 130.527 123.663 128.603V127.951C123.663 126.799 123.663 125.542 124.254 124.875C124.632 124.451 125.132 124.254 125.769 124.254C126.466 124.254 126.89 124.451 127.557 125.102L129.118 123.542C128.451 122.92 128.133 122.708 127.557 122.466C127.026 122.238 126.436 122.147 125.769 122.147C124.466 122.147 123.344 122.602 122.496 123.466C121.556 124.42 121.314 125.39 121.314 127.799V128.284C121.314 130.3 121.314 131.906 122.496 133.103C123.344 133.967 124.481 134.421 125.784 134.421C126.436 134.421 127.042 134.3 127.542 134.103C128.117 133.861 128.436 133.664 129.102 133.027L129.118 133.042ZM138.664 124.36V122.254H129.996V124.36H133.148V134.33H135.512V124.36H138.664ZM149.028 134.33V122.254H146.665V127.193H142.573V122.254H140.209V134.33H142.573V129.269H146.665V134.33H149.028ZM159.999 128.284V127.436C159.999 125.481 159.635 124.329 158.787 123.466C157.938 122.602 156.817 122.147 155.529 122.147C154.226 122.147 153.105 122.602 152.256 123.466C151.317 124.42 151.074 125.39 151.074 127.799V128.466C151.074 129.8 150.983 131.815 152.256 133.118C153.105 133.982 154.226 134.436 155.529 134.436C156.832 134.436 157.938 133.997 158.787 133.118C160.075 131.785 159.999 130.027 159.999 128.3V128.284ZM157.635 128.057C157.635 130.512 157.529 131.118 157.044 131.679C156.665 132.103 156.15 132.33 155.529 132.33C154.923 132.33 154.408 132.088 153.999 131.679C153.347 131.027 153.423 129.588 153.423 128.118C153.423 126.618 153.453 125.481 153.999 124.89C154.377 124.466 154.908 124.239 155.529 124.239C156.135 124.239 156.665 124.466 157.044 124.89C157.514 125.42 157.635 126.072 157.635 128.057ZM170 134.315V132.209H164.393V129.269H169.167V127.163H164.393V124.329H170V122.223H162.045V134.3H170V134.315ZM30.1997 147.347V146.498C30.1997 144.543 29.836 143.392 28.9874 142.528C28.1389 141.664 27.0176 141.21 25.7296 141.21C24.4264 141.21 23.3051 141.664 22.4565 142.528C21.5171 143.483 21.2746 144.452 21.2746 146.862V147.529C21.2746 148.862 21.1837 150.877 22.4565 152.18C23.3051 153.044 24.4264 153.499 25.7296 153.499C27.0327 153.499 28.1389 153.059 28.9874 152.18C30.2754 150.847 30.1997 149.089 30.1997 147.362V147.347ZM27.8358 147.119C27.8358 149.574 27.7297 150.18 27.2449 150.741C26.866 151.165 26.3508 151.392 25.7296 151.392C25.1235 151.392 24.6083 151.15 24.1991 150.741C23.5476 150.089 23.6233 148.65 23.6233 147.18C23.6233 145.68 23.6536 144.543 24.1991 143.952C24.5779 143.528 25.1083 143.301 25.7296 143.301C26.3357 143.301 26.866 143.528 27.2449 143.952C27.7146 144.483 27.8358 145.134 27.8358 147.119ZM40.0187 143.407V141.301H31.3513V143.407H34.5031V153.378H36.8669V143.407H40.0187ZM51.747 156.06V151.271H50.353V141.301H43.0947V141.846C43.0947 146.498 42.6705 148.892 41.7158 151.286H40.5036V156.075H42.7765V153.393H49.459V156.075H51.7319L51.747 156.06ZM48.0043 151.271H44.1706C44.9131 149.241 45.4283 147.362 45.4283 143.786V143.392H48.0043V151.271ZM61.2327 153.378V151.271H55.6262V148.332H60.3993V146.225H55.6262V143.392H61.2327V141.286H53.2775V153.362H61.2327V153.378ZM71.9913 153.378V141.301H64.5664L64.3845 148.362C64.3239 150.665 63.4905 151.286 62.3995 151.286H62.0055V153.393H63.0359C65.3846 153.393 66.6726 151.862 66.7484 148.468L66.8848 143.407H69.6274V153.378H71.9913ZM82.4164 153.378V151.271H76.8099V148.332H81.583V146.225H76.8099V143.392H82.4164V141.286H74.4612V153.362H82.4164V153.378ZM93.175 153.378V141.301H90.8111V146.241H86.7198V141.301H84.356V153.378H86.7198V148.316H90.8111V153.378H93.175ZM104.797 153.378V141.301H102.691L97.9936 149.044V141.301H95.6297V153.378H97.736L102.433 145.619V153.378H104.797ZM115.207 153.378V151.271H109.601V148.332H114.374V146.225H109.601V143.392H115.207V141.286H107.252V153.362H115.207V153.378ZM121.087 141.301V153.378H123.45V148.832H125.769C128.117 148.832 129.754 147.271 129.754 145.059C129.754 142.846 128.087 141.286 125.769 141.286H121.087V141.301ZM123.45 146.71V143.407H125.663C126.708 143.407 127.405 144.074 127.405 145.074C127.405 146.074 126.708 146.725 125.663 146.725H123.45V146.71ZM139.043 143.407V141.301H131.436V153.378H133.8V143.407H139.043ZM149.074 147.347V146.498C149.074 144.543 148.71 143.392 147.862 142.528C147.013 141.664 145.892 141.21 144.604 141.21C143.301 141.21 142.179 141.664 141.331 142.528C140.391 143.483 140.149 144.452 140.149 146.862V147.529C140.149 148.862 140.058 150.877 141.331 152.18C142.179 153.044 143.301 153.499 144.604 153.499C145.907 153.499 147.013 153.059 147.862 152.18C149.15 150.847 149.074 149.089 149.074 147.362V147.347ZM146.71 147.119C146.71 149.574 146.604 150.18 146.119 150.741C145.74 151.165 145.225 151.392 144.604 151.392C143.998 151.392 143.482 151.15 143.073 150.741C142.422 150.089 142.498 148.65 142.498 147.18C142.498 145.68 142.528 144.543 143.073 143.952C143.452 143.528 143.983 143.301 144.604 143.301C145.21 143.301 145.74 143.528 146.119 143.952C146.589 144.483 146.71 145.134 146.71 147.119Z" fill="white"/>
</svg>
