<svg width="35" height="35" viewBox="0 0 35 35" fill="none" xmlns="http://www.w3.org/2000/svg">
<path fill-rule="evenodd" clip-rule="evenodd" d="M17.6875 34.999L17.6875 35C24.9125 35 29.9 34.975 32.475 32.475C34.975 29.9 35 24.675 35 17.6875L34.999 17.6875C34.9997 17.6251 35 17.5626 35 17.5C35 17.4374 34.9997 17.3749 34.999 17.3125L35 17.3125C35 10.325 34.975 5.1 32.475 2.525C29.9 0.0250001 24.9125 0 17.6875 0L17.6875 0.00098404C17.6251 0.000328557 17.5626 0 17.5 0C17.4374 0 17.3749 0.000328557 17.3125 0.00098404L17.3125 0C10.1 0 5.1 0.0250001 2.525 2.525C0.0250001 5.1 0 10.325 0 17.3125L0.000984057 17.3125C0.000328562 17.3749 0 17.4374 0 17.5C0 17.5626 0.000328557 17.6251 0.00098404 17.6875L0 17.6875C0 24.675 0.0250001 29.9 2.525 32.475C5.1 34.975 10.0875 35 17.3125 35L17.3125 34.999C17.3749 34.9997 17.4374 35 17.5 35C17.5626 35 17.6251 34.9997 17.6875 34.999ZM24.3407 26.1171L27.9323 9.48449C28.251 8.01841 27.3956 7.4446 26.4181 7.80457L5.30426 15.7921C3.86452 16.3451 3.88573 17.1382 5.0599 17.4982L10.4579 19.1572L22.9965 11.4044C23.5863 11.0183 24.1229 11.2323 23.6819 11.6183L13.5394 20.618L13.1463 26.091C13.7095 26.091 13.9539 25.851 14.246 25.5641L16.8865 23.0702L22.3589 27.0301C23.3631 27.583 24.0697 27.2909 24.3407 26.1171Z" fill="white"/>
</svg>
