<svg id="Слой_1" data-name="Слой 1" xmlns="http://www.w3.org/2000/svg" xmlns:xlink="http://www.w3.org/1999/xlink" viewBox="0 0 841.89 595.28"><defs><style>.cls-1{fill:none;}.cls-2{clip-path:url(#clip-path);}.cls-3{fill:#fff;}.cls-4{fill:#222220;}.cls-5{clip-path:url(#clip-path-2);}.cls-6{clip-path:url(#clip-path-3);}</style><clipPath id="clip-path"><path class="cls-1" d="M641.85,277.41C560.78,347.88,392.65,403.27,267,400.92c-71.46-1.34-114-21.08-122.52-50.82L159,401c8.5,29.74,51.06,49.48,122.52,50.82,125.64,2.36,293.78-53,374.83-123.5,35-30.4,48.11-58.71,41.65-81.26L683.5,196.15c6.45,22.56-6.69,50.87-41.65,81.26"/></clipPath><clipPath id="clip-path-2"><path class="cls-1" d="M182.82,268.8c-35.47,30.83-48.79,59.55-42.25,82.43l14.55,50.88c-6.54-22.88,6.78-51.6,42.25-82.43C279.6,248.19,450.24,192,577.71,194.36c72.48,1.36,115.64,21.39,124.26,51.55L687.42,195c-8.63-30.17-51.78-50.19-124.26-51.55q-3.93-.07-7.92-.07c-126.53,0-291.88,55.37-372.42,125.39"/></clipPath><clipPath id="clip-path-3"><rect class="cls-1" width="841.89" height="595.28"/></clipPath></defs><title>Монтажная область 1</title><g class="cls-2"><path class="cls-3" d="M262.08,425.1a17.1,17.1,0,0,0-3.35,0l3.39,11.84c10.58,2.94,11.72-2.77,9.38-6.81-1.8-3.1-5-4.8-9.42-5m58.31-1.29a9.37,9.37,0,0,0-1.92.32l3.55,12.4c11.32.81,8.57-7.91,6.57-10.16-.8-.89-3.19-2.93-8.2-2.55m-168-46.24q.36,1.27.81,2.52-2-6.79-4-13.6l.82,2.87,2.35,8.22m42.36,27.5q.15,5.29.34,10.59,2.91,1.1,6,2.11-3.19-6.34-6.35-12.7M689.37,219q1.77,6.89,3.51,13.8-.11-2.1-.42-4.14-1.52-4.83-3.08-9.65M166.17,386.78a2.1,2.1,0,0,0-1-.42l3.43,12c1.32,1.45,2.47,2.69,2.58.55.14-2.64-2.58-10.27-5-12.14M584,330.8a12.07,12.07,0,0,0-2.25,1.74l3.43,12c2.83-.94,5.27-1.75,6.09-5.7.69-3.33-.79-7.26-3.16-8.42a4.32,4.32,0,0,0-4.11.38M479.62,376.14q-4.46,1.51-8.95,3c2.85,11.95,4.47,20.33,1.1,27.7q5.56-1.75,11.08-3.57c4-1.34,4.05-1.48,3-5.1l-6.29-22m-221.3,35.61a10.24,10.24,0,0,0-3.32.3l3.17,11.09c9.58,2.37,11.16-2.51,8.59-6.79-1-1.6-3.34-4.33-8.44-4.6m425-171.53c-2.53,6.41,4.19,28.68,7,28,3.35-.81-1.72-26.78-5.65-28.94-.49-.27-.94,0-1.32.93M161.76,382.45l-.22-.78q1.88,1.68,4,3.28c7,5.42,9,17,7,17.24-.72.1-1.9-.78-3.49-2.62l2.4,8.41c.75,2.59,1.24,4.3,2.43,5.24l.45.33.22.78q-2.5-1.85-4.7-3.82l-.22-.79.4.35c.29.22.29.22.52.17.16-.33.23-.47-.64-3.53l-5.33-18.65c-.74-2.56-1.22-4.25-2.34-5.27l-.4-.35m10,7.44-.23-.79a96.83,96.83,0,0,0,11,5.82l1.6,5.15.38,1.24-.45-.21c-1.46-3.92-2.12-5-4.28-6.13q-2-1-3.93-2.06l3.26,11.41q1.53.84,3.14,1.66c1.36.64,2.12.75,1.12-3.08l.43.2,2.88,10.07-.43-.2c-1-2.93-1.54-4.41-3.56-5.46q-1.61-.81-3.13-1.66l2.72,9.52c.23.79.55,1.89.75,2.4.63,1.09.63,1.09,1.34,1.47s1.61.85,2.44,1.26c1.87.9,2.81,1.36,2.8-3.58l.46.21q.36,3.31.73,6.63a96.81,96.81,0,0,1-11-5.82l-.22-.78.46.28c1.39.73.92-.93.21-3.43l-5.37-18.77c-.82-2.83-1.19-4.12-2.64-5.08l-.46-.28m32.6,19-1.7-6.71q7.78,2.17,16.57,3.83l2.18,6.82-.59-.11c-.71-1.87-1.91-5-5.32-5.75l-2.91-.63,6.31,22c.8,2.75,1.2,4.13,3.38,4.7l.74.15.22.79q-4.44-.93-8.6-2l-.23-.79.69.18c2.07.41,1.56-1.4.91-3.7l-6.3-22-2.39-.59c-1.5-.37-3.55-.88-2.43,3.95l-.54-.15m29.47,20.42c.94-2.57,2.89-7.91,5.24-13.91a7.13,7.13,0,0,0,.71-1.81c0-.38.11-3.74-4.64-4.37l-.22-.79q5.12.63,10.53,1.1l.23.78c-3-.17-3.35.37-2.31,4.12l5.26,18.38c1.11,3.79,1.74,4.41,4.85,4.78l.22.79q-5.4-.47-10.53-1.1l-.22-.78c3,.27,3.29-.26,2.24-4l-4.74-16.58c-4.06,10.39-5.95,15.75-5.95,15.76-.06.83.08,3.59,4.45,4.34l.23.78q-5-.69-9.7-1.53l-.22-.78c2.85.4,2.9-.32,1.9-3.9l-5.26-18.38c-1.05-3.61-1.51-4.37-4.44-5l-.22-.78q4.71.84,9.7,1.53l.23.78c-2.88-.3-3.13.18-2.07,4l4.76,16.65m13.51-18.85-.23-.79q5.43.44,11.14.72c14.55.78,15.14,10.75,12.45,13.24a5.93,5.93,0,0,1-2,1.15c9.55,2.42,10.19,11,6,13.51-1.39.84-3.54,1.14-7.17,1q-6.25-.29-12.18-.77l-.22-.78.94.07c2.69.15,2.14-1.82,1.49-4.11L252.27,415c-.72-2.47-1.25-4.26-4-4.52l-.94-.08m44.3,1-.22-.78q6.1-.19,12.3-.54l.23.78-1,.06c-3.07.26-2.62,1.85-1.88,4.48L306.4,434c.77,2.64,1.23,4.23,4.35,4.16l1-.06.22.78q-6.2.35-12.3.54l-.22-.78,1,0c3-.16,2.52-2,1.85-4.43l-2.52-8.8q-6.67.26-13.22.33l2.52,8.8c.75,2.58,1.24,4.28,4.27,4.27l1,0,.23.78q-6.09.12-12.06.07l-.23-.78h1c3,0,2.47-1.83,1.77-4.31l-5.33-18.64c-.76-2.63-1.22-4.21-4.24-4.32h-1l-.23-.79q6,0,12.06-.07l.22.78-1,0c-3,.15-2.52,1.82-1.81,4.36l2.37,8.28q6.55-.07,13.22-.34L297,415.57c-.76-2.63-1.22-4.21-4.32-4.21l-1,0m22.46,27.4-.23-.78c3.62-.33,4-.94,3-4.72l-5.26-18.38c-1.11-3.75-1.83-4.29-5.5-4.17l-.22-.78q6.26-.38,12.61-.92l.22.78c-3.83.43-4,1.18-3,4.79l2.22,7.75,1.17-.09c6.84-.52,10.2-.3,13.31,2.37,2.81,2.41,4.21,7.07,1.57,10.4-1.83,2.31-5.79,2.7-7.48,2.86q-6.24.53-12.41.9m16.54-30.12-.23-.78q6.36-.68,12.79-1.5l.22.78-.65.08c-3.61.49-3.13,2.19-2.4,4.77l5.33,18.65c1.06,3.6,1.84,4.21,4.88,3.87l.65-.08.22.78q-6.42.83-12.79,1.5l-.23-.78.88-.1c3.35-.43,2.87-2.13,2.15-4.69l-5.33-18.65c-.8-2.75-1.24-4.27-4.82-3.92l-.68.07M365.36,415c4.08-8.5,4.08-8.5,4.24-9.16l0-.92-.5-.74c-1.31-.63-1.31-.63-3.2-.32l-.22-.78q5.4-.89,10.81-1.88l.22.78c-3,.71-4,2.38-5.83,6l-3.94,8.33c14.84,13.22,14.84,13.22,18.27,12.81l.22.79q-6.56,1.2-13.09,2.26l-.23-.79a5.45,5.45,0,0,0,1.86-.58l.63-.69.08-.87c-.57-1.11-.57-1.11-2.26-2.6l-7.29-6.6c-4.73,10-4.73,10-4.86,10.56.06,1.34.36,2.43,3.42,2.09l.23.78q-5.37.8-10.71,1.5l-.23-.79c3.68-.88,5.34-4.35,6-5.83l4.68-9.67c-13.79-12.25-13.79-12.25-17.95-11.86l-.22-.78q7-.92,14-2l.22.78c-4.59.9-2.1,3.15-.91,4.24l6.58,5.91M406,418.44c6.09-13.26,9.3-20.38,9.3-20.38,0-.17.61-4.3-5.61-2.9l-.23-.78q6.63-1.54,13.25-3.21l.23.78c-3.79,1.06-4.2,1.79-3.16,5.55l5.26,18.38c1.11,3.77,1.86,4.2,5.71,3.35l.22.78q-6.62,1.67-13.25,3.21l-.22-.79c3.83-1,4.25-1.72,3.21-5.5L416,400.35q-4.09,9-8.22,18.07a10.78,10.78,0,0,0-1.07,2.34c-.2,1.23-.05,4,5.55,2.88l.22.79q-6.62,1.48-13.23,2.83l-.23-.79c3.8-.88,4.22-1.59,3.17-5.37l-5.26-18.38c-1.11-3.75-1.86-4.21-5.72-3.53l-.22-.78q6.61-1.35,13.23-2.83l.23.78c-4,1-4.18,1.81-3.17,5.43L406,418.44m37.51-32-.23-.78q6.51-1.84,13-3.79l.22.78-1.09.33c-3.2,1.07-2.76,2.66-2,5.29l5.33,18.64c.77,2.63,1.23,4.22,4.49,3.35l1.09-.33.23.78q-6.46,2-13,3.79l-.23-.78,1.07-.3c3.22-1,2.72-2.77,2-5.25l-2.52-8.8q-7,2-14.13,3.93l2.52,8.8c.77,2.64,1.23,4.23,4.52,3.43l1.1-.3.22.79q-6.52,1.79-13.07,3.46l-.22-.78,1.07-.27c3.25-.89,2.77-2.59,2.05-5.17l-5.33-18.65c-.76-2.63-1.22-4.21-4.52-3.47l-1.07.28-.22-.79q6.55-1.67,13.07-3.46l.22.79-1.1.3c-3.23,1-2.76,2.66-2,5.2l2.37,8.28q7.08-1.9,14.13-3.93l-2.37-8.28c-.77-2.66-1.23-4.26-4.5-3.38l-1.07.3m25.32,32-2.6-9.09c9.44-4.1,4.49-27.77.93-29.25-.44-.18-.9-.37-4,.49l-.23-.78q12.41-3.88,24.59-8.16l.23.78c-3.65,1.4-4,2.17-3,5.94l4.57,16c1.9,6.54,2.13,6.74,6,5.42l2.6,9.09-.74.26c-4.13-7.57-9.38-5.87-12.21-4.95q-3.81,1.27-7.64,2.51c-7.24,2.46-8.25,7.62-7.83,11.51l-.75.23M512.6,383c2.22-20,2.22-20-1.73-19.09l-.23-.79q4.5-1.76,8.95-3.57l.22.78c-2.11,1.22-3.13,3-3.53,6.24-2.21,19.88-2.49,22.43-3.67,25.35-2.35,5.84-7.28,5.88-8.39,4.58s-.28-3.7,2.79-3.44c2.46.21,3.48.29,4.88-4.85-18.75-17.13-18.75-17.13-21.71-16.59l-.23-.78q6-2.12,11.84-4.33l.22.78c-4.47,1.92-2.83,3.41,1.13,7l9.46,8.7m39.5-30.06-1.23-5.19-.41-1.72q10.94-5.15,21.34-10.59l1.67,5,.55,1.65-.72.38c-1-2.32-2.32-4.43-6.12-2.55l-3.64,1.84,6.3,22c.74,2.51,1.22,4.16,4,2.83l.88-.45.22.79q-5.46,2.79-11.08,5.49l-.22-.78.93-.45c2.77-1.4,2.28-3.16,1.6-5.59l-6.31-22-3.16,1.54c-2,1-4.84,2.37-3.82,7.48l-.76.36M574.27,335l-.22-.78q4.64-2.46,9.15-5c13.47-7.38,12.4,6.7,11.85,8.53-1.17,3.9-4.18,6.42-9.48,7.92l2.4,8.4c.72,2.47,1.25,4.26,3.83,2.88l.95-.53.22.78q-5.25,2.95-10.68,5.82l-.22-.78,1-.52c2.6-1.46,2.1-3.25,1.41-5.73l-5.33-18.65c-.75-2.55-1.24-4.24-3.88-2.9l-1,.52M608,340.33c3.76-15.6,5.52-23.8,5.52-23.81s.14-4.64-4.13-2l-.24.15-.23-.79q4.83-3.13,9.44-6.32l.22.78c-2.64,2-2.89,2.81-1.84,6.58L622,333.32c1.11,3.76,1.68,4.07,4.39,2.32l.22.78q-4.61,3.19-9.44,6.32l-.22-.78c2.91-2,3-3,2-6.57l-4.74-16.58c-.8,3.62-2.68,12.08-4.85,21.1a16.32,16.32,0,0,0-.66,2.75c-.06,1.35.26,4.24,4.42,1.79l.22.78q-4.9,3.09-10,6.13l-.22-.79c2.9-1.85,3.18-2.7,2.13-6.49l-5.26-18.38c-1.1-3.73-1.71-4-4.67-2.4l-.22-.79q5.1-3,10-6.13l.22.78c-3,2-3,3-2,6.52L608,340.33m24-16.15c2.93-15.53,4.31-24.13,4.31-24.14s-.16-4.34-3.38-2.17c-.21.14-.41.29-.62.45l-.22-.78q4.24-3.27,8.24-6.6l.22.78c-2.41,2.14-2.43,3-1.41,6.65l5.26,18.38c1,3.57,1.5,4.15,4,2.24l.22.78q-4,3.32-8.24,6.6l-.22-.78c2.44-2,2.65-2.88,1.59-6.68L637,302.32c-.67,4-2.05,12.25-3.77,21.39a18,18,0,0,0-.53,2.79c0,1.35.35,4.23,4,1.69l.22.78q-4.33,3.24-8.89,6.43l-.22-.78c2.59-1.94,2.82-2.8,1.77-6.6l-5.26-18.38c-1.1-3.73-1.66-4-4.31-2.3l-.22-.78q4.56-3.19,8.89-6.43l.22.78c-2.49,2-2.71,2.86-1.66,6.62L632,324.18m38.28-27q1.34-1.49,2.61-3a3.23,3.23,0,0,0,.62-1c0-1,0-1-.76-3.79l-5.25-18.35c-1-3.55-1.38-3.91-2.72-2.76l-.22-.78q2.48-2.85,4.69-5.66l.22.79c-1.38,2-1.09,3.28-.23,6.32l5.25,18.35c.88,3,1.28,4.44,2.8,2.58l.22.78a180.34,180.34,0,0,1-20.48,21.7l-.22-.78c1.86-2,1.95-2.64.87-6.46l-5.25-18.35c-1.07-3.67-1.52-4-3.42-2.46l-.23-.78q3.25-3,6.22-5.88l.22.78c-1.36,1.73-1.55,2.46-.5,6.18L660,303c.85,2.95,1,3,1.39,3.17a3.2,3.2,0,0,0,1-.75q1.52-1.48,3-3c1.45-1.52,1.45-1.52.4-5.2l-5.25-18.35c-1-3.55-1.39-3.88-2.94-2.73l-.22-.78q2.74-2.79,5.24-5.55l.22.79c-1.18,1.72-1.33,2.44-.29,6.15l5.25,18.35c1.07,3.69,1.07,3.69,2.54,2.08m23.36-41c.32-2.1-1.68-9.39-3.75-16.68l-1.73-6.05c-.9-3.12-1-3.21-1.3-3.38-.25.24-.27.26-.44.84l-.22-.79a51.47,51.47,0,0,0,1.63-10.37l.22.79c0,1.81.09,2.57,1.15,6.26l5.26,18.38c.91,3.15,1,3.22,1.23,3.4a1.55,1.55,0,0,0,.17-.76l.22.78a49.18,49.18,0,0,1-.59,5.47l-.22-.78c.22-1.78.05-2.58-1-6.3l-6.3-22q-.25,2-.67,4l2.31,8.08c2.7,9.47,6.05,21.25,4.52,23.59l-.22,0c-.83-.8-1.29-3.54-1-4.41l.2-.06.37.21c.06-.05.16-.12.17-.19m-535,131.72a3,3,0,0,0,.79.82c.5-.45.15-2.26-.43-5.26-.71-3.68-.74-4-.39-4.41,1.17-.12,3,3.66,2.68,5.1l-.19.05c-.81-.75-.91-2-1.81-2.67-.09.29-.12.38.43,3.19.85,4.36.69,5.11.47,5.46.31.53.78,1.33,3.13,7.11,4.16,10.21,4.73,11,5.72,12l.23.79q-1.3-1.19-2.49-2.41c-7-17.24-7-17.24-7.66-18.09l2.47,8.63c1.11,3.84,1.4,4.56,2.44,5.89l.22.78a48.41,48.41,0,0,1-3.27-4.35l-.22-.79a4.14,4.14,0,0,0,.42.51l.18-.12a24.28,24.28,0,0,0-.85-3.36l-5.26-18.38c-1.07-3.73-1.33-4.39-2.3-5.93l-.22-.78a48.23,48.23,0,0,0,3.27,4.35l.22.79c-.45-.49-.45-.49-.7-.48,0,.29,0,.54.8,3.49l2.3,8M677.11,269.73c1.48-2.15,1.79-4.19.7-12-.57-4.11-.78-5.65-.25-7.8.43-1.76,1.62-3.49,2.25-.37.1.49.53,2.95-.81,3-.63,0-1,0-.89,1.65.27,3.85,1.27,7.64,1.09,11.54a14.17,14.17,0,0,1-.24,2.23c.58-.25,1.38.17,3.56,3.06,3.59,4.74,4.05,5.09,5,3.69l.22.79q-1,1.82-2.11,3.66c-6.59-9.64-7.49-8.41-8-7.68l2.47,8.63c1,3.52,1.4,4.16,2.71,2.35l.22.78q-2.08,3.11-4.51,6.27l-.22-.78c1.42-2,1.34-2.89.31-6.55l-5.26-18.38c-1-3.55-1.36-4.09-2.85-2.34l-.22-.78q2.42-3.16,4.51-6.27l.22.78c-1.21,2-1.23,2.79-.17,6.55l2.3,8m-518.85,126a41.34,41.34,0,0,1-1.87-4.37l-.23-.78c.05.13.12.3.18.43a36.68,36.68,0,0,0-1.22-4.32l-1.44-4.83q-.5-1.36-.89-2.75l-4.17-14.57q-.63-2.21-1.25-4.42l.09.3c.94,3.22,9.22,31.56,10.57,34.53l.22.79m34.82,29-.22-.78c1.1.12,1.44.16,1.25-3.86-.27-5.78-.56-12.4-.84-21.55l.46.16c15.3,30.72,15.3,30.72,17.79,31.69l.23.79q-3.79-1-7.33-2.19l-.22-.78c2.12.53,1.69-.9-.06-4.3l-2.28-4.5q-3.49-1.13-6.75-2.37c.29,7.43.3,7.72,2.92,9l.23.78q-2.66-1-5.17-2.08M543.88,350.6c.36-.2,1.21-.67,1.11-2.8l.7-.32,3.43,9.56-.61.28c-7.11-10.6-16.81-2.6-18.07,4.25-1.93,10.47,5.46,25.05,17,16.88,2.46-1.74,3.79-4,5.3-8.91l.73.14c-3.19,15.92-18.72,17.27-24.78,8.38a18.56,18.56,0,0,1-.48-19,17.84,17.84,0,0,1,6.67-6.61,13.47,13.47,0,0,1,7.94-1.75,2.7,2.7,0,0,0,1.11-.08m147.61-81.75c-1.73,3.72-4.71,0-6.64-5.36-4.64-13-3.42-27.93,0-26.32,4,1.9,9.57,24.92,6.68,31.68m4.63-20.94-.23-.79c-.08-1.3-.1-1.7-1.4-7-1.72-7-3.83-15.6-7.06-28.08l0-.3c2.43,7.59,4.66,15.24,7.06,22.84l0-.2.22.78a40.52,40.52,0,0,1,1,4.61l-.22-.79a46.11,46.11,0,0,0-1.49-5.57L692.86,230a42.12,42.12,0,0,1,.48,4.67c2.17,8.73,2.17,8.73,2.43,9.15a1,1,0,0,0,.09-.56l.22.79q.1,1.92,0,3.89m-66.84,46.91c1.28-1,1.85-2.54,1.92-5,.06-2,.11-3.81,1.15-4.18.88-.32,1.76,1,1.57,3.21-.33,3.9-3.42,6.17-4.74,7.14-2.65,2-4.66,2.2-6,.74s-.84-4.35.48-4.32c.17,0,.64,0,2,1.62.54.65,1.79,2.16,3.62.77m68.16-49.9L683.5,196.15c6.45,22.56-6.69,50.87-41.65,81.26C560.79,347.88,392.65,403.27,267,400.92c-71.46-1.34-114-21.08-122.52-50.82l13.95,48.76c8.51,29.74,51.06,49.48,122.52,50.82,125.64,2.36,293.77-53,374.83-123.5,35-30.4,48.11-58.71,41.65-81.26"/><path class="cls-4" d="M152.35,377.57,150,369.35l-.82-2.87q2,6.81,4,13.6-.45-1.25-.81-2.52m5.92,18.2L158,395c-1.42-3.11-10.48-34.22-10.57-34.53l-.09-.3q.62,2.21,1.25,4.42l1.46,5.09.73,2.54,1.46,5.09.53,1.85q.4,1.39.9,2.75l1.44,4.83c1,3.34,1.1,3.7,1.21,4.18l-.11-.14.17.64a41.42,41.42,0,0,0,1.87,4.37"/><path class="cls-4" d="M159.43,379.43c-.4-.38-.47-.38-.73-.4-.41.4-.35.81.35,4.42.57,2.92.88,4.53.51,5.24-.26-.09-.31-.1-.87-.81l-2.3-8c-.84-2.95-.82-3.2-.81-3.49.26,0,.26,0,.7.48l-.22-.79a48.1,48.1,0,0,1-3.27-4.35l.22.79c1,1.53,1.23,2.2,2.3,5.93l5.26,18.38c.85,3,.84,3.21.83,3.5-.27-.07-.27-.07-.59-.53l.22.78a48.42,48.42,0,0,0,3.27,4.35l-.22-.79c-1-1.33-1.34-2-2.44-5.89l-2.47-8.64c.66.88.66.88,7.65,18.09q1.19,1.22,2.49,2.41l-.22-.78c-1.13-1.18-1.83-2.71-3.7-7.13-1.67-4-3.62-7.79-5.07-11.84,0,0-1-8.16-1-8.68l.2,0c.62.85.76,2,1.75,2.61.52-.59-.63-3.64-1.8-4.81"/><path class="cls-4" d="M170.11,399.84a11.59,11.59,0,0,1-1.49-1.47l-3.43-12c3.63.62,7,12.9,5.64,13.66-.26.15-.59-.09-.72-.18m-4.6-14.89q-2.1-1.6-4-3.28l.22.78.4.35c1.14,1.08,1.59,2.66,2.34,5.27l5.33,18.64c.87,3.07.81,3.2.64,3.54-.23.05-.23.05-.52-.17l-.4-.35.22.78q2.2,2,4.7,3.82l-.22-.78-.45-.33c-1.21-1-1.67-2.59-2.43-5.24l-2.4-8.41c2.67,3.07,4.16,3.46,4.3,1.11.12-1.9-1.6-11-7.77-15.74"/><path class="cls-4" d="M182.53,394.92a97,97,0,0,1-11-5.82l.23.79.46.28c1.45,1,1.82,2.25,2.64,5.08L180.25,414c.71,2.5,1.18,4.16-.15,3.46l-.06,0-.46-.28.22.78a96.81,96.81,0,0,0,11,5.82q-.37-3.31-.73-6.63l-.46-.2c0,4.93-.93,4.48-2.8,3.57q-1.24-.62-2.44-1.26a2.75,2.75,0,0,1-.86-.66,9.69,9.69,0,0,1-1.22-3.21l-2.72-9.52q1.53.85,3.13,1.66c2,1.08,2.51,2.46,3.56,5.46l.43.2-2.88-10.07-.43-.2c1,3.87.21,3.73-1.12,3.08q-1.61-.81-3.14-1.66l-3.26-11.42q1.91,1.05,3.93,2.06c2.17,1.1,2.82,2.23,4.28,6.13l.45.21-2-6.39"/><path class="cls-4" d="M195,415.65q-.19-5.29-.34-10.59,3.16,6.36,6.35,12.7-3.09-1-6-2.11m-1.31-16.9-.46-.16c.24,7.8,1,15.57.88,23.39,0,2.17-.3,2.14-1.29,2l.22.78q2.5,1.07,5.17,2.08l-.23-.78c-2.3-1.14-2.61-2.37-2.75-4.9,0-1.23-.11-2.87-.16-4.11q3.26,1.24,6.75,2.37c4.41,8.74,4.77,9.45,2.33,8.8l.22.79q3.55,1.15,7.33,2.19l-.22-.79c-1.76-.69-2.49-1.58-4.61-5.64-4.57-8.89-8.79-17.23-12.55-24.77-.19-.39-.32-1-.64-1.28"/><path class="cls-4" d="M219.25,406q-8.79-1.65-16.57-3.83l1.7,6.7.54.15c-1.12-4.83.93-4.32,2.43-3.95l2.39.59,6.31,22c.65,2.3,1.16,4.11-.91,3.7l-.69-.18.22.79q4.17,1.07,8.6,2l-.23-.79-.73-.15c-2.18-.56-2.59-1.94-3.39-4.7l-6.3-22,2.91.63c3.4.75,4.6,3.88,5.32,5.75l.59.11L219.25,406"/><path class="cls-4" d="M245.47,409.5q-5.4-.47-10.53-1.1l.22.79c3,.39,3.66,1,4.64,4.37-2.11,5.38-3.61,9.29-6,15.72l-4.76-16.65c-1.06-3.78-.81-4.26,2.07-4l-.22-.78q-5-.69-9.7-1.53l.22.78c2.93.63,3.39,1.39,4.44,5l5.26,18.38c1,3.58.95,4.31-1.9,3.9l.22.78q4.71.84,9.7,1.53l-.22-.79c-3.29-.57-3.54-1.37-4.45-4.34,1.82-5,3.38-9.2,5.94-15.75l4.74,16.58c1.05,3.78.76,4.31-2.24,4l.22.78q5.13.63,10.53,1.1l-.23-.79c-3.11-.37-3.74-1-4.85-4.78l-5.26-18.38c-1-3.75-.74-4.28,2.31-4.12l-.22-.78"/><path class="cls-4" d="M266.69,437.74a20.3,20.3,0,0,1-4.58-.79l-3.39-11.84c.06,0,6.5-.86,10.68,2.52,2.09,1.68,4.2,5.56,2.55,8.17-.89,1.4-2.66,2.06-5.27,1.94m-4.8-14.1a17.74,17.74,0,0,1-3.72-.49L255,412.06c.05,0,5.42-1.46,9.68,2,3,2.43,3.73,6,2.64,7.93-.75,1.32-2.37,1.83-5.43,1.69m-3.62-13.27q-5.7-.28-11.14-.72l.22.79.94.08c2.72.26,3.24,2.05,4,4.52l5.33,18.65c.64,2.29,1.2,4.27-1.49,4.11l-.94-.07.22.78q5.93.48,12.18.77c16,.63,7.24-11.2,7.13-11.32a11.4,11.4,0,0,0-6-3.19c6-2.25,3.36-10-2.9-12.87a19.24,19.24,0,0,0-7.56-1.52"/><path class="cls-4" d="M303.74,410.07q-6.2.35-12.3.54l.22.78,1,0c3.1,0,3.56,1.58,4.32,4.21l2.37,8.28q-6.67.26-13.22.33l-2.37-8.28c-.73-2.57-1.21-4.26,1.81-4.36l1,0-.22-.78q-6.09.12-12.06.07l.23.79h1c3,.11,3.48,1.7,4.24,4.32l5.33,18.65c.7,2.48,1.2,4.27-1.77,4.31h-1l.23.78q6,0,12.06-.07l-.23-.78-1,0c-3,0-3.51-1.63-4.28-4.27l-2.52-8.8q6.54-.07,13.22-.33l2.52,8.8c.67,2.39,1.19,4.27-1.85,4.43l-1,0,.22.78q6.1-.19,12.3-.54l-.23-.79-1,.06c-3.12.07-3.58-1.52-4.35-4.16l-5.33-18.65c-.75-2.66-1.21-4.26,1.88-4.48l1-.06-.22-.78"/><path class="cls-4" d="M325.07,436.58a21,21,0,0,1-3-.06l-3.55-12.4c2.76-.78,7-.43,9.34,1.5s3.37,5.77,2.13,8a6.12,6.12,0,0,1-4.88,2.95M318.48,409q-6.35.54-12.61.92l.22.78c3.68-.12,4.4.43,5.5,4.18l5.26,18.38c1,3.78.66,4.4-3,4.72l.23.78q6.16-.37,12.41-.9c13.35-1.31,8.39-11.28,5.64-13.49-3.07-2.46-6.36-2.65-13-2.14l-1.16.09-2.22-7.75c-1-3.61-.87-4.36,3-4.79l-.22-.78m24.75-2.65q-6.42.83-12.79,1.5l.23.78.67-.07c3.58-.35,4,1.17,4.82,3.92l5.33,18.64c.72,2.57,1.2,4.26-2.15,4.69l-.88.09.23.79q6.36-.68,12.79-1.5l-.22-.79-.65.08c-3,.35-3.81-.27-4.87-3.87L340.4,412c-.73-2.58-1.2-4.28,2.4-4.77l.65-.08-.22-.78"/><path class="cls-4" d="M376.44,401.22q-5.42,1-10.81,1.88l.22.78a8.1,8.1,0,0,1,2.2-.16l1,.48.5.74c.06,1.18.06,1.18-.64,2.68l-3.55,7.4c-7.72-6.92-7.72-6.92-8.17-7.73-.29-.52-.64-1.81,2.5-2.42l-.23-.78q-7,1.09-14,2l.22.78c3.71-.35,5.78,1.09,9.63,4.45q4.15,3.71,8.32,7.42c-7.07,14.62-7.07,14.62-10.73,15.49l.23.79q5.34-.7,10.71-1.5l-.23-.78c-1.14.13-2.86.31-3.38-1.21,0-1,0-1,.68-2.72l4.14-8.72c3,2.74,6.41,5.1,9.07,8.25l.49.95-.08.87a3.08,3.08,0,0,1-2.49,1.26l.23.79q6.53-1.06,13.09-2.26l-.22-.79c-2.68.32-3.92-.1-9.07-4.65q-4.61-4.08-9.2-8.17c6.41-13.53,6.41-13.53,9.77-14.34l-.22-.78"/><path class="cls-4" d="M422.76,391.17q-6.62,1.67-13.25,3.21l.23.78c3.78-.85,4.62-.41,5.61,2.91q-4.63,10.2-9.3,20.38l-4.76-16.65c-1-3.62-.85-4.41,3.17-5.43l-.22-.78q-6.61,1.48-13.23,2.83l.23.78c3.86-.68,4.61-.22,5.72,3.53l5.26,18.38c1,3.78.63,4.49-3.17,5.37l.22.78q6.61-1.35,13.23-2.83l-.23-.78c-4.46.87-4.71,0-5.55-2.88q4.67-10.19,9.29-20.41l4.74,16.58c1,3.78.63,4.5-3.21,5.5l.23.78q6.63-1.54,13.25-3.2l-.22-.79c-3.85.86-4.6.42-5.71-3.35l-5.26-18.38c-1-3.76-.62-4.49,3.16-5.55l-.22-.78"/><path class="cls-4" d="M456.3,381.89q-6.46,2-13,3.79l.23.78,1.07-.3c3.28-.83,3.72.67,4.5,3.38l2.37,8.28q-7,2-14.13,3.93L435,393.48c-.7-2.48-1.2-4.27,2-5.2l1.1-.3-.22-.79q-6.52,1.79-13.07,3.46l.22.78,1.07-.27c3.3-.75,3.76.84,4.52,3.46L436,413.26c.72,2.58,1.19,4.28-2.05,5.17l-1.07.27.22.79q6.55-1.67,13.07-3.46l-.22-.79-1.11.3c-3.29.79-3.75-.8-4.52-3.43l-2.52-8.8q7.08-1.9,14.13-3.93l2.52,8.8c.69,2.48,1.19,4.28-2,5.25l-1.07.3.22.79q6.51-1.84,13-3.79l-.23-.79-1.09.33c-3.26.87-3.72-.72-4.49-3.35l-5.33-18.65c-.74-2.63-1.19-4.22,2-5.29l1.09-.33-.22-.78"/><path class="cls-4" d="M471.78,406.8c3.37-7.37,1.75-15.75-1.11-27.7q4.49-1.45,8.95-3l6.29,22c1,3.73.81,3.81-3,5.1q-5.52,1.83-11.08,3.57m15.83-35.14q-12.16,4.28-24.59,8.16l.23.78c3.31-.94,5.13-1.46,6.47,3.59.66,2.49,3.78,15.23.26,21.78a7.16,7.16,0,0,1-3.7,3.39l2.6,9.09.75-.23c-.42-3.9.59-9.05,7.83-11.51q3.83-1.23,7.64-2.51c2.82-.92,8.08-2.63,12.21,4.95l.74-.26-2.6-9.09c-3.91,1.32-4.14,1.12-6-5.42l-4.57-16c-1-3.77-.65-4.54,3-5.94l-.22-.78"/><path class="cls-4" d="M519.58,359.55q-4.44,1.81-8.95,3.57l.22.79c3.63-.84,3.74.83,3.15,6.22q-.7,6.44-1.42,12.87c-15-13.8-15-13.8-10.59-15.7l-.23-.78q-5.88,2.21-11.84,4.32l.23.79c2-.37,3.44-.15,5.88,2.11l15.84,14.48c-1.35,5-2.7,5.19-4.19,4.95-3.74-.62-4.2,1.86-3.75,2.9.66,1.5,3.13,1.42,4.95.41,4.13-2.29,4.77-7.45,5.66-14.6,2.25-19.8,2.25-19.8,5.25-21.54l-.22-.78"/><path class="cls-4" d="M545.69,347.47l-.71.32c.07,2-.64,3-2.11,2.89-9.94-.89-18.49,9.18-16.95,20,2.12,14.77,16.38,15.76,23.46,8a18.65,18.65,0,0,0,4-8.92l-.73-.14c-4.47,14.6-16.1,12.84-19.92,5.8-7.3-13.45,1.76-25.45,10.34-22.76,2.79.87,4.68,3.69,5.39,4.75l.61-.28-1.77-4.94-1.66-4.62"/><path class="cls-4" d="M571.81,335.44q-10.39,5.44-21.34,10.59l1.63,6.91.76-.36c-1-5.11,1.78-6.48,3.83-7.48l3.16-1.54,6.3,22c.68,2.43,1.17,4.18-1.6,5.59l-.93.45.22.78q5.61-2.71,11.08-5.49l-.22-.78-.88.44c-2.75,1.34-3.23-.32-4-2.83l-6.31-22,3.64-1.84c3.8-1.89,5.11.22,6.13,2.55l.72-.38-1.67-5-.55-1.65"/><path class="cls-4" d="M588.31,343.32a14.9,14.9,0,0,1-3.08,1.22l-3.43-12c6.87-6.4,9.89,1.23,9.69,5,0,.42-.3,4.11-3.18,5.76m-5.11-14q-4.51,2.51-9.15,5l.22.78,1-.52c2.64-1.34,3.13.35,3.88,2.9l5.33,18.65c.69,2.48,1.2,4.28-1.41,5.74l-1,.52.22.78q5.43-2.87,10.68-5.82l-.22-.78-.95.53c-2.58,1.38-3.08-.31-3.83-2.88l-2.4-8.4c13.88-4,10.32-15.75,6.69-17.85-2.39-1.38-4.68-1-9.06,1.39"/><path class="cls-4" d="M618.33,307.57q-4.61,3.19-9.44,6.32l.22.79c2.77-1.76,3.38-1.5,4.37,1.84-1.74,7.83-3.14,13.95-5.52,23.81l-4.76-16.65c-1-3.57-.93-4.52,2-6.52l-.23-.78q-4.89,3.09-10,6.13l.22.79c3-1.64,3.57-1.33,4.67,2.4l5.26,18.38c1.05,3.79.78,4.64-2.13,6.49l.22.78q5.1-3,10-6.12l-.22-.79c-3.33,2-3.58,1.09-4.42-1.79,2.24-9.35,3.53-14.92,5.51-23.85l4.74,16.58c1,3.6.94,4.56-2,6.57l.22.78q4.83-3.13,9.44-6.32l-.23-.79c-2.68,1.73-3.29,1.4-4.38-2.32l-5.26-18.38c-1-3.76-.81-4.63,1.84-6.58l-.22-.78"/><path class="cls-4" d="M640.34,290.92q-4,3.32-8.24,6.6l.22.78c2.45-1.85,3-1.61,4,1.73C635,308,633.9,314.18,632,324.17l-4.76-16.65c-1-3.76-.83-4.63,1.66-6.62l-.22-.78q-4.33,3.24-8.89,6.43l.22.78c2.65-1.73,3.22-1.43,4.31,2.3L629.58,328c1.06,3.8.83,4.66-1.76,6.6l.22.78q4.56-3.19,8.89-6.43l-.22-.78c-3,2-3.21,1.17-4-1.69,1.61-8.55,2.61-14.07,4.3-24.18l4.74,16.58c1.06,3.8.85,4.67-1.59,6.68l.22.78q4.25-3.27,8.24-6.6l-.22-.78c-2.46,1.91-2.91,1.32-4-2.24l-5.26-18.38c-1-3.62-1-4.51,1.41-6.65l-.22-.79m-8.21-5.15c-.72.6-.85,1.45-.93,4.05-.12,4.2-2,5.23-2.82,5.47-2.48.75-4.16-4.72-5.62-2.27-.82,1.38-.29,4.33,2.3,4.63,2.26.26,6-2.93,7.35-4.76,1.88-2.62,1.82-5.75,1-6.85-.38-.48-.84-.58-1.23-.28"/><path class="cls-4" d="M669.26,261.9q-2.21,2.81-4.69,5.66l.22.78c1.34-1.12,1.7-.75,2.72,2.76l5.25,18.35c.41,1.45.71,2.51.78,2.93,0,1.1,0,1.1-.64,1.84q-1.27,1.48-2.62,3c-.78.84-.92.89-1.28,1-.27-.18-.44-.29-1.26-3.12l-5.25-18.35c-1-3.53-1-4.39.29-6.15l-.22-.79q-2.49,2.76-5.24,5.55l.23.79c1.55-1.15,1.9-.81,2.94,2.73l5.25,18.35c1,3.7,1,3.7-.41,5.2q-1.45,1.48-3,3c-1.27,1.2-1.32,1.25-2.38-2.41l-5.25-18.35c-1-3.53-.92-4.4.5-6.18l-.22-.78q-3,2.93-6.22,5.88l.22.78c1.93-1.51,2.35-1.21,3.42,2.46l5.25,18.35c1,3.6,1,4.48-.87,6.46l.22.79a180.42,180.42,0,0,0,20.48-21.7l-.22-.78c-1.53,1.86-1.9.56-2.81-2.57L669.26,269c-.81-2.86-1.22-4.29.23-6.32l-.22-.79"/><path class="cls-4" d="M678.14,248.45c-3.78,6.93,3.76,14.4-1,21.28l-2.3-8c-1.06-3.75-1-4.61.17-6.55l-.22-.79q-2.09,3.11-4.51,6.27l.22.78c1.49-1.75,1.82-1.21,2.85,2.34l5.26,18.38c1,3.66,1.11,4.55-.31,6.55l.22.79q2.42-3.16,4.51-6.27l-.22-.78c-1.28,1.69-1.63,1.39-2.71-2.35l-2.47-8.64c.54-.72,1.46-1.93,8,7.68q1.12-1.84,2.11-3.66l-.22-.79c-.94,1.4-1.41,1.05-5-3.69-2.18-2.89-3-3.31-3.56-3.06a15.84,15.84,0,0,0,.25-3.31c0-3.42-.75-6.76-1.08-10.14-.19-1.94.22-1.95.73-2s1.13,0,1.07-2c0-1.09-.54-3-1.24-2.69a1.66,1.66,0,0,0-.56.63"/><path class="cls-4" d="M691,267.33c-1.34,2.87-3.39-1.74-4.49-4.74-5-13.57-4.49-24.68-2-23.29s8.67,22.83,6.44,28m-8.12-28.87c-3.95,10,2.76,33.47,7.31,31.88,4.84-1.68.13-30.51-5.42-33.17-.74-.35-1.37.08-1.89,1.28"/><path class="cls-4" d="M687.84,219.75a51.47,51.47,0,0,1-1.63,10.37l.22.78c.2-.66.24-.68.48-.84.25.24.4.39,1.26,3.38l1.73,6.05c1.66,5.84,4.45,15.62,3.63,16.86a1.63,1.63,0,0,0-.61-.17c-.3.83.15,3.62,1,4.44l.22,0c1.53-2.34-1.82-14.12-4.52-23.59l-2.31-8.08q.42-2,.67-4l6.3,22c1,3.43,1.25,4.5,1,6.3l.22.78a48.91,48.91,0,0,0,.59-5.47l-.23-.79a1.78,1.78,0,0,1-.15.74c-.26-.14-.33-.18-1.25-3.37l-5.26-18.38c-1.05-3.69-1.2-4.51-1.15-6.26l-.22-.79"/><path class="cls-4" d="M692.88,232.79q-1.73-6.9-3.51-13.8,1.56,4.82,3.08,9.65.31,2,.42,4.14m-5.47-21.06,0,.3c8.26,32,8.4,34.15,8.46,35.09l.22.78q.07-2,0-3.89l-.22-.79c0,.14,0,.33,0,.47l-.17-.07a24.09,24.09,0,0,1-1-3.61l-1.33-5.38a42.42,42.42,0,0,0-.48-4.67c1.78,5.72,2.26,7.26,2.56,9l.22.78a40.49,40.49,0,0,0-1-4.61l-.22-.78.05.19a26.45,26.45,0,0,1-.9-2.92c-.84-2.81-3.08-10.28-6.17-19.91"/></g><g class="cls-5"><path class="cls-3" d="M538.8,168.6A21,21,0,0,0,535,169l3.39,11.84c14.13,2,12.26-5.78,10-8.67-2-2.57-5.22-3.77-9.61-3.58m57.21.68a6.85,6.85,0,0,0-1.67,0l3.55,12.4c9.84,2.45,6.56-6.28,5.54-8a9.53,9.53,0,0,0-7.42-4.42M315.09,210.89q-.84,6.86-1.66,13.73,4.9-2,9.88-4l-8.21-9.72m131.18-39.4-2.08,12.79q5.34-1.12,10.67-2.15l-8.58-10.64M149.88,323.28a8,8,0,0,0-.58,1.79l3.43,12c.94-1,2-2.19,1.35-7.13-.35-2.61-1.78-7.46-3.28-7.45-.34,0-.65.27-.92.78M386.5,181.59a13.7,13.7,0,0,0-2.88,1.29l3.43,12c3.78-.48,6.27-.79,7.72-4.1,1.24-2.84-.19-6.55-2.31-8.23a6.47,6.47,0,0,0-6-1M682.58,191q-1.22-1.52-2.59-3c3.34,12.09,5.36,19.73,5.38,23.7q1.82,1.76,3.41,3.61a3.27,3.27,0,0,0,.76.75c.1-.21.13-.27-.67-3.09l-6.29-22M535.05,155.26a12.9,12.9,0,0,0-3.79.7L534.43,167c14.19,1.49,10.91-6.34,9.34-8.36-1.92-2.46-4.85-3.62-8.72-3.44m-277,76.3c-10.45,5.84-3.3,25.94,3,27.79,7.13,2.09,15.21-9.07,7.28-23.72-1.82-3.37-5.09-6.81-10.28-4.07M143.59,361.78l0,.09-.23-.8,0-.08.22.78m-1.39-7.43a64,64,0,0,0,1.48,6.36c4.63,17.42,8,29.43,8.05,29.53l-.76-2.66q-.71-2.49-1.4-5t-1.45-5l-2.29-8q1.12,3.87,2.28,7.73c-1.79-6.47-2.7-13.19-5.37-19.41v.23l-.22-.78q-.35-1.88-.54-3.8l.23.78m2.57-8.15-1.91-6.92a63.48,63.48,0,0,1,3.45-11.09l2,6.61-.16.39c-.46-1.36-1.41-4.21-2.19-2.89a3.38,3.38,0,0,0-.2.45q-.35,1-.66,1.92l6.3,22c.87,3,1,3.1,1.31,3.25.25-.15.25-.15.39-.49l.17-.47.22.78q-1.05,2.91-1.78,5.75l-.22-.78.12-.47c.35-1.57-.11-3.19-.81-5.65l-6.3-22q-.24.81-.45,1.62c-.27,1.06-.6,2.39.79,7.6l-.08.37m2.29-18.45-.22-.78q1.1-2.56,2.45-5.17c2.81-5.31,4.83.18,5.38,2,1.15,3.79,2.12,11.12-1.58,14.5l2.4,8.41c.74,2.57,1.19,4.13,1.94,2.92l.05-.1.29-.55.22.78q-1.62,3.06-2.91,6.05l-.23-.78.23-.54c.62-1.61.15-3.28-.57-5.79L149.19,330c-.72-2.5-1.2-4.15-1.86-2.93l0,.09-.24.54m15.3,4.7c0-8,.83-16,.22-24,0,0-.59-4-2.25-2.45a6,6,0,0,0-.58.67l-.22-.78q2.46-3.22,5.27-6.49l.22.78c-1.57,2-1.64,2.83-.57,6.63l5.26,18.38c1.1,3.76,1.47,4,3.11,2.26l.23.79q-2.81,3.27-5.27,6.49l-.22-.78c1.43-2,1.48-2.88.43-6.63l-4.74-16.58c-.35,15.5-.21,24-.21,24s.55,3.79,1.93,2.51a7.25,7.25,0,0,0,.69-.78l.22.78q-2.31,3.19-4.29,6.32l-.22-.78c1.14-2,1.15-2.81.09-6.56l-5.26-18.38c-1-3.54-1.37-4.13-2.64-2.34l-.22-.79q2-3.13,4.29-6.33l.22.78c-1.29,2-1.32,2.78-.24,6.59l4.76,16.65m13.54-16.59c.23-3.06.92-12.37,1.87-21.52a22.17,22.17,0,0,0,.29-2.77s-.35-4.51-3.12-2l-.33.32-.22-.78q3.35-3.34,7.07-6.72l.22.78c-2.19,2.13-2.18,3-1.16,6.69l5.26,18.38c1,3.59,1.45,4.13,3.7,2.21l.22.79q-3.71,3.38-7.07,6.72l-.22-.78c2-2.09,2.1-3,1.05-6.73l-4.74-16.58c-1.6,15.71-2.14,24.29-2.14,24.32s.35,4,2.49,2.29c.25-.21.49-.43.73-.65l.22.78q-3.21,3.31-6.06,6.58l-.22-.78c1.65-2,1.74-2.89.68-6.65l-5.26-18.38c-1-3.52-1.45-4.14-3.23-2.25l-.22-.79q2.86-3.27,6.06-6.58l.22.78c-1.8,2-1.91,2.87-.84,6.67l4.76,16.65m39.83-27.44q2.09-1.5,4.23-3a3.83,3.83,0,0,0,1.1-1c.2-1,.2-1-.58-3.79l-5.25-18.35c-1-3.53-1.55-3.91-3.72-2.75l-.22-.78q4.1-2.86,8.38-5.67l.22.78c-2.76,2-2.36,3.46-1.55,6.32l5.25,18.35c.9,3.11,1.27,4.4,4.15,2.57l.22.78a330.6,330.6,0,0,0-29.69,21.85L198,303c2.12-2.09,2.22-2.7,1.16-6.49L194,278.14c-1.07-3.66-1.59-4-3.71-2.44l-.22-.78q3.6-3,7.39-5.95l.23.79c-1.73,1.72-2,2.45-1,6.19l5.25,18.35c1.06,3.67,1.12,3.62,2.7,2.4q1.92-1.5,3.89-3c2-1.55,2-1.55,1-5.21l-5.25-18.35c-1-3.56-1.48-3.89-3.57-2.72l-.22-.78q3.72-2.82,7.6-5.59l.22.78c-2,1.8-2.1,2.61-1.1,6.16l5.25,18.35c1.06,3.67,1.06,3.67,3.31,2.07m67.48-40.77c3.82-2.09,1.15-11.56-.27-16.64l-1.73-6.05c-1.11-3.76-1.79-4.1-5.18-2.58l-.22-.79q10.8-5.22,22.11-10.14l.22.78c-3.62,1.7-3.75,2.63-2.75,6.22l5.26,18.38c1,3.54,1.61,4.16,5.3,2.68l.22.78q-6,2.62-11.92,5.34l-.22-.78c3.58-1.77,3.7-2.63,2.69-6.26l-6.3-22q-4.28,1.93-8.49,3.91l2.31,8.08c1.71,6.09,3.35,12.85,2.58,16.82-1,5.36-5.22,7.41-7.09,6.48s-1.27-3.7.38-4.19c1-.31,2.08.5,3.12,0m91.32-63.49-.22-.78q5.61-1.72,11.26-3.35c15.22-4.29,16,6.9,13.82,10.61-1.85,3.17-5.54,4.86-12,5.47l2.4,8.41c.8,2.71,1.41,4.21,4.51,3.37l1.15-.33.22.78q-6.59,1.89-13.14,3.89l-.23-.78,1.14-.35c3.18-1,2.68-2.82,2-5.29l-5.33-18.64c-.78-2.66-1.25-4.27-4.46-3.34l-1.14.35M401,176.57l-.22-.78q11.94-3.18,24-6l1.71,5,.41,1.21-.88.2c-1.86-3.54-3-4.36-7.38-3.32q-4.26,1-8.52,2.11l3.26,11.41q3.41-.86,6.83-1.69c2.37-.6,4.6-1.17,3.65-5.39l.85-.2,2.88,10.08-.85.2c-1.22-2.67-1.89-4.14-6.09-3.15q-3.42.83-6.83,1.7l2.72,9.52a7.77,7.77,0,0,0,.85,2.31c1.1.66,1.1.66,2.61.29l5.28-1.3c3.9-1,5.85-1.44,7.44-7.79l.92-.21q-.3,3.92-.61,7.84-12,2.77-24,6l-.22-.78,1.12-.3c3.29-1,2.82-2.64,2.11-5.16l-5.37-18.77c-.82-2.78-1.23-4.17-4.54-3.35l-1.12.3m61.54-7.31L461,162.43q12.65-2.24,25.17-4l1.72,5.05.57,1.67-.87.12c-.8-1.81-2.14-4.84-7-4.17l-4.36.66,6.3,22c.76,2.59,1.22,4.16,4.48,3.72l1.08-.16.23.78q-6.53,1-13.09,2.06l-.22-.79,1.12-.19c3.21-.59,2.7-2.43,2-4.75l-6.31-22-3.71.61c-2.24.38-5.64,1-4.68,6l-.88.15m41.35,9.62,4.07-8.3,2.69-5.49c.71-1.45,2.12-3.24,2.37-4.84,0-.17.59-4.1-5.57-3.53l-.23-.78q6.53-.66,13-1.17l.23.79c-3.84.41-4,1.28-3,4.8l5.26,18.38c1,3.55,1.64,4.29,5.57,4.1l.23.78q-6.45.5-13,1.17l-.22-.79c3.83-.49,4.21-1.09,3.16-4.88l-4.74-16.58-5.36,11c-1.25,2.57-3.28,4.76-3.76,7.7-.19,1.16,0,3.81,5.5,3.36l.22.78q-6.52.72-13.1,1.6l-.23-.79c3.95-.64,4.11-1.46,3.12-5l-5.26-18.38c-1.05-3.57-1.66-4.3-5.67-3.88l-.22-.78q6.58-.87,13.1-1.59l.23.78c-3.76.52-4.17,1.17-3.13,5l4.76,16.65m18.57-23.47-.22-.78q6.42-.48,12.75-.79c15.49-.69,15.93,9.51,13.59,12.17a6.71,6.71,0,0,1-2.51,1.66c9.7,1.72,10.55,10.35,6.39,13.22-1.27.88-3.06,1.48-8,1.73q-6.91.32-13.94.85l-.22-.78,1.11-.08c3.12-.28,2.62-2.07,1.92-4.54L528,159.42c-.76-2.57-1.25-4.27-4.39-4.1l-1.11.08m47-1.22-.23-.78q5.92.16,11.58.49l.22.79-.93-.05c-2.83-.06-2.38,1.53-1.63,4.17l5.33,18.65c.79,2.72,1.22,4.21,4.1,4.46l.93.05.22.78q-5.65-.33-11.57-.49l-.22-.79,1,0c2.9,0,2.38-1.84,1.71-4.22l-2.52-8.8q-3.57-.13-7.24-.2-2.85-.05-5.72-.07L567,177c.76,2.63,1.22,4.21,4.3,4.34h1l.22.78q-6-.09-12.15,0l-.22-.78h1c3-.09,2.58-1.69,1.84-4.34l-5.33-18.65c-.79-2.73-1.22-4.23-4.31-4.29h-1l-.22-.78q6.13-.08,12.15,0l.22.78h-1c-3,.06-2.55,1.74-1.83,4.29l2.37,8.28q2.87,0,5.72.07,3.67.07,7.24.2l-2.37-8.28c-.77-2.64-1.23-4.23-4.18-4.42l-1,0M591,182.85l-.22-.78c3.37.11,3.47-.59,2.46-4.19L588,159.49c-1.07-3.64-1.57-4.38-5-4.71l-.22-.78q5.63.36,11,.88l.22.79c-3.11-.2-3.42.34-2.37,4.12l2.22,7.75,1,.09c17.34,1.63,14,14,12.66,15.15-1.51,1.28-4.33,1-5.68.93q-5.26-.51-10.8-.86m12.74-26.08-.22-.78q5.07.66,9.87,1.48l.22.78-.51-.09c-2.69-.39-2.24,1.22-1.49,3.88L617,180.69c1,3.54,1.7,4.35,4,4.76l.51.09.22.78q-4.79-.82-9.87-1.49l-.22-.78.7.09c2.64.29,2.19-1.3,1.45-3.95l-5.33-18.64c-.8-2.75-1.24-4.27-4-4.71l-.56-.07M630,171.53c2-6.45,2-6.48,2-7l-.12-.85-.4-.83a3.16,3.16,0,0,0-2.18-1.32l-.22-.78q3.57.89,6.94,1.88l.22.78c-1.83-.38-2.36.71-3.21,3.47q-.93,3.17-1.88,6.33c11.44,16.88,11.44,16.88,13.33,17.61l.23.79q-4.07-1.2-8.42-2.26l-.22-.78a2.17,2.17,0,0,0,1.21.05l.36-.42-.05-.77a12.59,12.59,0,0,0-1.74-3.08q-2.78-4.14-5.59-8.26c-2.53,8-2.53,8-2.55,8.29.18,1.52.62,2.34,2.61,2.88l.22.78q-3.76-.8-7.71-1.5l-.22-.78c2.71.13,3.66-2.72,4-3.79q1.28-3.76,2.51-7.54c-9.84-14-10.64-15.14-13.88-15.87l-.22-.78q5.12.91,9.92,2l.22.78c-3.13-.5-1.2,2.28-.27,3.62q2.54,3.67,5.07,7.36m25.9,17.66c1.79-9,2.48-13.86,2.48-13.87a6.27,6.27,0,0,0-3.4-5l-.22-.78q3.38,1.55,6.46,3.23l.22.78c-1.85-.88-1.81-.2-.81,3.35l5.26,18.38c1,3.54,1.43,4.41,3.35,5.55l.22.78q-3.08-1.68-6.46-3.23l-.22-.78c1.93.8,2.06.39,1-3.38L659,177.6c-.33,2.09-1.11,7-2.15,12.28a7.53,7.53,0,0,0-.32,1.62,5.56,5.56,0,0,0,3.5,4.86l.22.78q-3.49-1.49-7.28-2.85l-.22-.78c2.24.7,2.23.06,1.22-3.53l-5.26-18.38c-1-3.6-1.48-4.45-3.76-5.37l-.22-.79q3.78,1.36,7.28,2.85l.22.79c-2-.77-2.18-.29-1.12,3.45l4.76,16.65m14.42-10.13-.22-.78q2.57,1.85,4.85,3.81l.22.78-.38-.32c-.52-.37-.76-.18-.66.53s.56,2.25.72,2.8l5.33,18.64c.73,2.56,1.22,4.25,2.41,5.3l.38.32.22.78q-2.28-2-4.85-3.81l-.22-.78.42.3c.32.21.32.21.6.19.23-.36.31-.48-.57-3.56l-2.52-8.8q-2.69-2.05-5.73-4l2.51,8.8c.74,2.56,1.22,4.25,2.63,5.21l.46.3.23.79q-2.71-1.8-5.71-3.49l-.22-.79.49.28c1.43.72,1-.85.24-3.46l-5.33-18.64c-.76-2.65-1.22-4.25-2.71-5.18l-.49-.28-.22-.78q3,1.68,5.71,3.49l.22.79-.46-.3c-1.31-.74-.87.84-.36,2.68l.21.74,2.37,8.28q3,1.91,5.73,4l-2.37-8.28c-.74-2.59-1.24-4.3-2.5-5.26l-.42-.3m15.94,40.79-2.6-9.09a1.22,1.22,0,0,0,.57.13c1-1.48-3.36-22.47-6.76-25.92l-.23-.78a52.3,52.3,0,0,1,7,8.22l.22.79a1.58,1.58,0,0,0-.55-.57c-.09.34-.12.45.76,3.52l4.57,16c1.86,6.48,1.94,6.71,3,8.27l2.6,9.09-.19-.27c-2.66-8.45-3.91-10.41-5-11.69q-1.07-1.28-2.25-2.53c-1.43-1.44-1.62-.49-1.62.51a20.34,20.34,0,0,0,.67,4.57l-.26-.23m7.42-1.55c-3.56-13.79-4.06-15.16-4.54-16.48l-.22-.78q.7,1.77,1.24,3.6l.22.79-.05-.17c.16.86.43,1.69.66,2.54,4.88,17.91,4.79,18.55,4.73,18.9-.61-.4-1.84-4.19-2-5.18.21.09.22.09.8,1.59a7.36,7.36,0,0,0,.44,1c0-.23.06-.32-.37-2.17-8-25.14-9.15-27.24-9.52-27.93l-.22-.78a44.4,44.4,0,0,1,2.52,4.36l.23.78c-.06-.11-.15-.26-.22-.37-.15.23-.15.23,2,6.77,1.61,5,2.67,8.25,4.32,13.51M232,260.93c3.48-2.19,4.67-4.23,4.88-12,.11-4.06.15-5.91,2.36-8.09,3.17-3.14,5.67-1.77,5,.81-.75,2.85-4.57.57-5.43,3.25-1.3,4.06.1,8.5-1.72,12.49l-.22.47a10.77,10.77,0,0,1-.74,1.26c1.52-.43,3.7.92,6.49,3.07,6.39,4.92,7.46,5.08,10.12,3.72l.23.78q-3.19,1.81-6.31,3.64c-11.11-9.55-12.67-8.61-14.17-7.7l2.47,8.63c1.1,3.73,1.71,4,4.67,2.36l.23.79q-5.07,3.09-9.94,6.26l-.23-.78c2.82-2,3.06-2.75,2-6.55l-5.26-18.38c-1-3.51-1.57-4.15-4.55-2.34l-.23-.78q4.86-3.16,9.94-6.26l.22.78c-2.9,1.89-3.18,2.75-2.12,6.54l2.3,8m123.86-57.09c4.48-1.54,6.1-3.31,6.87-10.7.39-3.77.58-5.67,3.39-7.35,4.49-2.69,7-.41,5.93,1.76a3.94,3.94,0,0,1-.26.4c-1.68,2.39-5.08-1.18-6.45,1.64-.13.27-.41.85-.7,4.07-.41,4.53-1.5,6.59-2.52,8a9.23,9.23,0,0,1-1,1.09c1.92-.17,4.51,1.46,7.8,4,7.17,5.44,8.64,6.07,12.06,5.15l.23.78q-3.95,1.21-7.87,2.47c-13-10.87-15.12-10.18-17-9.57l2.47,8.63c1.11,3.74,1.85,4.13,5.64,3l.22.79q-6.52,2.17-13,4.45l-.22-.79c3.74-1.44,4.11-2.16,3.06-6l-5.26-18.38c-1.11-3.76-1.85-4.15-5.61-2.93l-.22-.78q6.44-2.28,13-4.45l.23.79c-3.74,1.36-4.14,2.13-3.1,5.92l2.3,8M142.65,344a9.74,9.74,0,0,0-.46-2.84l.06-.34,2.87,9.55-.05.3c-1-2.79-2.23-5.85-2.77-4.69-1,2.28,5.22,27.18,7.13,28.35,1.14-.49-.13-7.9-.74-11.46.74.55,2.26,12.64,1.33,14.37h-.28c-3-3.53-9.65-33-7.45-33.14a1.17,1.17,0,0,0,.36,0v0M266.3,260.17c-12.83,6.4-20.32-8.72-16.44-20.33,4.67-14,18.78-14.79,23.81-4.45,4.3,8.86.86,20.44-7.37,24.78m41.4-20.55-.22-.79c2.06-1.32,2.62-1.67,3.22-7,1-8.62,2.62-22.53,3.27-27.95l.72-.29c17.73,20.92,17.73,20.92,18.42,21.6,1.3,1.27,2.34,2,4.95,1.26l.23.78q-5.8,2.18-11.51,4.45l-.22-.79c3.93-1.73,2.53-3.41.76-5.54l-2.93-3.47q-5.62,2.22-11.15,4.52c-1.17,9.85-1.19,10,3.18,8.6l.23.79q-4.5,1.87-8.93,3.78m129.89-42-.22-.79c2.29-.92,2.9-1.16,3.69-6.1,2-12.23,2-12.23,4.16-26.07l.81-.16c6.38,7.9,12.15,16.29,19.16,23.69a5.22,5.22,0,0,0,5.2,2l.22.79q-6.12,1.07-12.26,2.26l-.23-.78c4-.93,3-2.56.9-5.14l-3.05-3.8q-6,1.16-12,2.43c-1.5,9.18-1.53,9.36,3.24,8.72l.22.78q-4.9,1-9.8,2.13M171.92,286.41c1-1.08,1.39-2.58,1.34-5,0-2-.08-3.62.71-4.15s1.51.59,1.58,2.61c.17,4.88-5.33,11.17-7.84,9-1.46-1.27-1.48-4.63-.36-4.74.16,0,.49,0,1.66,1.6.46.64,1.52,2.14,2.91.73m529.45-42.62L687.42,195c-8.63-30.17-51.78-50.19-124.26-51.55-127.46-2.39-298.1,53.83-380.34,125.32-35.47,30.83-48.79,59.55-42.25,82.43l2.91,10.18,1.46,5.09,2.91,10.18,2.91,10.18,1.46,5.09,2.3,8.06c-6.54-22.88,6.78-51.6,42.25-82.43C279,246.07,449.63,189.85,577.1,192.24c72.48,1.36,115.64,21.38,124.26,51.55"/><path class="cls-4" d="M143.59,361.78l0,.09-.23-.8,0-.08.22.78"/><path class="cls-4" d="M142.2,354.35c.24,1.55.43,2.78,5.64,21.81,1.29,4.7,2.56,9.4,3.89,14.08l-.76-2.66q-1.41-5-2.85-10l-2.29-8q1.12,3.87,2.28,7.73-1.79-6.49-3.55-13a65.78,65.78,0,0,0-1.82-6.42v.23l-.22-.78q-.35-1.88-.54-3.8l.23.78"/><path class="cls-4" d="M142.25,340.82l-.06.34c.62,2.6.47,2.8.34,3-3.59-.92,4.75,29,6.84,32.61a1.28,1.28,0,0,0,.47.55c.26-.15,1.44-1.56-1-14.29l-.17-.13c.61,3.56,1.89,11,.74,11.46-1.45-.88-8.92-26.53-6.95-28.59.34,0,.81,0,2.58,4.93l.05-.3-2.87-9.55"/><path class="cls-4" d="M146.32,328.19a63.48,63.48,0,0,0-3.45,11.09l1.91,6.92.08-.37c-1.4-5.24-1.05-6.61-.79-7.6.14-.54.29-1.08.45-1.62l6.3,22c.7,2.46,1.16,4.09.81,5.65l-.12.47.22.78q.73-2.84,1.79-5.75l-.22-.78-.17.47c-.13.33-.13.33-.35.49-.34-.14-.47-.19-1.36-3.25l-6.31-22q.31-1,.66-1.92c.18-.47.67-1.71,1.65.42.24.53.6,1.61.74,2l.16-.39-2-6.61"/><path class="cls-4" d="M153.73,335.8a4.81,4.81,0,0,1-1,1.28l-3.43-12c.86-3.77,2.1-2.57,2.76-1.51,1.8,2.87,3,9.69,1.67,12.24m-4.45-14q-1.35,2.61-2.45,5.17l.22.78.24-.54c.61-1.22,1.07.19,1.38,1.12.19.57.35,1.14.52,1.72l5.33,18.64c.7,2.46,1.2,4.24.57,5.79l-.24.54.22.78q1.29-3,2.92-6.05l-.22-.78-.29.55c-.79,1.36-1.25-.22-2-2.82l-2.4-8.41c5.45-5,1.22-18.65-1.5-18.8-.71,0-1.47.71-2.3,2.3"/><path class="cls-4" d="M164.78,299.38q-2.81,3.27-5.27,6.49l.23.78c1.54-1.92,1.91-1.38,2.83,1.78-.19,8.13-.27,14.07-.22,24l-4.76-16.65c-1.08-3.81-1-4.61.24-6.59l-.23-.78q-2.31,3.19-4.28,6.32l.22.79c1.27-1.79,1.61-1.2,2.63,2.34l5.26,18.38c1.06,3.75,1,4.55-.09,6.56l.22.78q2-3.13,4.29-6.33l-.22-.78c-1.56,2-1.78,1.18-2.62-1.72,0-7.93,0-14.11.21-24L168,327.3c1.06,3.76,1,4.56-.43,6.63l.22.78q2.46-3.22,5.27-6.49l-.23-.79c-1.64,1.78-2,1.5-3.11-2.26l-5.26-18.38c-1.07-3.81-1-4.68.57-6.63l-.22-.78"/><path class="cls-4" d="M181.43,282.38q-3.71,3.38-7.07,6.72l.22.79c2-2,2.54-1.45,3.46,1.68-.86,8.39-1.4,14.17-2.15,24.29l-4.76-16.65c-1.07-3.8-1-4.68.84-6.67l-.23-.79q-3.21,3.31-6.06,6.58l.22.79c1.79-1.9,2.21-1.27,3.23,2.25l5.26,18.38c1.05,3.76,1,4.63-.68,6.65l.22.79q2.86-3.27,6.06-6.58l-.23-.78c-2.08,2-2.34,1.4-3.22-1.64.59-8,1.11-14.27,2.14-24.32l4.74,16.58c1.06,3.8.94,4.62-1.05,6.73l.22.78q3.36-3.34,7.07-6.72l-.23-.79c-2.25,1.92-2.65,1.38-3.7-2.21l-5.26-18.38c-1-3.66-1-4.56,1.16-6.69l-.22-.78m-7.55-5.07-.05.05c-.55.57-.62,1.5-.57,4,0,.95.08,3.83-1.51,5.2-1.3,1.12-2.27-.24-2.73-.89-1-1.36-1.74-2.29-2.28-1s.23,4.61,2.24,4.63c1.76,0,4.72-3.4,5.6-5.18,1.48-3,1.09-5.91.25-6.76-.42-.42-.74-.29-.94-.1"/><path class="cls-4" d="M219.65,253.09q-4.28,2.81-8.38,5.67l.22.78c2.2-1.14,2.69-.78,3.72,2.76l5.25,18.35a27,27,0,0,1,.75,2.93c-.21,1.1-.21,1.1-1.26,1.85q-2.14,1.48-4.23,3c-1.51,1.06-1.76,1-2.12,1-.21-.27-.48-.6-1.19-3.08L207.16,268c-1-3.56-.84-4.42,1.1-6.16L208,261q-3.89,2.78-7.6,5.59l.23.78c2.1-1.17,2.53-.84,3.57,2.72l5.25,18.35c1,3.67,1,3.67-1,5.22q-2,1.49-3.89,3c-1.58,1.21-1.64,1.26-2.7-2.4l-5.25-18.35c-1-3.56-.86-4.43.95-6.2l-.22-.78q-3.79,3-7.39,5.94l.22.78c2-1.46,2.59-1.41,3.71,2.44l5.25,18.35c1,3.64,1,4.37-1.16,6.49l.22.78A330.6,330.6,0,0,1,228,281.91l-.22-.78c-2.88,1.83-3.26.54-4.15-2.57l-5.25-18.35c-.81-2.87-1.21-4.31,1.55-6.32l-.22-.79"/><path class="cls-4" d="M240.73,239.68c-3.72,2.21-3.79,5-3.9,9.25-.21,7.77-1.4,9.81-4.88,12l-2.3-8c-1.05-3.8-.78-4.65,2.12-6.54l-.23-.79q-5.07,3.1-9.94,6.26l.22.79c3-1.8,3.52-1.17,4.55,2.34l5.26,18.38c1.06,3.8.82,4.6-2,6.55l.22.78q4.86-3.16,9.94-6.26l-.22-.79c-3,1.69-3.57,1.38-4.67-2.35l-2.47-8.64c1.52-.89,3.09-1.81,14.17,7.7q3.12-1.83,6.31-3.64l-.22-.78c-2.65,1.36-3.73,1.19-10.12-3.72-2.8-2.15-5-3.5-6.49-3.07a10.73,10.73,0,0,0,.74-1.26l.22-.47c1.82-4,.42-8.43,1.71-12.49.85-2.67,4.53-.33,5.36-3,.46-1.5-.26-3.08-1.85-2.8a4.94,4.94,0,0,0-1.53.62"/><path class="cls-4" d="M265.83,258.65c-9.82,4.89-15.15-13.68-12.28-21.78,1.93-5.44,10.12-10.79,15.13-.59,3.92,8,4.7,18.38-2.85,22.37M258,229.78c-13.06,7.25-11,28.52.11,31.56s22.64-13.11,15.24-26.61c-2.68-4.9-9-8.29-15.35-5"/><path class="cls-4" d="M297.89,211.45q-11.29,4.91-22.11,10.14l.22.79c3.4-1.52,4.07-1.18,5.18,2.58l1.73,6.05c4.49,16,1.07,17.33-1.38,16.72-2.85-.71-3.44,2.27-2.59,3.5,1.33,1.91,5.06.36,6.77-2.81s2-7.25-1.52-19.87l-2.31-8.08q4.21-2,8.48-3.91l6.31,22c1,3.62.89,4.49-2.69,6.26l.22.79q5.89-2.71,11.92-5.34l-.22-.79c-3.68,1.48-4.25.86-5.3-2.68l-5.26-18.38c-1-3.59-.87-4.52,2.75-6.22l-.22-.78"/><path class="cls-4" d="M313.42,224.62q.82-6.87,1.66-13.73l8.21,9.72q-5,2-9.87,4m1.27-21-.72.29c-1.21,10.13-1.75,20.34-3.62,30.4-.54,2.93-1,3.29-2.87,4.51l.23.79q4.43-1.92,8.93-3.78l-.22-.78c-3.72,1.23-4.23.22-3.82-3.24l.64-5.36q5.53-2.3,11.15-4.52c5.67,6.71,6.13,7.26,2.17,9l.22.78q5.71-2.26,11.51-4.45l-.23-.78c-2.63.79-3.76.29-6.36-2.8l-17-20.05"/><path class="cls-4" d="M368,184.92c-4.67,1.53-4.93,4-5.4,8.59-.77,7.46-2.77,8.93-6.83,10.33l-2.3-8c-1-3.79-.64-4.56,3.1-5.92l-.22-.78q-6.52,2.17-13,4.45l.22.78c3.76-1.22,4.49-.83,5.61,2.93l5.26,18.38c1,3.81.68,4.53-3.06,6l.22.78q6.44-2.28,13-4.45l-.23-.79c-3.8,1.15-4.53.76-5.64-3l-2.47-8.64c1.87-.61,4-1.3,17,9.57q3.93-1.26,7.87-2.47l-.23-.79c-3.42.91-4.89.29-12.06-5.15-3.29-2.49-5.87-4.12-7.8-4a9,9,0,0,0,1-1.08l.3-.42c.81-1.15,1.85-3.4,2.23-7.59.32-3.57.63-4,.85-4.33,1.69-2.42,5.19,1,6.6-1.88a2.08,2.08,0,0,0-2.13-2.87,6.65,6.65,0,0,0-1.89.34"/><path class="cls-4" d="M390.9,194.23a22.87,22.87,0,0,1-3.85.66l-3.43-12c8.89-5,12.4,3.34,11.45,7a6.16,6.16,0,0,1-4.17,4.3M385.56,180q-5.65,1.63-11.26,3.35l.22.79,1.14-.35c3.21-.92,3.68.68,4.46,3.34l5.33,18.64c.69,2.47,1.19,4.26-2,5.29l-1.14.35.22.78q6.55-2,13.15-3.89l-.22-.78-1.15.33c-3.11.84-3.71-.65-4.51-3.37l-2.4-8.4c17.38-1.65,13.25-12.77,10.22-15.2-3.67-2.95-8.15-2-12.07-.89"/><path class="cls-4" d="M424.76,169.83q-12,2.78-24,6l.22.79,1.12-.3c3.31-.83,3.72.57,4.54,3.35l5.37,18.77c.69,2.46,1.19,4.24-2.11,5.16l-1.12.3.22.78q11.94-3.18,24-6l.61-7.84-.92.21c-1.58,6.35-3.54,6.83-7.43,7.79l-5.28,1.3a4.51,4.51,0,0,1-1.79.2c-1-.63-1-.63-1.67-2.8L413.81,188q3.41-.87,6.83-1.7c4.21-1,4.88.48,6.09,3.15l.85-.2-2.88-10.07-.85.2c1,4.22-1.28,4.79-3.65,5.39s-4.55,1.12-6.83,1.7l-3.26-11.42q4.25-1.08,8.52-2.11c4.39-1,5.52-.23,7.38,3.32l.88-.2-2.12-6.24"/><path class="cls-4" d="M444.18,184.28l2.08-12.79c3.24,4,5.73,7.08,8.58,10.64q-5.33,1-10.67,2.15M446,164.52l-.81.16c-4.39,27.51-4.39,27.51-4.6,28.34-.66,2.69-1.17,3-3.25,3.82l.22.78q4.9-1.1,9.8-2.13l-.22-.78c-4,.55-4.58-.5-4.06-3.72l.81-5q6-1.27,12-2.43c5.91,7.35,6.39,8,2.15,8.94l.22.78q6.14-1.19,12.26-2.26l-.23-.79c-2.93.32-4-.47-6.68-3.75q-8.81-11-17.67-22"/><path class="cls-4" d="M486.15,158.47q-12.51,1.72-25.17,4l1.59,6.83.88-.15c-1-5.05,2.43-5.63,4.67-6l3.71-.61,6.3,22c.65,2.32,1.17,4.16-2,4.75l-1.12.19.23.78q6.56-1.1,13.09-2.06l-.23-.78-1.08.16c-3.26.43-3.75-1.22-4.48-3.72l-6.3-22,4.35-.66c4.88-.67,6.22,2.36,7,4.17l.87-.12-1.72-5.05-.57-1.67"/><path class="cls-4" d="M520.24,154.78q-6.45.5-13,1.17l.22.78c3.74-.35,4.57.18,5.57,3.53l-9.14,18.63-4.76-16.65c-1-3.78-.64-4.43,3.13-5l-.23-.79q-6.52.72-13.1,1.6l.23.78c4-.42,4.61.31,5.67,3.88l5.26,18.38c1,3.56.83,4.38-3.12,5l.23.78q6.58-.87,13.1-1.59l-.22-.78c-4.32.35-4.55-.36-5.5-3.36l9.13-18.66,4.74,16.58c1,3.79.66,4.39-3.16,4.88l.22.78q6.53-.66,13-1.16l-.23-.79c-3.93.2-4.52-.55-5.57-4.1l-5.26-18.38c-1-3.52-.82-4.39,3-4.8l-.22-.78"/><path class="cls-4" d="M543.53,181.14a27.17,27.17,0,0,1-5.15-.29L535,169c.07,0,7-1.58,11.31,1.23,3.07,2,4.54,5.84,3.15,8.22-1,1.67-2.86,2.52-5.93,2.68m-4.89-14a23.92,23.92,0,0,1-4.21-.07L531.26,156c8.88-3.14,15.88,3.7,13.54,8.63-1,2.09-3.7,2.4-6.16,2.53M535,153.83q-6.33.31-12.75.79l.22.78,1.11-.08c3.14-.17,3.64,1.53,4.39,4.1l5.33,18.64c.67,2.38,1.19,4.25-1.92,4.54l-1.11.08.22.79q7-.52,13.94-.85c17.83-.93,7.76-12.2,7.63-12.32a11,11,0,0,0-6-2.64c6.67-2.78,3.31-10.39-2.48-12.78-2.29-.94-4.7-1.24-8.6-1.05"/><path class="cls-4" d="M580.84,153.88q-5.65-.33-11.58-.49l.22.78,1,0c3,.18,3.42,1.78,4.18,4.42L577,166.9q-3.57-.13-7.24-.2-2.85-.05-5.72-.07l-2.37-8.28c-.7-2.48-1.21-4.28,1.83-4.29h1l-.23-.78q-6-.09-12.15,0l.22.78h1c3.08.06,3.52,1.56,4.31,4.29L563,177c.72,2.56,1.19,4.26-1.84,4.34h-1l.22.78q6.13-.08,12.15,0l-.23-.78h-1c-3.08-.13-3.54-1.72-4.3-4.34l-2.52-8.8q2.87,0,5.72.07,3.67.07,7.24.2l2.52,8.8c.66,2.38,1.19,4.25-1.71,4.22l-1,0,.22.78q5.92.16,11.57.49l-.22-.79-.93-.05c-2.89-.25-3.32-1.75-4.11-4.46l-5.33-18.64c-.75-2.64-1.2-4.23,1.63-4.17l.93.05-.22-.79"/><path class="cls-4" d="M600.51,182.22a19.16,19.16,0,0,1-2.62-.52l-3.55-12.4c7.31-1,12.59,7.72,9.89,11.36a3.87,3.87,0,0,1-3.72,1.56m-6.75-27.34q-5.36-.52-11-.88l.22.79c3.43.32,3.94,1.07,5,4.71l5.26,18.38c1,3.6.91,4.3-2.46,4.19l.22.78q5.53.35,10.8.86c12.77,1.06,4.4-11.4,4.29-11.53-2.73-3.24-5.81-4-11.27-4.56l-1-.09-2.22-7.75c-1.05-3.78-.74-4.32,2.37-4.12l-.22-.79m19.64,2.6q-4.79-.82-9.87-1.48l.22.78.56.07c2.81.44,3.25,2,4,4.71l5.33,18.64c.75,2.64,1.2,4.24-1.45,3.95l-.7-.09.22.78q5.07.67,9.87,1.49l-.22-.79-.51-.09c-2.26-.42-2.92-1.22-4-4.76L611.64,162c-.75-2.66-1.21-4.26,1.49-3.87l.51.09-.22-.78"/><path class="cls-4" d="M636.08,162.63q-3.37-1-6.94-1.88l.22.78a4.24,4.24,0,0,1,1.44.55l.74.77.4.83a3.31,3.31,0,0,1-.2,2.22q-.85,2.82-1.73,5.63c-6.09-8.89-6.09-8.89-6.35-9.49s-.51-1.82,1.55-1.49l-.22-.78q-4.8-1.09-9.92-2l.22.78c2.59.59,4.18,2.26,7.36,6.67q3.28,4.59,6.52,9.2c-3.61,11.06-3.75,11.49-6.54,11.33l.22.78q4,.7,7.71,1.5l-.22-.78a3,3,0,0,1-2.52-2.06,3.75,3.75,0,0,1,.27-2.32c.74-2.26,1.47-4.52,2.18-6.79,6.19,9.09,6.68,9.92,6.92,10.32l.42,1,.05.77c-.46.54-.52.6-1.57.37l.22.78q4.35,1.06,8.42,2.26l-.23-.79c-1.9-.73-2.71-1.77-6.39-7.27q-3.44-5.19-6.94-10.34c3.1-10.22,3.1-10.22,5.1-9.8l-.22-.78"/><path class="cls-4" d="M661.23,172.73q-3.08-1.68-6.46-3.23l.22.79c1.91.9,2.42,1.65,3.4,5-.74,4.63-1.32,8.05-2.48,13.87l-4.76-16.65c-1.05-3.74-.9-4.23,1.12-3.45l-.22-.78q-3.49-1.49-7.27-2.85l.22.78c2.28.92,2.72,1.77,3.76,5.37L654,190c1,3.59,1,4.24-1.22,3.53l.22.78q3.78,1.36,7.27,2.85l-.22-.78c-2.38-1.14-2.58-1.78-3.5-4.86,1-4.85,1.57-8.17,2.47-13.9l4.74,16.58c1.11,3.94.87,4.12-1,3.38l.22.78q3.38,1.55,6.46,3.23l-.23-.79c-1.93-1.14-2.33-2-3.35-5.55l-5.26-18.38c-1-3.47-1-4.25.81-3.35l-.22-.79"/><path class="cls-4" d="M675,182.09q-2.28-2-4.85-3.81l.22.78.42.3c1.29,1.05,1.72,2.55,2.5,5.26l2.37,8.28q-2.69-2.05-5.73-4l-2.37-8.28c-.71-2.51-1.14-4,0-3.52l.16.09.46.31-.22-.78q-2.7-1.8-5.71-3.49l.22.78.49.28c1.5,1,1.93,2.46,2.71,5.18L671,198.15c.71,2.52,1.18,4.18-.24,3.46l-.49-.28.22.78q3,1.68,5.71,3.49l-.22-.79-.46-.31c-1.43-1.05-1.85-2.53-2.63-5.21l-2.52-8.8q3,1.91,5.73,4l2.52,8.8c.94,3.3.82,3.37.47,3.59a1.92,1.92,0,0,1-.5-.22l-.42-.3.22.79q2.57,1.85,4.85,3.81l-.23-.79-.38-.32c-1.22-1.14-1.64-2.62-2.41-5.29l-5.33-18.65c-.73-2.57-1.14-4-.19-3.44l.14.1.38.32-.22-.79"/><path class="cls-4" d="M685.38,211.76c0-4-2-11.6-5.38-23.7q1.37,1.47,2.59,3l6.29,22a23.29,23.29,0,0,1,.76,3l-.12.09a4.23,4.23,0,0,1-.72-.73q-1.59-1.85-3.41-3.61m-1.07-19.36a52.36,52.36,0,0,0-7-8.22l.23.78c3.3,3.38,8.09,24.75,6.67,26a1.66,1.66,0,0,1-.48-.16l2.6,9.09.26.23c-.16-.66-1.51-6.48.13-5.74a3.11,3.11,0,0,1,.83.67q1.18,1.25,2.25,2.53c.89,1.1,2.1,2.61,5,11.69l.19.27-2.6-9.09c-1-1.56-1.12-1.79-3-8.27l-4.57-16a21.87,21.87,0,0,1-.83-3.33l.18-.14a4.58,4.58,0,0,1,.44.51l-.22-.79"/><path class="cls-4" d="M690.16,204.63q-.53-1.83-1.24-3.6l.22.79c.58,1.59,1,3.19,2.11,7.19q1.23,4.64,2.43,9.29c-1.53-4.87-2.5-7.93-4.51-14.1-1.74-5.34-1.87-5.75-1.89-6.22.16.12.16.12.32.41l-.22-.78a44.53,44.53,0,0,0-2.52-4.37l.22.78a36.21,36.21,0,0,1,2.17,5.56C695,222.51,695,223.45,695,224.13c-.67-.78-.67-1.87-1.21-2.71-.2.64,1.25,4.4,1.78,5.2l.17-.06c0-.55-.16-1.39-1.82-7.78-1.18-4.49-2.48-8.95-3.6-13.45l0,.1-.22-.79"/></g><g class="cls-6"><path class="cls-3" d="M659.06,326.1c-82.23,71.48-252.84,127.71-380.31,125.32s-164.27-62.51-82-134S449.59,189.72,577.06,192.11s164.24,62.51,82,134m-459-8.62c-81.06,70.46-44.76,129.7,80.88,132.05s293.77-53,374.83-123.5S700.56,196.32,574.92,194,281.09,247,200,317.48"/></g></svg>