<svg width="12" height="12" viewBox="0 0 12 12" fill="none" xmlns="http://www.w3.org/2000/svg">
<path d="M12 9.47727C12 9.63068 11.9716 9.83097 11.9148 10.0781C11.858 10.3253 11.7983 10.5199 11.7358 10.6619C11.6165 10.946 11.2699 11.2472 10.696 11.5653C10.1619 11.8551 9.63352 12 9.1108 12C8.95739 12 8.80824 11.9901 8.66335 11.9702C8.51847 11.9503 8.35511 11.9148 8.1733 11.8636C7.99148 11.8125 7.85653 11.7713 7.76847 11.7401C7.6804 11.7088 7.52273 11.6506 7.29545 11.5653C7.06818 11.4801 6.92898 11.429 6.87784 11.4119C6.32102 11.2131 5.82386 10.9773 5.38636 10.7045C4.65909 10.2557 3.90767 9.64347 3.1321 8.8679C2.35653 8.09233 1.74432 7.34091 1.29545 6.61364C1.02273 6.17614 0.786932 5.67898 0.588068 5.12216C0.571023 5.07102 0.519886 4.93182 0.434659 4.70455C0.349432 4.47727 0.291193 4.3196 0.259943 4.23153C0.228693 4.14347 0.1875 4.00852 0.136364 3.8267C0.0852273 3.64489 0.0497159 3.48153 0.0298295 3.33665C0.00994318 3.19176 0 3.04261 0 2.8892C0 2.36648 0.144886 1.83807 0.434659 1.30398C0.752841 0.730114 1.05398 0.383523 1.33807 0.264205C1.48011 0.201705 1.67472 0.142045 1.92188 0.0852273C2.16903 0.0284091 2.36932 0 2.52273 0C2.60227 0 2.66193 0.00852273 2.7017 0.0255682C2.80398 0.0596591 2.95455 0.275568 3.15341 0.673295C3.21591 0.78125 3.30114 0.934659 3.40909 1.13352C3.51705 1.33239 3.61648 1.51278 3.70739 1.67472C3.7983 1.83665 3.88636 1.98864 3.97159 2.13068C3.98864 2.15341 4.03835 2.22443 4.12074 2.34375C4.20313 2.46307 4.2642 2.56392 4.30398 2.64631C4.34375 2.72869 4.36364 2.80966 4.36364 2.8892C4.36364 3.00284 4.28267 3.14489 4.12074 3.31534C3.95881 3.4858 3.78267 3.64205 3.59233 3.78409C3.40199 3.92614 3.22585 4.0767 3.06392 4.2358C2.90199 4.39489 2.82102 4.52557 2.82102 4.62784C2.82102 4.67898 2.83523 4.7429 2.86364 4.8196C2.89205 4.89631 2.91619 4.95455 2.93608 4.99432C2.95597 5.03409 2.99574 5.10227 3.0554 5.19886C3.11506 5.29545 3.14773 5.34943 3.15341 5.3608C3.58523 6.1392 4.07955 6.80682 4.63636 7.36364C5.19318 7.92045 5.8608 8.41477 6.6392 8.84659C6.65057 8.85227 6.70455 8.88494 6.80114 8.9446C6.89773 9.00426 6.96591 9.04403 7.00568 9.06392C7.04545 9.08381 7.10369 9.10795 7.1804 9.13636C7.2571 9.16477 7.32102 9.17898 7.37216 9.17898C7.47443 9.17898 7.60511 9.09801 7.7642 8.93608C7.9233 8.77415 8.07386 8.59801 8.21591 8.40767C8.35795 8.21733 8.5142 8.04119 8.68466 7.87926C8.85511 7.71733 8.99716 7.63636 9.1108 7.63636C9.19034 7.63636 9.27131 7.65625 9.35369 7.69602C9.43608 7.7358 9.53693 7.79688 9.65625 7.87926C9.77557 7.96165 9.84659 8.01136 9.86932 8.02841C10.0114 8.11364 10.1634 8.2017 10.3253 8.29261C10.4872 8.38352 10.6676 8.48295 10.8665 8.59091C11.0653 8.69886 11.2188 8.78409 11.3267 8.84659C11.7244 9.04545 11.9403 9.19602 11.9744 9.2983C11.9915 9.33807 12 9.39773 12 9.47727Z" fill="#21E18C"/>
</svg>
