<svg width="35" height="35" viewBox="0 0 35 35" fill="none" xmlns="http://www.w3.org/2000/svg">
<path fill-rule="evenodd" clip-rule="evenodd" d="M17.6875 34.999L17.6875 35C24.9125 35 29.9 34.975 32.475 32.475C34.975 29.9 35 24.675 35 17.6875L34.999 17.6875C34.9997 17.6251 35 17.5626 35 17.5C35 17.4374 34.9997 17.3749 34.999 17.3125L35 17.3125C35 10.325 34.975 5.1 32.475 2.525C29.9 0.0250001 24.9125 0 17.6875 0L17.6875 0.00098404C17.6251 0.000328557 17.5626 0 17.5 0C17.4374 0 17.3749 0.000328557 17.3125 0.00098404L17.3125 0C10.1 0 5.1 0.0250001 2.525 2.525C0.0250001 5.1 0 10.325 0 17.3125L0.000984057 17.3125C0.000328562 17.3749 0 17.4374 0 17.5C0 17.5626 0.000328557 17.6251 0.00098404 17.6875L0 17.6875C0 24.675 0.0250001 29.9 2.525 32.475C5.1 34.975 10.0875 35 17.3125 35L17.3125 34.999C17.3749 34.9997 17.4374 35 17.5 35C17.5626 35 17.6251 34.9997 17.6875 34.999ZM18.6283 23.9451H17.254C17.254 23.9451 14.2207 24.126 11.5483 21.3703C8.63541 18.3642 6.06211 12.4015 6.06211 12.4015C6.06211 12.4015 5.91414 12.0114 6.07503 11.8217C6.25617 11.6098 6.74946 11.5953 6.74946 11.5953L10.0355 11.5756C10.0355 11.5756 10.3462 11.6267 10.5676 11.7877C10.7502 11.9202 10.8523 12.1677 10.8523 12.1677C10.8523 12.1677 11.3842 13.4994 12.0871 14.7026C13.4601 17.0538 14.0996 17.5681 14.5669 17.3161C15.2469 16.9484 15.0429 13.9937 15.0429 13.9937C15.0429 13.9937 15.0559 12.9198 14.7008 12.4428C14.4261 12.0724 13.9086 11.9642 13.68 11.9343C13.4945 11.9102 13.798 11.4843 14.1919 11.2934C14.7826 11.0072 15.8277 10.9901 17.0614 11.003C18.023 11.0128 18.2989 11.0727 18.6757 11.1624C19.5482 11.3708 19.5211 12.0394 19.4625 13.4826C19.445 13.9134 19.4247 14.4132 19.4247 14.9903C19.4247 15.1207 19.4209 15.2597 19.4169 15.4027C19.3963 16.141 19.3728 16.9866 19.8631 17.3003C20.1148 17.4614 20.7313 17.3246 22.2711 14.7343C23.0014 13.5064 23.549 12.0625 23.549 12.0625C23.549 12.0625 23.6683 11.806 23.854 11.6951C24.045 11.5825 24.301 11.6168 24.301 11.6168L27.7572 11.5968C27.7572 11.5968 28.7964 11.4742 28.9646 11.9385C29.1416 12.4255 28.5765 13.5649 27.1632 15.4304C25.8219 17.2011 25.1695 17.8521 25.2299 18.4285C25.274 18.8492 25.6979 19.2301 26.5107 19.9776C28.2191 21.5485 28.6711 22.3706 28.7764 22.5621C28.7845 22.5769 28.7906 22.5879 28.795 22.5952C29.5569 23.847 27.9498 23.9452 27.9498 23.9452L24.8777 23.988C24.8777 23.988 24.2177 24.1174 23.3494 23.5266C22.8953 23.2176 22.4513 22.7133 22.0282 22.2327C21.3813 21.4978 20.7833 20.8186 20.273 20.9787C19.4162 21.248 19.4433 23.075 19.4433 23.075C19.4433 23.075 19.4508 23.4655 19.2552 23.6733C19.0436 23.8998 18.6283 23.9451 18.6283 23.9451Z" fill="white"/>
</svg>
